{"glyphs":{"0":{"ha":928,"x_min":0,"x_max":0,"o":"m 457 -31 l 511 -26 l 553 -21 l 579 -15 l 596 -8 l 619 -1 l 640 11 l 656 18 l 674 31 l 699 50 l 739 93 l 756 117 l 769 138 l 786 174 l 808 229 l 821 283 l 826 310 l 832 342 l 842 400 l 843 450 l 844 493 l 843 518 l 842 550 l 838 578 l 835 625 l 832 653 l 826 672 l 819 707 l 810 743 l 803 764 l 792 785 l 782 815 l 772 838 l 751 871 l 725 900 l 713 915 l 681 939 l 644 964 l 611 981 l 578 994 l 553 1000 l 482 1006 l 435 1006 l 408 1003 l 392 1000 l 365 993 l 333 983 l 304 972 l 283 963 l 254 950 l 233 933 l 213 915 l 197 897 l 175 867 l 157 843 l 144 818 l 128 782 l 118 753 l 110 726 l 101 683 l 96 653 l 93 636 l 89 607 l 85 581 l 85 549 l 83 504 l 83 469 l 85 442 l 92 358 l 94 315 l 99 297 l 106 261 l 114 225 l 121 206 l 135 176 l 158 136 l 175 113 l 203 76 l 228 51 l 250 31 l 286 10 l 311 0 l 360 -17 l 389 -21 l 399 -24 l 417 -26 z m 432 69 l 376 79 l 333 93 l 301 115 l 285 131 l 265 150 l 247 175 l 232 199 l 215 231 l 204 268 l 196 301 l 194 314 l 192 325 l 189 344 l 186 369 l 185 411 l 183 457 l 181 486 l 182 531 l 183 561 l 183 589 l 192 639 l 196 671 l 204 706 l 218 744 l 222 763 l 232 782 l 246 806 l 265 835 l 290 858 l 329 882 l 388 900 l 428 906 l 464 907 l 507 906 l 542 899 l 572 889 l 594 879 l 624 860 l 649 838 l 672 811 l 693 779 l 710 740 l 724 690 l 731 663 l 732 647 l 735 629 l 736 596 l 739 551 l 739 513 l 742 469 l 740 439 l 738 417 l 733 372 l 729 339 l 722 304 l 711 260 l 700 228 l 689 204 l 679 183 l 661 158 l 646 139 l 635 128 l 615 113 l 599 99 l 583 92 l 550 79 l 519 72 l 485 69 z "},"1":{"ha":621,"x_min":0,"x_max":0,"o":"m 528 -6 l 546 -6 l 565 -4 l 578 8 l 578 40 l 575 72 l 564 82 l 547 85 l 481 85 l 444 83 l 424 90 l 411 99 l 406 115 l 403 157 l 403 188 l 404 225 l 406 235 l 406 256 l 407 286 l 407 353 l 404 375 l 406 421 l 406 451 l 404 469 l 403 490 l 403 518 l 407 554 l 407 599 l 408 638 l 408 674 l 407 724 l 407 797 l 404 850 l 404 874 l 406 913 l 404 938 l 400 953 l 393 964 l 375 971 l 358 974 l 339 968 l 314 957 l 288 946 l 260 928 l 189 892 l 171 882 l 143 867 l 111 850 l 86 838 l 72 824 l 69 801 l 83 771 l 103 753 l 118 751 l 133 757 l 182 783 l 222 804 l 257 819 l 275 828 l 286 832 l 297 832 l 310 822 l 313 778 l 313 740 l 311 711 l 310 689 l 308 651 l 310 629 l 311 597 l 310 554 l 311 508 l 313 453 l 313 389 l 314 367 l 315 346 l 315 328 l 314 308 l 314 269 l 313 242 l 311 181 l 313 131 l 310 107 l 306 94 l 290 88 l 275 83 l 253 83 l 174 86 l 157 86 l 140 83 l 129 71 l 124 54 l 121 38 l 124 24 l 131 8 l 143 3 l 169 -1 l 201 0 l 275 -3 l 304 -3 l 331 -4 l 357 -4 l 392 -3 l 425 -3 l 456 -1 l 489 -3 l 517 -3 z "},"2":{"ha":879,"x_min":0,"x_max":0,"o":"m 190 -7 l 250 -4 l 400 -3 l 426 -4 l 472 -6 l 522 -4 l 708 -4 l 738 -1 l 753 7 l 758 15 l 760 24 l 761 49 l 757 78 l 740 89 l 726 90 l 699 90 l 644 89 l 596 89 l 549 88 l 521 88 l 474 85 l 433 83 l 407 86 l 367 86 l 276 89 l 240 89 l 226 90 l 210 94 l 201 103 l 199 110 l 206 128 l 229 158 l 249 179 l 275 203 l 306 226 l 401 283 l 440 307 l 499 342 l 536 361 l 586 392 l 610 411 l 640 435 l 651 449 l 669 468 l 699 504 l 722 540 l 736 561 l 744 578 l 756 615 l 764 656 l 765 700 l 764 743 l 757 772 l 750 806 l 739 831 l 732 846 l 718 865 l 701 885 l 686 901 l 667 919 l 649 938 l 622 954 l 585 974 l 536 992 l 468 1004 l 438 1007 l 393 1008 l 351 999 l 315 989 l 279 974 l 258 963 l 215 938 l 194 921 l 174 903 l 151 881 l 140 865 l 124 840 l 110 814 l 106 794 l 108 779 l 124 763 l 142 754 l 167 751 l 200 774 l 215 797 l 228 817 l 286 872 l 307 888 l 328 897 l 356 907 l 372 911 l 407 914 l 428 913 l 453 911 l 481 907 l 531 894 l 564 878 l 592 861 l 617 842 l 631 826 l 647 806 l 658 774 l 664 749 l 664 719 l 665 667 l 660 636 l 651 618 l 635 588 l 619 567 l 607 547 l 592 529 l 583 524 l 569 513 l 547 490 l 528 478 l 504 461 l 483 447 l 401 399 l 372 376 l 318 346 l 290 332 l 275 324 l 260 314 l 242 300 l 206 275 l 188 260 l 157 228 l 132 199 l 118 179 l 115 176 l 103 151 l 92 119 l 85 96 l 85 72 l 86 60 l 92 40 l 104 24 l 114 13 l 136 3 l 167 -6 z "},"3":{"ha":765,"x_min":0,"x_max":0,"o":"m 394 -29 l 444 -24 l 504 -10 l 543 3 l 576 25 l 600 42 l 608 50 l 621 60 l 644 85 l 672 124 l 682 143 l 696 169 l 710 207 l 719 257 l 724 304 l 721 332 l 721 350 l 715 390 l 703 422 l 689 450 l 672 478 l 656 499 l 631 522 l 604 542 l 581 558 l 556 571 l 538 579 l 511 588 l 483 592 l 458 597 l 419 604 l 394 610 l 390 617 l 390 619 l 400 635 l 419 654 l 435 671 l 478 714 l 506 739 l 529 761 l 551 781 l 590 818 l 628 850 l 657 876 l 674 904 l 679 922 l 679 936 l 675 950 l 671 957 l 660 965 l 646 969 l 622 971 l 593 972 l 572 971 l 553 972 l 518 974 l 421 976 l 392 976 l 349 975 l 325 974 l 290 974 l 247 972 l 135 972 l 121 974 l 106 974 l 92 968 l 85 943 l 83 914 l 85 901 l 99 889 l 124 886 l 167 883 l 232 883 l 329 885 l 358 886 l 401 886 l 474 883 l 490 881 l 501 874 l 497 861 l 476 839 l 401 769 l 385 753 l 350 719 l 332 703 l 306 678 l 286 660 l 253 629 l 213 590 l 196 574 l 179 551 l 175 542 l 178 532 l 194 506 l 236 489 l 256 490 l 271 497 l 301 506 l 324 507 l 346 511 l 375 513 l 401 511 l 426 511 l 444 510 l 518 486 l 539 474 l 567 454 l 590 429 l 611 399 l 624 360 l 626 325 l 628 292 l 625 267 l 624 251 l 621 239 l 613 208 l 601 185 l 578 147 l 553 121 l 526 103 l 493 89 l 451 76 l 396 71 l 357 69 l 321 74 l 272 85 l 225 111 l 201 128 l 179 150 l 153 182 l 140 206 l 133 218 l 117 229 l 94 232 l 83 229 l 64 222 l 47 208 l 43 192 l 43 176 l 60 144 l 85 106 l 110 83 l 124 68 l 153 42 l 208 13 l 264 -8 l 297 -19 l 325 -25 l 354 -28 z "},"4":{"ha":881,"x_min":0,"x_max":0,"o":"m 738 0 l 764 3 l 775 3 l 788 4 l 806 19 l 813 56 l 807 83 l 801 90 l 789 94 l 761 97 l 732 96 l 706 96 l 675 100 l 646 117 l 638 133 l 638 161 l 636 197 l 636 235 l 640 265 l 650 279 l 665 288 l 699 290 l 774 292 l 799 299 l 808 306 l 810 331 l 810 354 l 806 364 l 800 374 l 788 378 l 765 381 l 739 381 l 707 376 l 672 382 l 643 400 l 636 428 l 636 500 l 635 528 l 633 550 l 635 588 l 635 625 l 636 653 l 636 682 l 635 694 l 626 708 l 599 713 l 567 713 l 550 704 l 546 693 l 543 661 l 542 633 l 542 547 l 540 499 l 536 474 l 536 454 l 535 435 l 532 419 l 526 404 l 514 392 l 478 383 l 450 382 l 411 378 l 372 376 l 344 376 l 293 378 l 239 381 l 231 386 l 224 397 l 228 414 l 244 442 l 278 494 l 290 519 l 311 553 l 338 603 l 368 656 l 376 675 l 388 703 l 404 742 l 422 786 l 429 824 l 440 868 l 446 897 l 447 936 l 440 953 l 431 961 l 406 971 l 375 969 l 361 957 l 356 943 l 349 913 l 343 886 l 338 861 l 328 828 l 317 800 l 301 760 l 282 715 l 264 675 l 247 642 l 231 611 l 211 579 l 189 539 l 158 490 l 143 468 l 121 432 l 108 407 l 74 354 l 69 336 l 71 326 l 78 313 l 89 299 l 104 292 l 122 290 l 150 292 l 196 290 l 242 290 l 274 289 l 292 286 l 418 286 l 440 289 l 476 289 l 518 281 l 532 264 l 536 244 l 536 132 l 535 124 l 528 111 l 503 99 l 472 93 l 382 93 l 367 89 l 356 71 l 356 40 l 364 18 l 376 10 l 388 7 l 482 6 l 514 3 l 543 1 l 567 1 l 597 4 l 617 4 l 639 6 l 658 6 l 682 3 l 704 3 z "},"5":{"ha":886,"x_min":0,"x_max":0,"o":"m 383 -19 l 417 -19 l 474 -17 l 508 -14 l 550 -4 l 585 13 l 618 29 l 651 54 l 682 81 l 710 114 l 740 161 l 760 208 l 769 250 l 775 297 l 775 335 l 774 357 l 772 376 l 769 390 l 764 417 l 751 456 l 739 486 l 728 507 l 708 535 l 682 565 l 651 589 l 611 617 l 589 629 l 547 644 l 519 647 l 489 653 l 457 657 l 397 654 l 365 650 l 343 646 l 311 636 l 272 624 l 257 624 l 250 629 l 246 633 l 243 642 l 244 656 l 250 690 l 256 719 l 260 751 l 265 771 l 274 817 l 281 851 l 289 863 l 294 869 l 311 872 l 340 871 l 406 860 l 428 857 l 538 851 l 565 854 l 597 857 l 618 861 l 633 863 l 671 874 l 704 889 l 715 899 l 719 917 l 718 932 l 710 946 l 696 963 l 683 971 l 665 972 l 632 961 l 606 953 l 582 947 l 539 940 l 486 942 l 451 943 l 419 950 l 307 971 l 288 972 l 263 976 l 235 978 l 219 971 l 196 950 l 189 924 l 185 899 l 179 876 l 175 854 l 169 822 l 165 799 l 161 771 l 157 739 l 150 711 l 143 663 l 136 632 l 126 578 l 117 528 l 108 482 l 106 442 l 111 422 l 122 410 l 136 403 l 149 400 l 176 403 l 203 422 l 221 446 l 240 478 l 268 508 l 292 526 l 313 540 l 356 556 l 383 563 l 397 563 l 415 565 l 465 565 l 497 563 l 511 558 l 547 546 l 575 532 l 593 518 l 624 489 l 653 444 l 665 417 l 675 383 l 675 372 l 678 351 l 675 304 l 671 274 l 656 217 l 643 190 l 619 154 l 600 138 l 583 124 l 560 108 l 533 94 l 511 88 l 481 79 l 451 76 l 413 72 l 365 78 l 331 88 l 286 108 l 260 126 l 240 140 l 224 158 l 203 188 l 185 218 l 165 236 l 139 239 l 122 235 l 101 222 l 92 204 l 90 192 l 96 175 l 103 156 l 113 142 l 144 103 l 171 75 l 188 61 l 201 53 l 235 32 l 260 18 l 304 1 l 338 -8 l 364 -15 z "},"6":{"ha":892,"x_min":0,"x_max":0,"o":"m 425 -22 l 467 -22 l 481 -19 l 515 -18 l 539 -14 l 586 1 l 626 19 l 669 44 l 710 86 l 732 111 l 749 135 l 761 157 l 774 185 l 779 201 l 783 218 l 790 242 l 796 281 l 796 321 l 794 349 l 789 385 l 783 425 l 772 447 l 753 489 l 731 528 l 717 544 l 703 558 l 681 578 l 660 594 l 644 604 l 629 613 l 621 618 l 611 622 l 588 629 l 557 642 l 535 649 l 518 651 l 496 654 l 464 654 l 424 653 l 382 644 l 343 633 l 279 606 l 263 594 l 256 589 l 247 592 l 249 601 l 263 631 l 285 668 l 313 704 l 346 742 l 358 754 l 368 765 l 393 785 l 421 801 l 440 814 l 465 829 l 492 844 l 526 860 l 590 882 l 607 886 l 624 894 l 635 906 l 639 924 l 640 935 l 635 950 l 626 963 l 617 969 l 596 974 l 575 971 l 554 967 l 529 960 l 500 946 l 454 928 l 408 903 l 388 890 l 351 867 l 325 844 l 293 819 l 260 786 l 240 763 l 225 743 l 200 707 l 186 683 l 165 653 l 149 614 l 136 582 l 129 561 l 124 538 l 115 507 l 108 471 l 107 453 l 104 438 l 101 407 l 100 381 l 99 358 l 104 303 l 113 265 l 122 233 l 132 197 l 146 163 l 158 139 l 194 92 l 229 61 l 264 35 l 306 13 l 343 -3 l 374 -11 l 403 -19 z m 431 69 l 414 72 l 389 78 l 365 86 l 344 94 l 322 104 l 306 118 l 292 131 l 268 153 l 246 181 l 236 206 l 225 232 l 219 249 l 215 279 l 208 326 l 208 350 l 211 361 l 214 374 l 219 392 l 229 418 l 240 442 l 250 457 l 271 488 l 306 518 l 322 526 l 342 538 l 365 549 l 394 558 l 440 564 l 464 564 l 493 563 l 544 550 l 579 533 l 621 500 l 636 485 l 654 458 l 675 426 l 688 399 l 694 367 l 699 332 l 697 311 l 694 285 l 688 249 l 676 217 l 661 192 l 653 171 l 642 156 l 631 143 l 607 122 l 586 106 l 557 92 l 519 78 l 490 74 l 456 69 z "},"7":{"ha":806,"x_min":0,"x_max":0,"o":"m 297 -1 l 322 1 l 329 4 l 336 13 l 342 38 l 344 92 l 347 135 l 350 163 l 356 197 l 358 225 l 363 235 l 368 256 l 378 286 l 386 319 l 396 349 l 403 371 l 415 400 l 429 438 l 449 478 l 471 525 l 499 565 l 525 613 l 549 650 l 561 668 l 581 693 l 592 707 l 603 724 l 618 744 l 635 767 l 647 788 l 664 807 l 678 824 l 699 851 l 724 879 l 731 889 l 735 900 l 736 917 l 726 947 l 701 968 l 690 972 l 661 972 l 622 971 l 589 968 l 561 969 l 539 971 l 497 972 l 414 972 l 378 969 l 363 969 l 339 968 l 311 971 l 250 967 l 194 967 l 164 968 l 133 968 l 103 972 l 89 968 l 78 960 l 71 935 l 71 907 l 78 893 l 89 885 l 113 879 l 167 879 l 193 876 l 243 876 l 311 879 l 342 878 l 406 878 l 443 876 l 469 879 l 492 878 l 567 875 l 575 874 l 582 867 l 576 853 l 561 833 l 544 814 l 521 782 l 494 746 l 458 685 l 442 663 l 419 625 l 406 600 l 390 571 l 378 546 l 350 493 l 339 467 l 314 406 l 301 374 l 294 351 l 286 318 l 271 254 l 264 215 l 258 189 l 254 151 l 251 119 l 247 90 l 243 50 l 246 29 l 251 17 l 264 3 z "},"8":{"ha":942,"x_min":0,"x_max":0,"o":"m 447 -24 l 469 -24 l 490 -21 l 539 -18 l 585 -11 l 610 -7 l 632 -1 l 650 6 l 672 13 l 688 24 l 711 35 l 736 56 l 750 67 l 790 118 l 807 150 l 817 174 l 825 192 l 831 228 l 829 261 l 824 315 l 811 363 l 800 383 l 782 410 l 749 449 l 721 469 l 701 482 l 683 496 l 679 503 l 682 511 l 704 533 l 719 543 l 746 568 l 765 594 l 779 613 l 793 650 l 803 688 l 804 711 l 807 731 l 806 751 l 803 768 l 799 785 l 790 810 l 782 833 l 771 850 l 757 869 l 740 890 l 718 911 l 700 928 l 683 940 l 664 953 l 651 958 l 632 968 l 600 983 l 565 992 l 539 993 l 508 996 l 469 997 l 417 996 l 378 992 l 349 983 l 297 964 l 257 943 l 231 928 l 213 911 l 183 879 l 167 847 l 154 819 l 139 764 l 138 708 l 146 671 l 156 633 l 169 608 l 181 590 l 222 546 l 250 522 l 263 508 l 263 500 l 250 490 l 228 476 l 208 464 l 188 446 l 169 426 l 150 397 l 126 344 l 115 304 l 113 289 l 111 249 l 111 214 l 115 188 l 125 157 l 139 132 l 153 110 l 164 94 l 179 75 l 208 50 l 231 33 l 256 19 l 288 7 l 310 -3 l 335 -7 l 346 -10 l 364 -14 l 389 -17 l 406 -21 l 421 -22 z m 431 69 l 407 71 l 354 83 l 325 94 l 293 108 l 251 142 l 239 160 l 225 182 l 211 213 l 208 242 l 208 258 l 213 278 l 215 299 l 228 335 l 250 369 l 265 388 l 286 406 l 306 418 l 326 425 l 344 429 l 360 433 l 378 436 l 407 442 l 454 442 l 472 443 l 500 442 l 532 439 l 563 432 l 596 424 l 621 415 l 651 399 l 672 382 l 703 349 l 715 325 l 726 290 l 731 254 l 724 214 l 710 171 l 701 151 l 679 129 l 657 114 l 636 101 l 597 86 l 554 75 l 522 71 l 478 69 z m 485 547 l 447 550 l 410 557 l 329 585 l 307 597 l 274 626 l 253 665 l 242 706 l 239 733 l 242 756 l 249 786 l 260 807 l 276 825 l 294 843 l 319 861 l 342 875 l 388 893 l 426 903 l 456 907 l 486 906 l 508 907 l 521 903 l 538 901 l 561 896 l 592 885 l 613 875 l 635 858 l 656 839 l 669 822 l 685 793 l 694 771 l 704 731 l 704 704 l 696 667 l 668 624 l 643 600 l 621 585 l 592 574 l 571 567 l 549 560 l 513 551 z "},"9":{"ha":890,"x_min":0,"x_max":0,"o":"m 296 -1 l 317 1 l 338 6 l 363 13 l 392 26 l 438 44 l 483 69 l 504 82 l 540 106 l 567 128 l 599 153 l 632 186 l 651 210 l 667 229 l 692 265 l 706 289 l 726 319 l 743 358 l 756 390 l 763 411 l 769 436 l 776 465 l 783 501 l 785 519 l 788 536 l 790 565 l 792 592 l 793 614 l 792 642 l 788 669 l 779 707 l 771 739 l 760 775 l 746 810 l 733 833 l 697 881 l 664 913 l 628 938 l 586 960 l 549 975 l 518 983 l 489 992 l 467 994 l 425 994 l 411 992 l 376 990 l 353 986 l 306 971 l 265 953 l 222 928 l 182 886 l 161 863 l 143 838 l 131 815 l 118 788 l 113 771 l 108 754 l 101 731 l 96 692 l 96 651 l 97 624 l 103 588 l 108 547 l 119 525 l 139 483 l 163 444 l 175 428 l 189 415 l 211 394 l 232 378 l 247 368 l 263 360 l 272 356 l 281 351 l 304 343 l 335 331 l 374 321 l 396 318 l 428 318 l 468 319 l 510 328 l 549 339 l 613 367 l 629 379 l 636 383 l 644 381 l 643 371 l 629 342 l 607 304 l 579 268 l 557 244 l 546 231 l 533 218 l 524 207 l 499 188 l 472 171 l 451 158 l 426 143 l 400 128 l 365 113 l 301 90 l 285 86 l 268 78 l 257 67 l 253 49 l 251 38 l 257 22 l 265 10 l 275 3 z m 428 408 l 399 410 l 347 422 l 313 439 l 271 472 l 256 488 l 238 514 l 217 546 l 204 574 l 197 606 l 193 640 l 196 661 l 197 688 l 204 724 l 215 756 l 231 781 l 239 801 l 250 817 l 263 831 l 285 850 l 306 867 l 335 881 l 372 894 l 401 899 l 436 903 l 461 903 l 478 900 l 503 894 l 526 886 l 547 878 l 569 868 l 588 856 l 600 842 l 624 819 l 646 792 l 656 767 l 667 740 l 672 724 l 678 693 l 683 646 l 683 622 l 678 600 l 672 581 l 663 554 l 651 531 l 642 515 l 621 485 l 586 454 l 569 446 l 550 435 l 526 424 l 497 414 l 451 408 z "},"A":{"ha":1042,"x_min":0,"x_max":0,"o":"m 919 -14 l 942 -6 l 964 7 l 971 21 l 971 39 l 965 60 l 957 78 l 942 110 l 925 150 l 911 176 l 899 207 l 883 239 l 871 269 l 857 303 l 839 340 l 819 382 l 803 426 l 788 460 l 781 483 l 772 499 l 758 521 l 739 567 l 725 596 l 715 618 l 700 658 l 678 701 l 668 731 l 658 750 l 636 811 l 622 849 l 608 881 l 597 904 l 588 922 l 574 943 l 558 967 l 549 976 l 535 979 l 521 976 l 511 969 l 492 942 l 483 926 l 469 901 l 461 886 l 456 872 l 447 853 l 432 815 l 414 782 l 403 758 l 392 738 l 374 701 l 361 675 l 340 633 l 329 608 l 321 585 l 306 553 l 293 524 l 283 506 l 279 496 l 261 464 l 249 439 l 236 407 l 226 383 l 214 354 l 201 329 l 193 310 l 176 281 l 167 253 l 151 222 l 129 172 l 115 143 l 97 108 l 83 76 l 71 46 l 69 32 l 82 14 l 107 4 l 132 -4 l 147 -6 l 158 1 l 172 25 l 188 53 l 200 78 l 215 113 l 236 161 l 247 183 l 263 215 l 269 229 l 279 250 l 293 275 l 304 292 l 315 301 l 343 310 l 382 317 l 404 319 l 457 319 l 471 321 l 490 321 l 507 318 l 529 319 l 558 319 l 576 318 l 618 318 l 674 311 l 697 310 l 722 304 l 742 294 l 757 282 l 768 260 l 785 228 l 806 178 l 828 133 l 835 107 l 853 72 l 869 42 l 876 25 l 885 4 l 900 -12 z m 626 407 l 592 408 l 569 408 l 547 410 l 522 408 l 490 411 l 450 408 l 417 408 l 394 411 l 382 415 l 369 424 l 372 453 l 390 489 l 407 532 l 425 567 l 438 593 l 450 614 l 461 638 l 469 658 l 479 675 l 490 701 l 497 724 l 507 744 l 517 764 l 529 775 l 543 768 l 554 749 l 567 722 l 574 706 l 583 683 l 594 658 l 610 628 l 621 604 l 636 565 l 650 538 l 663 504 l 671 483 l 678 460 l 689 433 l 689 418 l 683 414 l 665 408 l 646 408 z "},"Á":{"ha":1042,"x_min":0,"x_max":0,"o":"m 919 -14 l 942 -6 l 964 7 l 971 21 l 971 39 l 965 60 l 957 78 l 942 110 l 925 150 l 911 176 l 899 207 l 883 239 l 871 269 l 857 303 l 839 340 l 819 382 l 803 426 l 788 460 l 781 483 l 772 499 l 758 521 l 739 567 l 725 596 l 715 618 l 700 658 l 678 701 l 668 731 l 658 750 l 636 811 l 622 849 l 608 881 l 597 904 l 588 922 l 574 943 l 558 967 l 549 976 l 535 979 l 521 976 l 511 969 l 492 942 l 483 926 l 469 901 l 461 886 l 456 872 l 447 853 l 432 815 l 414 782 l 403 758 l 392 738 l 374 701 l 361 675 l 340 633 l 329 608 l 321 585 l 306 553 l 293 524 l 283 506 l 279 496 l 261 464 l 249 439 l 236 407 l 226 383 l 214 354 l 201 329 l 193 310 l 176 281 l 167 253 l 151 222 l 129 172 l 115 143 l 97 108 l 83 76 l 71 46 l 69 32 l 82 14 l 107 4 l 132 -4 l 147 -6 l 158 1 l 172 25 l 188 53 l 200 78 l 215 113 l 236 161 l 247 183 l 263 215 l 269 229 l 279 250 l 293 275 l 304 292 l 315 301 l 343 310 l 382 317 l 404 319 l 457 319 l 471 321 l 490 321 l 507 318 l 529 319 l 558 319 l 576 318 l 618 318 l 674 311 l 697 310 l 722 304 l 742 294 l 757 282 l 768 260 l 785 228 l 806 178 l 828 133 l 835 107 l 853 72 l 869 42 l 876 25 l 885 4 l 900 -12 z m 626 407 l 592 408 l 569 408 l 547 410 l 522 408 l 490 411 l 450 408 l 417 408 l 394 411 l 382 415 l 369 424 l 372 453 l 390 489 l 407 532 l 425 567 l 438 593 l 450 614 l 461 638 l 469 658 l 479 675 l 490 701 l 497 724 l 507 744 l 517 764 l 529 775 l 543 768 l 554 749 l 567 722 l 574 706 l 583 683 l 594 658 l 610 628 l 621 604 l 636 565 l 650 538 l 663 504 l 671 483 l 678 460 l 689 433 l 689 418 l 683 414 l 665 408 l 646 408 z m 540 1092 l 550 1096 l 571 1111 l 593 1136 l 617 1161 l 649 1193 l 664 1210 l 696 1243 l 715 1264 l 722 1286 l 715 1304 l 683 1336 l 672 1343 l 658 1344 l 633 1326 l 613 1307 l 593 1292 l 571 1274 l 556 1257 l 542 1246 l 528 1229 l 485 1188 l 469 1169 l 463 1156 l 465 1140 l 474 1122 l 499 1104 l 524 1094 z "},"Ă":{"ha":1042,"x_min":0,"x_max":0,"o":"m 919 -14 l 942 -6 l 964 7 l 971 21 l 971 39 l 965 60 l 957 78 l 942 110 l 925 150 l 911 176 l 899 207 l 883 239 l 871 269 l 857 303 l 839 340 l 819 382 l 803 426 l 788 460 l 781 483 l 772 499 l 758 521 l 739 567 l 725 596 l 715 618 l 700 658 l 678 701 l 668 731 l 658 750 l 636 811 l 622 849 l 608 881 l 597 904 l 588 922 l 574 943 l 558 967 l 549 976 l 535 979 l 521 976 l 511 969 l 492 942 l 483 926 l 469 901 l 461 886 l 456 872 l 447 853 l 432 815 l 414 782 l 403 758 l 392 738 l 374 701 l 361 675 l 340 633 l 329 608 l 321 585 l 306 553 l 293 524 l 283 506 l 279 496 l 261 464 l 249 439 l 236 407 l 226 383 l 214 354 l 201 329 l 193 310 l 176 281 l 167 253 l 151 222 l 129 172 l 115 143 l 97 108 l 83 76 l 71 46 l 69 32 l 82 14 l 107 4 l 132 -4 l 147 -6 l 158 1 l 172 25 l 188 53 l 200 78 l 215 113 l 236 161 l 247 183 l 263 215 l 269 229 l 279 250 l 293 275 l 304 292 l 315 301 l 343 310 l 382 317 l 404 319 l 457 319 l 471 321 l 490 321 l 507 318 l 529 319 l 558 319 l 576 318 l 618 318 l 674 311 l 697 310 l 722 304 l 742 294 l 757 282 l 768 260 l 785 228 l 806 178 l 828 133 l 835 107 l 853 72 l 869 42 l 876 25 l 885 4 l 900 -12 z m 626 407 l 592 408 l 569 408 l 547 410 l 522 408 l 490 411 l 450 408 l 417 408 l 394 411 l 382 415 l 369 424 l 372 453 l 390 489 l 407 532 l 425 567 l 438 593 l 450 614 l 461 638 l 469 658 l 479 675 l 490 701 l 497 724 l 507 744 l 517 764 l 529 775 l 543 768 l 554 749 l 567 722 l 574 706 l 583 683 l 594 658 l 610 628 l 621 604 l 636 565 l 650 538 l 663 504 l 671 483 l 678 460 l 689 433 l 689 418 l 683 414 l 665 408 l 646 408 z m 525 1086 l 557 1086 l 583 1090 l 613 1099 l 643 1114 l 657 1125 l 679 1144 l 703 1182 l 713 1203 l 717 1214 l 725 1242 l 731 1275 l 735 1294 l 731 1314 l 726 1329 l 718 1339 l 704 1346 l 690 1347 l 671 1346 l 651 1342 l 638 1329 l 632 1300 l 624 1274 l 614 1243 l 596 1210 l 578 1196 l 563 1186 l 544 1182 l 525 1182 l 506 1186 l 496 1189 l 475 1210 l 458 1232 l 450 1247 l 443 1268 l 440 1285 l 438 1297 l 436 1313 l 432 1329 l 425 1342 l 410 1349 l 382 1349 l 351 1340 l 336 1319 l 335 1300 l 339 1272 l 347 1229 l 360 1193 l 379 1164 l 408 1133 l 428 1117 l 443 1108 l 458 1101 l 485 1092 z "},"Â":{"ha":1042,"x_min":0,"x_max":0,"o":"m 919 -14 l 942 -6 l 964 7 l 971 21 l 971 39 l 965 60 l 957 78 l 942 110 l 925 150 l 911 176 l 899 207 l 883 239 l 871 269 l 857 303 l 839 340 l 819 382 l 803 426 l 788 460 l 781 483 l 772 499 l 758 521 l 739 567 l 725 596 l 715 618 l 700 658 l 678 701 l 668 731 l 658 750 l 636 811 l 622 849 l 608 881 l 597 904 l 588 922 l 574 943 l 558 967 l 549 976 l 535 979 l 521 976 l 511 969 l 492 942 l 483 926 l 469 901 l 461 886 l 456 872 l 447 853 l 432 815 l 414 782 l 403 758 l 392 738 l 374 701 l 361 675 l 340 633 l 329 608 l 321 585 l 306 553 l 293 524 l 283 506 l 279 496 l 261 464 l 249 439 l 236 407 l 226 383 l 214 354 l 201 329 l 193 310 l 176 281 l 167 253 l 151 222 l 129 172 l 115 143 l 97 108 l 83 76 l 71 46 l 69 32 l 82 14 l 107 4 l 132 -4 l 147 -6 l 158 1 l 172 25 l 188 53 l 200 78 l 215 113 l 236 161 l 247 183 l 263 215 l 269 229 l 279 250 l 293 275 l 304 292 l 315 301 l 343 310 l 382 317 l 404 319 l 457 319 l 471 321 l 490 321 l 507 318 l 529 319 l 558 319 l 576 318 l 618 318 l 674 311 l 697 310 l 722 304 l 742 294 l 757 282 l 768 260 l 785 228 l 806 178 l 828 133 l 835 107 l 853 72 l 869 42 l 876 25 l 885 4 l 900 -12 z m 626 407 l 592 408 l 569 408 l 547 410 l 522 408 l 490 411 l 450 408 l 417 408 l 394 411 l 382 415 l 369 424 l 372 453 l 390 489 l 407 532 l 425 567 l 438 593 l 450 614 l 461 638 l 469 658 l 479 675 l 490 701 l 497 724 l 507 744 l 517 764 l 529 775 l 543 768 l 554 749 l 567 722 l 574 706 l 583 683 l 594 658 l 610 628 l 621 604 l 636 565 l 650 538 l 663 504 l 671 483 l 678 460 l 689 433 l 689 418 l 683 414 l 665 408 l 646 408 z m 379 1083 l 393 1085 l 422 1111 l 458 1156 l 489 1188 l 513 1214 l 531 1225 l 543 1225 l 563 1210 l 576 1193 l 596 1171 l 628 1139 l 653 1108 l 671 1094 l 683 1089 l 697 1090 l 721 1104 l 740 1118 l 750 1132 l 742 1158 l 717 1186 l 686 1215 l 669 1236 l 654 1253 l 639 1274 l 615 1300 l 576 1338 l 535 1350 l 506 1349 l 483 1338 l 461 1319 l 435 1285 l 421 1265 l 390 1233 l 375 1214 l 368 1201 l 350 1182 l 326 1153 l 322 1125 l 332 1114 l 347 1103 l 365 1089 z "},"Ä":{"ha":1042,"x_min":0,"x_max":0,"o":"m 919 -14 l 942 -6 l 964 7 l 971 21 l 971 39 l 965 60 l 957 78 l 942 110 l 925 150 l 911 176 l 899 207 l 883 239 l 871 269 l 857 303 l 839 340 l 819 382 l 803 426 l 788 460 l 781 483 l 772 499 l 758 521 l 739 567 l 725 596 l 715 618 l 700 658 l 678 701 l 668 731 l 658 750 l 636 811 l 622 849 l 608 881 l 597 904 l 588 922 l 574 943 l 558 967 l 549 976 l 535 979 l 521 976 l 511 969 l 492 942 l 483 926 l 469 901 l 461 886 l 456 872 l 447 853 l 432 815 l 414 782 l 403 758 l 392 738 l 374 701 l 361 675 l 340 633 l 329 608 l 321 585 l 306 553 l 293 524 l 283 506 l 279 496 l 261 464 l 249 439 l 236 407 l 226 383 l 214 354 l 201 329 l 193 310 l 176 281 l 167 253 l 151 222 l 129 172 l 115 143 l 97 108 l 83 76 l 71 46 l 69 32 l 82 14 l 107 4 l 132 -4 l 147 -6 l 158 1 l 172 25 l 188 53 l 200 78 l 215 113 l 236 161 l 247 183 l 263 215 l 269 229 l 279 250 l 293 275 l 304 292 l 315 301 l 343 310 l 382 317 l 404 319 l 457 319 l 471 321 l 490 321 l 507 318 l 529 319 l 558 319 l 576 318 l 618 318 l 674 311 l 697 310 l 722 304 l 742 294 l 757 282 l 768 260 l 785 228 l 806 178 l 828 133 l 835 107 l 853 72 l 869 42 l 876 25 l 885 4 l 900 -12 z m 626 407 l 592 408 l 569 408 l 547 410 l 522 408 l 490 411 l 450 408 l 417 408 l 394 411 l 382 415 l 369 424 l 372 453 l 390 489 l 407 532 l 425 567 l 438 593 l 450 614 l 461 638 l 469 658 l 479 675 l 490 701 l 497 724 l 507 744 l 517 764 l 529 775 l 543 768 l 554 749 l 567 722 l 574 706 l 583 683 l 594 658 l 610 628 l 621 604 l 636 565 l 650 538 l 663 504 l 671 483 l 678 460 l 689 433 l 689 418 l 683 414 l 665 408 l 646 408 z m 425 1142 l 449 1151 l 458 1161 l 468 1176 l 475 1197 l 475 1213 l 468 1239 l 451 1258 l 435 1269 l 413 1274 l 396 1271 l 383 1268 l 363 1253 l 350 1235 l 346 1221 l 346 1190 l 356 1167 l 365 1156 l 389 1146 z m 672 1142 l 696 1151 l 706 1161 l 715 1176 l 722 1197 l 722 1213 l 715 1239 l 699 1258 l 682 1269 l 660 1274 l 643 1271 l 631 1268 l 610 1253 l 597 1235 l 593 1221 l 593 1190 l 603 1167 l 613 1156 l 636 1146 z "},"À":{"ha":1042,"x_min":0,"x_max":0,"o":"m 919 -14 l 942 -6 l 964 7 l 971 21 l 971 39 l 965 60 l 957 78 l 942 110 l 925 150 l 911 176 l 899 207 l 883 239 l 871 269 l 857 303 l 839 340 l 819 382 l 803 426 l 788 460 l 781 483 l 772 499 l 758 521 l 739 567 l 725 596 l 715 618 l 700 658 l 678 701 l 668 731 l 658 750 l 636 811 l 622 849 l 608 881 l 597 904 l 588 922 l 574 943 l 558 967 l 549 976 l 535 979 l 521 976 l 511 969 l 492 942 l 483 926 l 469 901 l 461 886 l 456 872 l 447 853 l 432 815 l 414 782 l 403 758 l 392 738 l 374 701 l 361 675 l 340 633 l 329 608 l 321 585 l 306 553 l 293 524 l 283 506 l 279 496 l 261 464 l 249 439 l 236 407 l 226 383 l 214 354 l 201 329 l 193 310 l 176 281 l 167 253 l 151 222 l 129 172 l 115 143 l 97 108 l 83 76 l 71 46 l 69 32 l 82 14 l 107 4 l 132 -4 l 147 -6 l 158 1 l 172 25 l 188 53 l 200 78 l 215 113 l 236 161 l 247 183 l 263 215 l 269 229 l 279 250 l 293 275 l 304 292 l 315 301 l 343 310 l 382 317 l 404 319 l 457 319 l 471 321 l 490 321 l 507 318 l 529 319 l 558 319 l 576 318 l 618 318 l 674 311 l 697 310 l 722 304 l 742 294 l 757 282 l 768 260 l 785 228 l 806 178 l 828 133 l 835 107 l 853 72 l 869 42 l 876 25 l 885 4 l 900 -12 z m 626 407 l 592 408 l 569 408 l 547 410 l 522 408 l 490 411 l 450 408 l 417 408 l 394 411 l 382 415 l 369 424 l 372 453 l 390 489 l 407 532 l 425 567 l 438 593 l 450 614 l 461 638 l 469 658 l 479 675 l 490 701 l 497 724 l 507 744 l 517 764 l 529 775 l 543 768 l 554 749 l 567 722 l 574 706 l 583 683 l 594 658 l 610 628 l 621 604 l 636 565 l 650 538 l 663 504 l 671 483 l 678 460 l 689 433 l 689 418 l 683 414 l 665 408 l 646 408 z m 529 1092 l 544 1094 l 571 1103 l 594 1122 l 604 1140 l 606 1156 l 600 1169 l 585 1188 l 542 1229 l 526 1246 l 514 1257 l 497 1272 l 476 1292 l 458 1307 l 436 1326 l 411 1344 l 397 1343 l 386 1335 l 367 1318 l 353 1304 l 346 1286 l 354 1264 l 374 1243 l 419 1193 l 476 1136 l 499 1111 l 519 1094 z "},"Ā":{"ha":1042,"x_min":0,"x_max":0,"o":"m 919 -14 l 942 -6 l 964 7 l 971 21 l 971 39 l 965 60 l 957 78 l 942 110 l 925 150 l 911 176 l 899 207 l 883 239 l 871 269 l 857 303 l 839 340 l 819 382 l 803 426 l 788 460 l 781 483 l 772 499 l 758 521 l 739 567 l 725 596 l 715 618 l 700 658 l 678 701 l 668 731 l 658 750 l 636 811 l 622 849 l 608 881 l 597 904 l 588 922 l 574 943 l 558 967 l 549 976 l 535 979 l 521 976 l 511 969 l 492 942 l 483 926 l 469 901 l 461 886 l 456 872 l 447 853 l 432 815 l 414 782 l 403 758 l 392 738 l 374 701 l 361 675 l 340 633 l 329 608 l 321 585 l 306 553 l 293 524 l 283 506 l 279 496 l 261 464 l 249 439 l 236 407 l 226 383 l 214 354 l 201 329 l 193 310 l 176 281 l 167 253 l 151 222 l 129 172 l 115 143 l 97 108 l 83 76 l 71 46 l 69 32 l 82 14 l 107 4 l 132 -4 l 147 -6 l 158 1 l 172 25 l 188 53 l 200 78 l 215 113 l 236 161 l 247 183 l 263 215 l 269 229 l 279 250 l 293 275 l 304 292 l 315 301 l 343 310 l 382 317 l 404 319 l 457 319 l 471 321 l 490 321 l 507 318 l 529 319 l 558 319 l 576 318 l 618 318 l 674 311 l 697 310 l 722 304 l 742 294 l 757 282 l 768 260 l 785 228 l 806 178 l 828 133 l 835 107 l 853 72 l 869 42 l 876 25 l 885 4 l 900 -12 z m 626 407 l 592 408 l 569 408 l 547 410 l 522 408 l 490 411 l 450 408 l 417 408 l 394 411 l 382 415 l 369 424 l 372 453 l 390 489 l 407 532 l 425 567 l 438 593 l 450 614 l 461 638 l 469 658 l 479 675 l 490 701 l 497 724 l 507 744 l 517 764 l 529 775 l 543 768 l 554 749 l 567 722 l 574 706 l 583 683 l 594 658 l 610 628 l 621 604 l 636 565 l 650 538 l 663 504 l 671 483 l 678 460 l 689 433 l 689 418 l 683 414 l 665 408 l 646 408 z m 671 1156 l 701 1157 l 715 1169 l 718 1192 l 717 1217 l 710 1242 l 701 1250 l 690 1254 l 679 1257 l 647 1257 l 613 1256 l 590 1257 l 556 1256 l 521 1257 l 458 1257 l 415 1260 l 389 1258 l 369 1257 l 357 1243 l 350 1224 l 350 1214 l 353 1197 l 357 1179 l 363 1168 l 374 1161 l 383 1160 l 451 1160 l 536 1161 l 622 1158 z "},"Ą":{"ha":1125,"x_min":0,"x_max":0,"o":"m 918 -369 l 947 -365 l 968 -356 l 1008 -340 l 1039 -322 l 1051 -306 l 1056 -278 l 1036 -249 l 986 -239 l 957 -250 l 949 -256 l 932 -262 l 913 -267 l 889 -267 l 868 -264 l 851 -256 l 839 -243 l 831 -219 l 833 -189 l 846 -162 l 865 -122 l 885 -99 l 907 -68 l 935 -29 l 957 -3 l 968 14 l 971 21 l 971 39 l 965 60 l 957 78 l 942 110 l 925 150 l 911 176 l 899 207 l 883 239 l 871 269 l 857 303 l 839 340 l 819 382 l 803 426 l 788 460 l 781 483 l 772 499 l 758 521 l 739 567 l 725 596 l 715 618 l 700 658 l 678 701 l 668 731 l 658 750 l 647 781 l 633 811 l 617 849 l 601 881 l 590 904 l 581 922 l 569 943 l 558 967 l 549 976 l 535 979 l 521 976 l 511 969 l 492 942 l 483 926 l 469 901 l 461 886 l 456 872 l 447 853 l 432 815 l 414 782 l 403 758 l 392 738 l 374 701 l 361 675 l 340 633 l 329 608 l 321 585 l 306 553 l 293 524 l 283 506 l 279 496 l 261 464 l 249 439 l 236 407 l 226 383 l 214 354 l 201 329 l 193 310 l 176 281 l 167 253 l 151 222 l 129 172 l 115 143 l 97 108 l 83 76 l 71 46 l 69 32 l 82 14 l 107 4 l 132 -4 l 147 -6 l 158 1 l 172 25 l 188 53 l 200 78 l 215 113 l 236 161 l 247 183 l 263 215 l 269 229 l 279 250 l 293 275 l 304 292 l 315 301 l 343 310 l 382 317 l 404 319 l 457 319 l 471 321 l 490 321 l 507 318 l 529 319 l 558 319 l 576 318 l 618 318 l 674 311 l 697 310 l 722 304 l 742 294 l 757 282 l 768 260 l 785 228 l 806 178 l 828 133 l 835 107 l 853 72 l 871 36 l 872 24 l 863 15 l 849 3 l 835 -11 l 813 -36 l 793 -64 l 775 -93 l 753 -131 l 742 -158 l 735 -182 l 731 -200 l 728 -222 l 728 -244 l 735 -271 l 746 -296 l 757 -315 l 775 -331 l 806 -350 l 838 -362 l 857 -365 l 883 -368 z m 626 407 l 592 408 l 569 408 l 547 410 l 522 408 l 490 411 l 450 408 l 417 408 l 394 411 l 382 415 l 369 424 l 372 453 l 390 489 l 407 532 l 425 567 l 438 593 l 450 614 l 461 638 l 469 658 l 479 675 l 490 701 l 497 724 l 507 744 l 517 764 l 529 775 l 543 768 l 554 749 l 567 722 l 574 706 l 583 683 l 594 658 l 610 628 l 621 604 l 636 565 l 650 538 l 663 504 l 671 483 l 678 460 l 689 433 l 689 418 l 683 414 l 665 408 l 646 408 z "},"Å":{"ha":1042,"x_min":0,"x_max":0,"o":"m 919 -14 l 942 -6 l 964 7 l 971 21 l 971 39 l 965 60 l 957 78 l 942 110 l 925 150 l 911 176 l 899 207 l 883 239 l 871 269 l 857 303 l 839 340 l 819 382 l 803 426 l 788 460 l 781 483 l 772 499 l 758 521 l 739 567 l 725 596 l 715 618 l 700 658 l 678 701 l 668 731 l 658 750 l 636 811 l 622 849 l 608 881 l 597 904 l 588 922 l 574 943 l 558 967 l 549 976 l 535 979 l 521 976 l 511 969 l 492 942 l 483 926 l 469 901 l 461 886 l 456 872 l 447 853 l 432 815 l 414 782 l 403 758 l 392 738 l 374 701 l 361 675 l 340 633 l 329 608 l 321 585 l 306 553 l 293 524 l 283 506 l 279 496 l 261 464 l 249 439 l 236 407 l 226 383 l 214 354 l 201 329 l 193 310 l 176 281 l 167 253 l 151 222 l 129 172 l 115 143 l 97 108 l 83 76 l 71 46 l 69 32 l 82 14 l 107 4 l 132 -4 l 147 -6 l 158 1 l 172 25 l 188 53 l 200 78 l 215 113 l 236 161 l 247 183 l 263 215 l 269 229 l 279 250 l 293 275 l 304 292 l 315 301 l 343 310 l 382 317 l 404 319 l 457 319 l 471 321 l 490 321 l 507 318 l 529 319 l 558 319 l 576 318 l 618 318 l 674 311 l 697 310 l 722 304 l 742 294 l 757 282 l 768 260 l 785 228 l 806 178 l 828 133 l 835 107 l 853 72 l 869 42 l 876 25 l 885 4 l 900 -12 z m 626 407 l 592 408 l 569 408 l 547 410 l 522 408 l 490 411 l 450 408 l 417 408 l 394 411 l 382 415 l 369 424 l 372 453 l 390 489 l 407 532 l 425 567 l 438 593 l 450 614 l 461 638 l 469 658 l 479 675 l 490 701 l 497 724 l 507 744 l 517 764 l 529 775 l 543 768 l 554 749 l 567 722 l 574 706 l 583 683 l 594 658 l 610 628 l 621 604 l 636 565 l 650 538 l 663 504 l 671 483 l 678 460 l 689 433 l 689 418 l 683 414 l 665 408 l 646 408 z m 547 1051 l 572 1056 l 590 1058 l 607 1064 l 624 1071 l 638 1078 l 657 1093 l 667 1100 l 679 1114 l 688 1128 l 697 1147 l 704 1164 l 707 1171 l 710 1183 l 710 1244 l 706 1271 l 700 1286 l 697 1299 l 689 1313 l 675 1332 l 658 1349 l 643 1361 l 622 1374 l 596 1383 l 565 1390 l 535 1393 l 511 1390 l 499 1392 l 486 1389 l 467 1382 l 454 1375 l 443 1371 l 426 1360 l 415 1350 l 403 1338 l 385 1314 l 375 1293 l 371 1276 l 364 1257 l 361 1236 l 358 1221 l 360 1211 l 360 1197 l 369 1161 l 388 1128 l 417 1099 l 440 1083 l 465 1069 l 476 1065 l 483 1061 l 510 1053 z m 535 1143 l 521 1144 l 500 1154 l 475 1176 l 464 1204 l 464 1221 l 467 1239 l 472 1258 l 488 1285 l 508 1297 l 526 1303 l 543 1304 l 554 1303 l 563 1299 l 567 1296 l 581 1289 l 603 1263 l 610 1238 l 611 1225 l 610 1201 l 600 1181 l 589 1164 l 563 1146 z "},"Ã":{"ha":1042,"x_min":0,"x_max":0,"o":"m 919 -14 l 942 -6 l 964 7 l 971 21 l 971 39 l 965 60 l 957 78 l 942 110 l 925 150 l 911 176 l 899 207 l 883 239 l 871 269 l 857 303 l 839 340 l 819 382 l 803 426 l 788 460 l 781 483 l 772 499 l 758 521 l 739 567 l 725 596 l 715 618 l 700 658 l 678 701 l 668 731 l 658 750 l 636 811 l 622 849 l 608 881 l 597 904 l 588 922 l 574 943 l 558 967 l 549 976 l 535 979 l 521 976 l 511 969 l 492 942 l 483 926 l 469 901 l 461 886 l 456 872 l 447 853 l 432 815 l 414 782 l 403 758 l 392 738 l 374 701 l 361 675 l 340 633 l 329 608 l 321 585 l 306 553 l 293 524 l 283 506 l 279 496 l 261 464 l 249 439 l 236 407 l 226 383 l 214 354 l 201 329 l 193 310 l 176 281 l 167 253 l 151 222 l 129 172 l 115 143 l 97 108 l 83 76 l 71 46 l 69 32 l 82 14 l 107 4 l 132 -4 l 147 -6 l 158 1 l 172 25 l 188 53 l 200 78 l 215 113 l 236 161 l 247 183 l 263 215 l 269 229 l 279 250 l 293 275 l 304 292 l 315 301 l 343 310 l 382 317 l 404 319 l 457 319 l 471 321 l 490 321 l 507 318 l 529 319 l 558 319 l 576 318 l 618 318 l 674 311 l 697 310 l 722 304 l 742 294 l 757 282 l 768 260 l 785 228 l 806 178 l 828 133 l 835 107 l 853 72 l 869 42 l 876 25 l 885 4 l 900 -12 z m 626 407 l 592 408 l 569 408 l 547 410 l 522 408 l 490 411 l 450 408 l 417 408 l 394 411 l 382 415 l 369 424 l 372 453 l 390 489 l 407 532 l 425 567 l 438 593 l 450 614 l 461 638 l 469 658 l 479 675 l 490 701 l 497 724 l 507 744 l 517 764 l 529 775 l 543 768 l 554 749 l 567 722 l 574 706 l 583 683 l 594 658 l 610 628 l 621 604 l 636 565 l 650 538 l 663 504 l 671 483 l 678 460 l 689 433 l 689 418 l 683 414 l 665 408 l 646 408 z m 638 1110 l 654 1111 l 668 1114 l 681 1118 l 700 1129 l 719 1142 l 739 1163 l 750 1179 l 754 1188 l 757 1196 l 761 1206 l 765 1228 l 761 1254 l 750 1269 l 733 1275 l 700 1276 l 678 1271 l 669 1264 l 657 1242 l 649 1218 l 636 1210 l 617 1215 l 603 1224 l 589 1235 l 574 1257 l 560 1276 l 546 1288 l 518 1306 l 496 1319 l 485 1322 l 467 1326 l 453 1328 l 444 1326 l 426 1325 l 406 1321 l 388 1314 l 367 1300 l 349 1285 l 343 1275 l 335 1264 l 326 1250 l 322 1239 l 315 1224 l 314 1207 l 315 1194 l 318 1183 l 322 1174 l 332 1165 l 350 1157 l 374 1154 l 392 1160 l 408 1169 l 417 1190 l 425 1210 l 435 1221 l 453 1225 l 472 1217 l 500 1186 l 508 1178 l 513 1171 l 529 1154 l 553 1136 l 586 1122 l 617 1113 z "},"Æ":{"ha":1432,"x_min":0,"x_max":0,"o":"m 147 -6 l 158 1 l 172 25 l 188 53 l 200 78 l 215 113 l 236 161 l 247 183 l 263 215 l 269 229 l 279 250 l 293 275 l 304 292 l 315 301 l 343 310 l 382 317 l 404 319 l 457 319 l 471 321 l 490 321 l 507 318 l 529 319 l 558 319 l 576 318 l 590 318 l 608 317 l 611 289 l 610 263 l 610 246 l 608 210 l 610 171 l 608 142 l 607 117 l 607 94 l 610 69 l 611 43 l 615 24 l 626 10 l 669 1 l 718 3 l 740 1 l 861 1 l 907 0 l 951 1 l 990 1 l 1010 3 l 1047 1 l 1188 -1 l 1222 -3 l 1256 0 l 1283 -4 l 1296 -4 l 1313 -1 l 1328 0 l 1336 1 l 1343 7 l 1351 18 l 1354 39 l 1356 65 l 1344 85 l 1333 92 l 1200 92 l 1175 93 l 1135 93 l 1104 97 l 1003 97 l 961 94 l 907 93 l 894 94 l 851 94 l 833 92 l 810 93 l 781 94 l 763 93 l 747 99 l 726 106 l 717 118 l 715 135 l 711 151 l 711 183 l 714 226 l 715 276 l 715 314 l 714 332 l 714 360 l 715 400 l 719 432 l 721 442 l 726 453 l 743 463 l 756 464 l 764 463 l 786 464 l 819 461 l 840 464 l 874 465 l 913 465 l 943 463 l 978 463 l 1018 460 l 1071 461 l 1113 460 l 1138 460 l 1157 458 l 1167 460 l 1178 465 l 1183 475 l 1185 489 l 1186 507 l 1189 529 l 1181 549 l 1168 554 l 1153 557 l 1007 557 l 971 556 l 938 558 l 915 558 l 838 561 l 796 561 l 769 565 l 756 567 l 738 567 l 718 575 l 713 596 l 715 615 l 715 675 l 718 707 l 718 726 l 719 753 l 719 790 l 721 844 l 728 872 l 743 883 l 761 886 l 776 886 l 793 889 l 824 889 l 879 890 l 907 892 l 944 892 l 982 890 l 1101 890 l 1140 889 l 1164 886 l 1204 886 l 1289 883 l 1325 886 l 1342 893 l 1349 904 l 1353 922 l 1351 950 l 1343 969 l 1326 979 l 1293 982 l 1250 983 l 1197 983 l 1165 982 l 1088 982 l 1001 981 l 904 982 l 847 981 l 808 986 l 763 986 l 696 982 l 669 983 l 618 981 l 558 981 l 521 976 l 511 969 l 492 942 l 483 926 l 469 901 l 461 886 l 456 872 l 447 853 l 432 815 l 414 782 l 403 758 l 392 738 l 374 701 l 361 675 l 340 633 l 329 608 l 321 585 l 306 553 l 293 524 l 283 506 l 279 496 l 263 464 l 250 439 l 236 407 l 226 383 l 214 354 l 201 329 l 193 310 l 176 281 l 167 253 l 151 222 l 129 172 l 115 143 l 97 108 l 83 76 l 71 46 l 69 32 l 82 14 l 107 4 l 132 -4 z m 417 408 l 394 411 l 382 415 l 369 424 l 372 453 l 390 489 l 407 532 l 425 567 l 438 593 l 450 614 l 461 638 l 469 658 l 479 675 l 490 701 l 497 724 l 507 744 l 517 768 l 533 804 l 546 831 l 557 856 l 576 888 l 599 889 l 615 888 l 619 863 l 618 810 l 618 778 l 617 739 l 614 715 l 613 681 l 610 643 l 610 615 l 608 589 l 610 540 l 610 508 l 611 446 l 611 408 l 569 408 l 547 410 l 522 408 l 490 411 l 450 408 z "},"B":{"ha":1047,"x_min":0,"x_max":0,"o":"m 503 -1 l 539 1 l 563 -1 l 576 0 l 607 1 l 653 1 l 683 3 l 706 6 l 742 7 l 767 10 l 789 17 l 806 22 l 817 26 l 846 42 l 868 58 l 879 72 l 897 90 l 911 110 l 926 132 l 933 147 l 939 156 l 943 171 l 947 192 l 953 215 l 956 242 l 957 282 l 956 318 l 949 360 l 944 382 l 940 394 l 935 413 l 921 446 l 904 474 l 885 494 l 869 510 l 865 517 l 871 528 l 881 543 l 903 568 l 918 594 l 929 613 l 940 646 l 946 669 l 947 682 l 950 697 l 950 728 l 946 749 l 940 785 l 925 835 l 903 879 l 886 896 l 875 910 l 857 924 l 842 931 l 831 940 l 815 949 l 782 963 l 739 972 l 704 974 l 672 974 l 643 976 l 585 979 l 560 979 l 528 978 l 478 982 l 453 979 l 397 979 l 354 982 l 329 982 l 301 981 l 276 982 l 258 979 l 222 979 l 193 978 l 178 974 l 172 965 l 169 954 l 167 922 l 163 874 l 164 832 l 163 789 l 164 744 l 164 711 l 167 676 l 167 647 l 164 629 l 163 589 l 164 546 l 161 517 l 160 488 l 158 456 l 158 421 l 160 376 l 160 315 l 158 271 l 158 100 l 153 57 l 158 22 l 174 11 l 196 8 l 219 10 l 254 11 l 294 11 l 325 8 l 388 6 l 425 3 l 468 3 z m 643 90 l 617 92 l 588 92 l 560 93 l 536 93 l 513 94 l 479 93 l 438 93 l 397 96 l 374 93 l 339 92 l 296 94 l 275 106 l 263 113 l 256 142 l 256 247 l 254 272 l 250 313 l 253 347 l 256 389 l 257 418 l 257 439 l 261 456 l 271 468 l 285 475 l 304 479 l 329 481 l 347 479 l 365 481 l 389 478 l 435 478 l 531 476 l 660 476 l 689 474 l 725 471 l 757 465 l 789 447 l 813 428 l 829 410 l 840 390 l 854 347 l 856 335 l 861 311 l 861 260 l 857 239 l 851 208 l 844 179 l 826 144 l 804 125 l 794 118 l 774 107 l 756 101 l 733 96 l 699 92 l 675 90 z m 608 564 l 521 565 l 493 568 l 457 568 l 436 569 l 410 568 l 385 568 l 351 567 l 336 567 l 322 572 l 301 576 l 285 582 l 271 590 l 264 604 l 260 621 l 260 785 l 264 799 l 265 817 l 265 840 l 274 872 l 300 888 l 358 888 l 400 890 l 439 890 l 515 888 l 542 886 l 567 882 l 617 881 l 644 882 l 693 883 l 722 879 l 746 876 l 764 874 l 788 860 l 808 844 l 821 836 l 832 817 l 840 799 l 844 776 l 847 760 l 851 731 l 849 688 l 835 649 l 818 621 l 790 593 l 754 574 l 728 567 l 706 567 l 686 564 z "},"C":{"ha":1079,"x_min":0,"x_max":0,"o":"m 556 -26 l 615 -26 l 640 -22 l 657 -18 l 669 -17 l 711 -11 l 758 1 l 781 10 l 808 21 l 843 39 l 875 61 l 899 74 l 914 86 l 931 97 l 986 153 l 993 161 l 997 175 l 999 186 l 990 203 l 968 219 l 946 226 l 922 218 l 878 183 l 867 171 l 810 131 l 778 108 l 756 97 l 726 86 l 704 83 l 685 76 l 657 69 l 631 64 l 606 65 l 567 64 l 542 67 l 515 71 l 474 82 l 444 92 l 403 113 l 390 121 l 375 129 l 356 146 l 326 165 l 306 182 l 288 200 l 263 232 l 239 268 l 228 289 l 222 306 l 207 332 l 200 354 l 193 372 l 190 390 l 185 417 l 182 458 l 182 504 l 185 533 l 183 553 l 190 578 l 197 610 l 204 636 l 218 671 l 232 701 l 249 726 l 282 768 l 297 786 l 338 824 l 379 853 l 411 871 l 443 883 l 475 893 l 500 900 l 514 906 l 539 910 l 618 914 l 640 910 l 664 907 l 690 901 l 721 892 l 742 886 l 761 878 l 794 863 l 825 846 l 853 824 l 872 807 l 896 783 l 915 758 l 935 747 l 956 746 l 974 750 l 988 763 l 999 778 l 1003 790 l 999 803 l 993 818 l 983 831 l 967 846 l 950 863 l 936 875 l 919 893 l 893 907 l 857 931 l 806 957 l 781 967 l 753 978 l 726 981 l 701 989 l 682 992 l 663 996 l 635 999 l 588 1000 l 563 1000 l 514 993 l 486 990 l 451 982 l 408 971 l 382 960 l 358 947 l 314 922 l 296 910 l 272 892 l 242 865 l 221 844 l 201 824 l 163 768 l 142 735 l 129 711 l 124 697 l 119 682 l 113 658 l 101 625 l 93 592 l 89 554 l 85 518 l 85 483 l 83 461 l 86 439 l 86 411 l 94 375 l 108 333 l 114 313 l 128 279 l 149 235 l 165 206 l 183 182 l 214 146 l 242 118 l 258 107 l 274 92 l 294 74 l 331 54 l 371 31 l 390 19 l 418 6 l 432 1 l 474 -12 l 506 -21 l 533 -24 z "},"Ć":{"ha":1079,"x_min":0,"x_max":0,"o":"m 556 -26 l 615 -26 l 640 -22 l 657 -18 l 669 -17 l 711 -11 l 758 1 l 781 10 l 808 21 l 843 39 l 875 61 l 899 74 l 914 86 l 931 97 l 986 153 l 993 161 l 997 175 l 999 186 l 990 203 l 968 219 l 946 226 l 922 218 l 878 183 l 867 171 l 810 131 l 778 108 l 756 97 l 726 86 l 704 83 l 685 76 l 657 69 l 631 64 l 606 65 l 567 64 l 542 67 l 515 71 l 474 82 l 444 92 l 403 113 l 390 121 l 375 129 l 356 146 l 326 165 l 306 182 l 288 200 l 263 232 l 239 268 l 228 289 l 222 306 l 207 332 l 200 354 l 193 372 l 190 390 l 185 417 l 182 458 l 182 504 l 185 533 l 183 553 l 190 578 l 197 610 l 204 636 l 218 671 l 232 701 l 249 726 l 282 768 l 297 786 l 338 824 l 379 853 l 411 871 l 443 883 l 475 893 l 500 900 l 514 906 l 539 910 l 618 914 l 640 910 l 664 907 l 690 901 l 721 892 l 742 886 l 761 878 l 794 863 l 825 846 l 853 824 l 872 807 l 896 783 l 915 758 l 935 747 l 956 746 l 974 750 l 988 763 l 999 778 l 1003 790 l 999 803 l 993 818 l 983 831 l 967 846 l 950 863 l 936 875 l 919 893 l 893 907 l 857 931 l 806 957 l 781 967 l 753 978 l 726 981 l 701 989 l 682 992 l 663 996 l 635 999 l 588 1000 l 563 1000 l 514 993 l 486 990 l 451 982 l 408 971 l 382 960 l 358 947 l 314 922 l 296 910 l 272 892 l 242 865 l 221 844 l 201 824 l 163 768 l 142 735 l 129 711 l 124 697 l 119 682 l 113 658 l 101 625 l 93 592 l 89 554 l 85 518 l 85 483 l 83 461 l 86 439 l 86 411 l 94 375 l 108 333 l 114 313 l 128 279 l 149 235 l 165 206 l 183 182 l 214 146 l 242 118 l 258 107 l 274 92 l 294 74 l 331 54 l 371 31 l 390 19 l 418 6 l 432 1 l 474 -12 l 506 -21 l 533 -24 z m 592 1092 l 601 1096 l 622 1111 l 644 1136 l 668 1161 l 700 1193 l 715 1210 l 747 1243 l 767 1264 l 774 1286 l 767 1304 l 735 1336 l 724 1343 l 710 1344 l 685 1326 l 664 1307 l 644 1292 l 622 1274 l 607 1257 l 593 1246 l 579 1229 l 536 1188 l 521 1169 l 514 1156 l 517 1140 l 525 1122 l 550 1104 l 575 1094 z "},"Č":{"ha":1079,"x_min":0,"x_max":0,"o":"m 556 -26 l 615 -26 l 640 -22 l 657 -18 l 669 -17 l 711 -11 l 758 1 l 781 10 l 808 21 l 843 39 l 875 61 l 899 74 l 914 86 l 931 97 l 986 153 l 993 161 l 997 175 l 999 186 l 990 203 l 968 219 l 946 226 l 922 218 l 878 183 l 867 171 l 810 131 l 778 108 l 756 97 l 726 86 l 704 83 l 685 76 l 657 69 l 631 64 l 606 65 l 567 64 l 542 67 l 515 71 l 474 82 l 444 92 l 403 113 l 390 121 l 375 129 l 356 146 l 326 165 l 306 182 l 288 200 l 263 232 l 239 268 l 228 289 l 222 306 l 207 332 l 200 354 l 193 372 l 190 390 l 185 417 l 182 458 l 182 504 l 185 533 l 183 553 l 190 578 l 197 610 l 204 636 l 218 671 l 232 701 l 249 726 l 282 768 l 297 786 l 338 824 l 379 853 l 411 871 l 443 883 l 475 893 l 500 900 l 514 906 l 539 910 l 618 914 l 640 910 l 664 907 l 690 901 l 721 892 l 742 886 l 761 878 l 794 863 l 825 846 l 853 824 l 872 807 l 896 783 l 915 758 l 935 747 l 956 746 l 974 750 l 988 763 l 999 778 l 1003 790 l 999 803 l 993 818 l 983 831 l 967 846 l 950 863 l 936 875 l 919 893 l 893 907 l 857 931 l 806 957 l 781 967 l 753 978 l 726 981 l 701 989 l 682 992 l 663 996 l 635 999 l 588 1000 l 563 1000 l 514 993 l 486 990 l 451 982 l 408 971 l 382 960 l 358 947 l 314 922 l 296 910 l 272 892 l 242 865 l 221 844 l 201 824 l 163 768 l 142 735 l 129 711 l 124 697 l 119 682 l 113 658 l 101 625 l 93 592 l 89 554 l 85 518 l 85 483 l 83 461 l 86 439 l 86 411 l 94 375 l 108 333 l 114 313 l 128 279 l 149 235 l 165 206 l 183 182 l 214 146 l 242 118 l 258 107 l 274 92 l 294 74 l 331 54 l 371 31 l 390 19 l 418 6 l 432 1 l 474 -12 l 506 -21 l 533 -24 z m 586 1083 l 628 1096 l 667 1133 l 690 1161 l 706 1181 l 721 1197 l 738 1218 l 768 1247 l 793 1275 l 801 1301 l 792 1315 l 772 1329 l 749 1343 l 735 1344 l 722 1339 l 704 1325 l 679 1294 l 647 1263 l 628 1240 l 614 1224 l 594 1208 l 582 1208 l 564 1219 l 540 1246 l 510 1278 l 474 1322 l 444 1349 l 431 1350 l 417 1344 l 399 1331 l 383 1321 l 374 1308 l 378 1281 l 401 1251 l 419 1232 l 426 1219 l 442 1200 l 472 1168 l 486 1149 l 513 1114 l 535 1096 l 557 1085 z "},"Ç":{"ha":1079,"x_min":0,"x_max":0,"o":"m 575 -365 l 613 -365 l 640 -362 l 690 -349 l 717 -335 l 738 -312 l 756 -287 l 763 -264 l 768 -235 l 768 -190 l 757 -146 l 742 -128 l 731 -117 l 708 -101 l 679 -83 l 656 -79 l 636 -74 l 621 -64 l 618 -53 l 619 -40 l 622 -25 l 640 -22 l 657 -18 l 669 -17 l 711 -11 l 758 1 l 781 10 l 808 21 l 843 39 l 875 61 l 899 74 l 914 86 l 931 97 l 986 153 l 993 161 l 997 175 l 999 186 l 990 203 l 968 219 l 946 226 l 922 218 l 878 183 l 867 171 l 810 131 l 778 108 l 756 97 l 726 86 l 704 83 l 685 76 l 657 69 l 631 64 l 606 65 l 567 64 l 542 67 l 515 71 l 474 82 l 444 92 l 403 113 l 390 121 l 375 129 l 356 146 l 326 165 l 306 182 l 288 200 l 263 232 l 239 268 l 228 289 l 222 306 l 207 332 l 200 354 l 193 372 l 190 390 l 185 417 l 182 458 l 182 504 l 185 533 l 183 553 l 190 578 l 197 610 l 204 636 l 218 671 l 232 701 l 249 726 l 282 768 l 297 786 l 338 824 l 379 853 l 411 871 l 443 883 l 475 893 l 500 900 l 514 906 l 539 910 l 618 914 l 640 910 l 664 907 l 690 901 l 721 892 l 742 886 l 761 878 l 794 863 l 825 846 l 853 824 l 872 807 l 896 783 l 915 758 l 935 747 l 956 746 l 974 750 l 988 763 l 999 778 l 1003 790 l 999 803 l 993 818 l 983 831 l 967 846 l 950 863 l 936 875 l 919 893 l 893 907 l 857 931 l 806 957 l 781 967 l 753 978 l 726 981 l 701 989 l 682 992 l 663 996 l 635 999 l 588 1000 l 563 1000 l 514 993 l 486 990 l 451 982 l 408 971 l 382 960 l 358 947 l 314 922 l 296 910 l 272 892 l 242 865 l 221 844 l 201 824 l 163 768 l 142 735 l 129 711 l 124 697 l 119 682 l 113 658 l 101 625 l 93 592 l 89 554 l 85 518 l 85 483 l 83 461 l 86 439 l 86 411 l 94 375 l 108 333 l 114 313 l 128 279 l 149 235 l 165 206 l 183 182 l 214 146 l 242 118 l 258 107 l 274 92 l 294 74 l 331 54 l 371 31 l 390 19 l 418 6 l 432 1 l 474 -12 l 506 -21 l 522 -24 l 517 -42 l 506 -67 l 500 -89 l 494 -118 l 503 -143 l 510 -150 l 533 -167 l 569 -168 l 600 -167 l 619 -169 l 636 -176 l 656 -193 l 668 -212 l 663 -236 l 650 -253 l 629 -262 l 614 -268 l 597 -269 l 571 -268 l 543 -258 l 522 -247 l 501 -233 l 478 -232 l 461 -240 l 442 -267 l 444 -303 l 471 -325 l 504 -343 l 544 -354 z "},"D":{"ha":1126,"x_min":0,"x_max":0,"o":"m 618 -3 l 681 4 l 710 6 l 735 13 l 763 18 l 783 28 l 803 35 l 819 42 l 850 58 l 883 85 l 906 104 l 944 146 l 957 165 l 965 178 l 978 196 l 994 221 l 1013 265 l 1024 306 l 1029 340 l 1038 378 l 1039 400 l 1042 426 l 1043 479 l 1042 511 l 1039 560 l 1035 603 l 1026 636 l 1019 651 l 1015 669 l 1010 692 l 1003 714 l 993 736 l 976 767 l 960 793 l 953 808 l 940 826 l 926 844 l 913 856 l 904 868 l 892 879 l 875 892 l 853 907 l 831 921 l 807 932 l 783 942 l 768 949 l 757 951 l 747 956 l 733 957 l 711 963 l 674 968 l 649 971 l 626 972 l 590 975 l 557 972 l 542 975 l 522 975 l 472 976 l 451 979 l 347 975 l 311 976 l 267 974 l 246 974 l 228 975 l 194 976 l 175 974 l 169 968 l 167 954 l 163 918 l 163 869 l 161 836 l 163 814 l 160 794 l 158 769 l 158 724 l 157 674 l 161 636 l 161 610 l 158 578 l 158 553 l 160 514 l 158 483 l 157 446 l 157 417 l 156 394 l 157 347 l 154 308 l 154 275 l 156 247 l 156 226 l 157 179 l 157 81 l 153 58 l 154 36 l 158 15 l 182 4 l 199 1 l 222 4 l 315 4 l 346 0 l 468 0 l 526 -1 l 581 -1 z m 503 88 l 474 90 l 425 89 l 351 92 l 339 92 l 325 90 l 296 94 l 278 97 l 265 108 l 256 129 l 254 174 l 257 208 l 254 235 l 254 278 l 257 317 l 256 353 l 253 390 l 253 436 l 251 479 l 254 510 l 254 599 l 258 657 l 258 771 l 257 801 l 254 817 l 258 835 l 261 857 l 269 874 l 282 883 l 307 886 l 363 889 l 390 886 l 411 888 l 443 885 l 621 885 l 660 879 l 683 878 l 736 863 l 750 857 l 772 847 l 808 826 l 836 804 l 846 790 l 864 771 l 886 735 l 906 696 l 917 658 l 925 631 l 933 601 l 939 565 l 942 536 l 944 501 l 944 461 l 942 428 l 936 399 l 935 368 l 929 338 l 924 310 l 911 275 l 899 251 l 856 183 l 825 154 l 786 129 l 754 113 l 740 108 l 715 103 l 674 96 l 624 90 l 551 90 l 526 88 z "},"Ð":{"ha":1160,"x_min":0,"x_max":0,"o":"m 651 -3 l 714 4 l 743 6 l 768 13 l 796 18 l 817 28 l 836 35 l 853 42 l 883 58 l 917 85 l 939 104 l 978 146 l 990 165 l 999 178 l 1011 196 l 1028 221 l 1046 265 l 1057 306 l 1063 340 l 1071 378 l 1072 400 l 1075 426 l 1076 479 l 1075 511 l 1072 560 l 1068 603 l 1060 636 l 1053 651 l 1049 669 l 1043 692 l 1036 714 l 1026 736 l 1010 767 l 993 793 l 986 808 l 974 826 l 960 844 l 946 856 l 938 868 l 925 879 l 908 892 l 886 907 l 864 921 l 840 932 l 817 942 l 801 949 l 790 951 l 781 956 l 767 957 l 744 963 l 707 968 l 682 971 l 660 972 l 624 975 l 590 972 l 575 975 l 556 975 l 506 976 l 485 979 l 381 975 l 344 976 l 300 974 l 279 974 l 261 975 l 228 976 l 208 974 l 203 968 l 200 954 l 196 918 l 196 869 l 194 836 l 196 814 l 193 794 l 192 769 l 192 724 l 190 674 l 194 636 l 194 610 l 192 571 l 190 536 l 129 540 l 97 539 l 75 528 l 72 514 l 69 497 l 69 474 l 76 451 l 85 443 l 100 438 l 156 438 l 189 436 l 190 421 l 189 394 l 190 347 l 188 308 l 188 275 l 189 247 l 189 226 l 190 179 l 190 81 l 186 58 l 188 36 l 192 15 l 215 4 l 232 1 l 256 4 l 349 4 l 379 0 l 501 0 l 560 -1 l 614 -1 z m 536 88 l 507 90 l 458 89 l 385 92 l 372 92 l 358 90 l 329 94 l 311 97 l 299 108 l 289 129 l 288 174 l 290 208 l 288 235 l 288 278 l 290 317 l 289 353 l 286 390 l 286 422 l 289 438 l 301 439 l 314 438 l 332 439 l 517 439 l 557 440 l 574 447 l 579 456 l 581 486 l 571 522 l 557 533 l 544 535 l 511 533 l 486 533 l 433 535 l 349 535 l 306 536 l 289 538 l 288 560 l 288 599 l 292 657 l 292 771 l 290 801 l 288 817 l 292 835 l 294 857 l 303 874 l 315 883 l 340 886 l 396 889 l 424 886 l 444 888 l 476 885 l 654 885 l 693 879 l 717 878 l 769 863 l 783 857 l 806 847 l 842 826 l 869 804 l 879 790 l 897 771 l 919 735 l 939 696 l 950 658 l 958 631 l 967 601 l 972 565 l 975 536 l 978 501 l 978 461 l 975 428 l 969 399 l 968 368 l 963 338 l 957 310 l 944 275 l 932 251 l 889 183 l 858 154 l 819 129 l 788 113 l 774 108 l 749 103 l 707 96 l 657 90 l 585 90 l 560 88 z "},"Ď":{"ha":1126,"x_min":0,"x_max":0,"o":"m 618 -3 l 681 4 l 710 6 l 735 13 l 763 18 l 783 28 l 803 35 l 819 42 l 850 58 l 883 85 l 906 104 l 944 146 l 957 165 l 965 178 l 978 196 l 994 221 l 1013 265 l 1024 306 l 1029 340 l 1038 378 l 1039 400 l 1042 426 l 1043 479 l 1042 511 l 1039 560 l 1035 603 l 1026 636 l 1019 651 l 1015 669 l 1010 692 l 1003 714 l 993 736 l 976 767 l 960 793 l 953 808 l 940 826 l 926 844 l 913 856 l 904 868 l 892 879 l 875 892 l 853 907 l 831 921 l 807 932 l 783 942 l 768 949 l 757 951 l 747 956 l 733 957 l 711 963 l 674 968 l 649 971 l 626 972 l 590 975 l 557 972 l 542 975 l 522 975 l 472 976 l 451 979 l 347 975 l 311 976 l 267 974 l 246 974 l 228 975 l 194 976 l 175 974 l 169 968 l 167 954 l 163 918 l 163 869 l 161 836 l 163 814 l 160 794 l 158 769 l 158 724 l 157 674 l 161 636 l 161 610 l 158 578 l 158 553 l 160 514 l 158 483 l 157 446 l 157 417 l 156 394 l 157 347 l 154 308 l 154 275 l 156 247 l 156 226 l 157 179 l 157 81 l 153 58 l 154 36 l 158 15 l 182 4 l 199 1 l 222 4 l 315 4 l 346 0 l 468 0 l 526 -1 l 581 -1 z m 503 88 l 474 90 l 425 89 l 351 92 l 339 92 l 325 90 l 296 94 l 278 97 l 265 108 l 256 129 l 254 174 l 257 208 l 254 235 l 254 278 l 257 317 l 256 353 l 253 390 l 253 436 l 251 479 l 254 510 l 254 599 l 258 657 l 258 771 l 257 801 l 254 817 l 258 835 l 261 857 l 269 874 l 282 883 l 307 886 l 363 889 l 390 886 l 411 888 l 443 885 l 621 885 l 660 879 l 683 878 l 736 863 l 750 857 l 772 847 l 808 826 l 836 804 l 846 790 l 864 771 l 886 735 l 906 696 l 917 658 l 925 631 l 933 601 l 939 565 l 942 536 l 944 501 l 944 461 l 942 428 l 936 399 l 935 368 l 929 338 l 924 310 l 911 275 l 899 251 l 856 183 l 825 154 l 786 129 l 754 113 l 740 108 l 715 103 l 674 96 l 624 90 l 551 90 l 526 88 z m 572 1083 l 614 1096 l 653 1133 l 676 1161 l 692 1181 l 707 1197 l 724 1218 l 754 1247 l 779 1275 l 788 1301 l 778 1315 l 758 1329 l 735 1343 l 721 1344 l 708 1339 l 690 1325 l 665 1294 l 633 1263 l 614 1240 l 600 1224 l 581 1208 l 568 1208 l 550 1219 l 526 1246 l 496 1278 l 460 1322 l 431 1349 l 417 1350 l 403 1344 l 385 1331 l 369 1321 l 360 1308 l 364 1281 l 388 1251 l 406 1232 l 413 1219 l 428 1200 l 458 1168 l 472 1149 l 499 1114 l 521 1096 l 543 1085 z "},"Đ":{"ha":1160,"x_min":0,"x_max":0,"o":"m 651 -3 l 714 4 l 743 6 l 768 13 l 796 18 l 817 28 l 836 35 l 853 42 l 883 58 l 917 85 l 939 104 l 978 146 l 990 165 l 999 178 l 1011 196 l 1028 221 l 1046 265 l 1057 306 l 1063 340 l 1071 378 l 1072 400 l 1075 426 l 1076 479 l 1075 511 l 1072 560 l 1068 603 l 1060 636 l 1053 651 l 1049 669 l 1043 692 l 1036 714 l 1026 736 l 1010 767 l 993 793 l 986 808 l 974 826 l 960 844 l 946 856 l 938 868 l 925 879 l 908 892 l 886 907 l 864 921 l 840 932 l 817 942 l 801 949 l 790 951 l 781 956 l 767 957 l 744 963 l 707 968 l 682 971 l 660 972 l 624 975 l 590 972 l 575 975 l 556 975 l 506 976 l 485 979 l 381 975 l 344 976 l 300 974 l 279 974 l 261 975 l 228 976 l 208 974 l 203 968 l 200 954 l 196 918 l 196 869 l 194 836 l 196 814 l 193 794 l 192 769 l 192 724 l 190 674 l 194 636 l 194 610 l 192 571 l 190 536 l 129 540 l 97 539 l 75 528 l 72 514 l 69 497 l 69 474 l 76 451 l 85 443 l 100 438 l 156 438 l 189 436 l 190 421 l 189 394 l 190 347 l 188 308 l 188 275 l 189 247 l 189 226 l 190 179 l 190 81 l 186 58 l 188 36 l 192 15 l 215 4 l 232 1 l 256 4 l 349 4 l 379 0 l 501 0 l 560 -1 l 614 -1 z m 536 88 l 507 90 l 458 89 l 385 92 l 372 92 l 358 90 l 329 94 l 311 97 l 299 108 l 289 129 l 288 174 l 290 208 l 288 235 l 288 278 l 290 317 l 289 353 l 286 390 l 286 422 l 289 438 l 301 439 l 314 438 l 332 439 l 517 439 l 557 440 l 574 447 l 579 456 l 581 486 l 571 522 l 557 533 l 544 535 l 511 533 l 486 533 l 433 535 l 349 535 l 306 536 l 289 538 l 288 560 l 288 599 l 292 657 l 292 771 l 290 801 l 288 817 l 292 835 l 294 857 l 303 874 l 315 883 l 340 886 l 396 889 l 424 886 l 444 888 l 476 885 l 654 885 l 693 879 l 717 878 l 769 863 l 783 857 l 806 847 l 842 826 l 869 804 l 879 790 l 897 771 l 919 735 l 939 696 l 950 658 l 958 631 l 967 601 l 972 565 l 975 536 l 978 501 l 978 461 l 975 428 l 969 399 l 968 368 l 963 338 l 957 310 l 944 275 l 932 251 l 889 183 l 858 154 l 819 129 l 788 113 l 774 108 l 749 103 l 707 96 l 657 90 l 585 90 l 560 88 z "},"E":{"ha":979,"x_min":0,"x_max":0,"o":"m 831 -4 l 843 -4 l 860 -1 l 875 0 l 883 1 l 890 7 l 899 18 l 901 39 l 903 65 l 892 85 l 881 92 l 747 92 l 722 93 l 682 93 l 651 97 l 550 97 l 508 94 l 454 93 l 442 94 l 399 94 l 381 92 l 357 93 l 328 94 l 310 93 l 294 99 l 274 106 l 264 118 l 263 135 l 258 151 l 258 183 l 261 226 l 263 276 l 263 314 l 261 332 l 261 360 l 263 400 l 267 432 l 268 442 l 274 453 l 290 463 l 303 464 l 311 463 l 333 464 l 367 461 l 388 464 l 421 465 l 460 465 l 490 463 l 525 463 l 565 460 l 618 461 l 660 460 l 685 460 l 704 458 l 714 460 l 725 465 l 731 475 l 732 489 l 733 507 l 736 529 l 728 549 l 715 554 l 700 557 l 554 557 l 518 556 l 485 558 l 463 558 l 385 561 l 343 561 l 317 565 l 303 567 l 285 567 l 265 575 l 260 596 l 263 615 l 263 675 l 265 707 l 265 726 l 267 753 l 267 790 l 268 844 l 275 872 l 290 883 l 308 886 l 324 886 l 340 889 l 371 889 l 426 890 l 454 892 l 492 892 l 529 890 l 649 890 l 688 889 l 711 886 l 751 886 l 836 883 l 872 886 l 889 893 l 896 904 l 900 922 l 899 950 l 890 969 l 874 979 l 840 982 l 797 983 l 744 983 l 713 982 l 635 982 l 549 981 l 451 982 l 394 981 l 356 986 l 310 986 l 243 985 l 217 986 l 183 982 l 174 972 l 171 964 l 167 947 l 167 874 l 165 810 l 165 778 l 164 739 l 161 715 l 160 681 l 157 643 l 157 615 l 156 589 l 157 540 l 157 508 l 160 449 l 160 421 l 158 383 l 158 289 l 157 263 l 157 246 l 156 210 l 157 171 l 156 142 l 154 117 l 154 94 l 157 69 l 158 43 l 163 24 l 174 10 l 217 1 l 265 3 l 288 1 l 408 1 l 454 0 l 499 1 l 538 1 l 557 3 l 594 1 l 735 -1 l 769 -3 l 803 0 z "},"É":{"ha":979,"x_min":0,"x_max":0,"o":"m 831 -4 l 843 -4 l 860 -1 l 875 0 l 883 1 l 890 7 l 899 18 l 901 39 l 903 65 l 892 85 l 881 92 l 747 92 l 722 93 l 682 93 l 651 97 l 550 97 l 508 94 l 454 93 l 442 94 l 399 94 l 381 92 l 357 93 l 328 94 l 310 93 l 294 99 l 274 106 l 264 118 l 263 135 l 258 151 l 258 183 l 261 226 l 263 276 l 263 314 l 261 332 l 261 360 l 263 400 l 267 432 l 268 442 l 274 453 l 290 463 l 303 464 l 311 463 l 333 464 l 367 461 l 388 464 l 421 465 l 460 465 l 490 463 l 525 463 l 565 460 l 618 461 l 660 460 l 685 460 l 704 458 l 714 460 l 725 465 l 731 475 l 732 489 l 733 507 l 736 529 l 728 549 l 715 554 l 700 557 l 554 557 l 518 556 l 485 558 l 463 558 l 385 561 l 343 561 l 317 565 l 303 567 l 285 567 l 265 575 l 260 596 l 263 615 l 263 675 l 265 707 l 265 726 l 267 753 l 267 790 l 268 844 l 275 872 l 290 883 l 308 886 l 324 886 l 340 889 l 371 889 l 426 890 l 454 892 l 492 892 l 529 890 l 649 890 l 688 889 l 711 886 l 751 886 l 836 883 l 872 886 l 889 893 l 896 904 l 900 922 l 899 950 l 890 969 l 874 979 l 840 982 l 797 983 l 744 983 l 713 982 l 635 982 l 549 981 l 451 982 l 394 981 l 356 986 l 310 986 l 243 985 l 217 986 l 183 982 l 174 972 l 171 964 l 167 947 l 167 874 l 165 810 l 165 778 l 164 739 l 161 715 l 160 681 l 157 643 l 157 615 l 156 589 l 157 540 l 157 508 l 160 449 l 160 421 l 158 383 l 158 289 l 157 263 l 157 246 l 156 210 l 157 171 l 156 142 l 154 117 l 154 94 l 157 69 l 158 43 l 163 24 l 174 10 l 217 1 l 265 3 l 288 1 l 408 1 l 454 0 l 499 1 l 538 1 l 557 3 l 594 1 l 735 -1 l 769 -3 l 803 0 z m 533 1092 l 543 1096 l 564 1111 l 586 1136 l 610 1161 l 642 1193 l 657 1210 l 689 1243 l 708 1264 l 715 1286 l 708 1304 l 676 1336 l 665 1343 l 651 1344 l 626 1326 l 606 1307 l 586 1292 l 564 1274 l 549 1257 l 535 1246 l 521 1229 l 478 1188 l 463 1169 l 456 1156 l 458 1140 l 467 1122 l 492 1104 l 517 1094 z "},"Ě":{"ha":979,"x_min":0,"x_max":0,"o":"m 831 -4 l 843 -4 l 860 -1 l 875 0 l 883 1 l 890 7 l 899 18 l 901 39 l 903 65 l 892 85 l 881 92 l 747 92 l 722 93 l 682 93 l 651 97 l 550 97 l 508 94 l 454 93 l 442 94 l 399 94 l 381 92 l 357 93 l 328 94 l 310 93 l 294 99 l 274 106 l 264 118 l 263 135 l 258 151 l 258 183 l 261 226 l 263 276 l 263 314 l 261 332 l 261 360 l 263 400 l 267 432 l 268 442 l 274 453 l 290 463 l 303 464 l 311 463 l 333 464 l 367 461 l 388 464 l 421 465 l 460 465 l 490 463 l 525 463 l 565 460 l 618 461 l 660 460 l 685 460 l 704 458 l 714 460 l 725 465 l 731 475 l 732 489 l 733 507 l 736 529 l 728 549 l 715 554 l 700 557 l 554 557 l 518 556 l 485 558 l 463 558 l 385 561 l 343 561 l 317 565 l 303 567 l 285 567 l 265 575 l 260 596 l 263 615 l 263 675 l 265 707 l 265 726 l 267 753 l 267 790 l 268 844 l 275 872 l 290 883 l 308 886 l 324 886 l 340 889 l 371 889 l 426 890 l 454 892 l 492 892 l 529 890 l 649 890 l 688 889 l 711 886 l 751 886 l 836 883 l 872 886 l 889 893 l 896 904 l 900 922 l 899 950 l 890 969 l 874 979 l 840 982 l 797 983 l 744 983 l 713 982 l 635 982 l 549 981 l 451 982 l 394 981 l 356 986 l 310 986 l 243 985 l 217 986 l 183 982 l 174 972 l 171 964 l 167 947 l 167 874 l 165 810 l 165 778 l 164 739 l 161 715 l 160 681 l 157 643 l 157 615 l 156 589 l 157 540 l 157 508 l 160 449 l 160 421 l 158 383 l 158 289 l 157 263 l 157 246 l 156 210 l 157 171 l 156 142 l 154 117 l 154 94 l 157 69 l 158 43 l 163 24 l 174 10 l 217 1 l 265 3 l 288 1 l 408 1 l 454 0 l 499 1 l 538 1 l 557 3 l 594 1 l 735 -1 l 769 -3 l 803 0 z m 528 1083 l 569 1096 l 608 1133 l 632 1161 l 647 1181 l 663 1197 l 679 1218 l 710 1247 l 735 1275 l 743 1301 l 733 1315 l 714 1329 l 690 1343 l 676 1344 l 664 1339 l 646 1325 l 621 1294 l 589 1263 l 569 1240 l 556 1224 l 536 1208 l 524 1208 l 506 1219 l 482 1246 l 451 1278 l 415 1322 l 386 1349 l 372 1350 l 358 1344 l 340 1331 l 325 1321 l 315 1308 l 319 1281 l 343 1251 l 361 1232 l 368 1219 l 383 1200 l 414 1168 l 428 1149 l 454 1114 l 476 1096 l 499 1085 z "},"Ê":{"ha":979,"x_min":0,"x_max":0,"o":"m 831 -4 l 843 -4 l 860 -1 l 875 0 l 883 1 l 890 7 l 899 18 l 901 39 l 903 65 l 892 85 l 881 92 l 747 92 l 722 93 l 682 93 l 651 97 l 550 97 l 508 94 l 454 93 l 442 94 l 399 94 l 381 92 l 357 93 l 328 94 l 310 93 l 294 99 l 274 106 l 264 118 l 263 135 l 258 151 l 258 183 l 261 226 l 263 276 l 263 314 l 261 332 l 261 360 l 263 400 l 267 432 l 268 442 l 274 453 l 290 463 l 303 464 l 311 463 l 333 464 l 367 461 l 388 464 l 421 465 l 460 465 l 490 463 l 525 463 l 565 460 l 618 461 l 660 460 l 685 460 l 704 458 l 714 460 l 725 465 l 731 475 l 732 489 l 733 507 l 736 529 l 728 549 l 715 554 l 700 557 l 554 557 l 518 556 l 485 558 l 463 558 l 385 561 l 343 561 l 317 565 l 303 567 l 285 567 l 265 575 l 260 596 l 263 615 l 263 675 l 265 707 l 265 726 l 267 753 l 267 790 l 268 844 l 275 872 l 290 883 l 308 886 l 324 886 l 340 889 l 371 889 l 426 890 l 454 892 l 492 892 l 529 890 l 649 890 l 688 889 l 711 886 l 751 886 l 836 883 l 872 886 l 889 893 l 896 904 l 900 922 l 899 950 l 890 969 l 874 979 l 840 982 l 797 983 l 744 983 l 713 982 l 635 982 l 549 981 l 451 982 l 394 981 l 356 986 l 310 986 l 243 985 l 217 986 l 183 982 l 174 972 l 171 964 l 167 947 l 167 874 l 165 810 l 165 778 l 164 739 l 161 715 l 160 681 l 157 643 l 157 615 l 156 589 l 157 540 l 157 508 l 160 449 l 160 421 l 158 383 l 158 289 l 157 263 l 157 246 l 156 210 l 157 171 l 156 142 l 154 117 l 154 94 l 157 69 l 158 43 l 163 24 l 174 10 l 217 1 l 265 3 l 288 1 l 408 1 l 454 0 l 499 1 l 538 1 l 557 3 l 594 1 l 735 -1 l 769 -3 l 803 0 z m 372 1083 l 386 1085 l 415 1111 l 451 1156 l 482 1188 l 506 1214 l 524 1225 l 536 1225 l 556 1210 l 569 1193 l 589 1171 l 621 1139 l 646 1108 l 664 1094 l 676 1089 l 690 1090 l 714 1104 l 733 1118 l 743 1132 l 735 1158 l 710 1186 l 679 1215 l 663 1236 l 647 1253 l 632 1274 l 608 1300 l 569 1338 l 528 1350 l 499 1349 l 476 1338 l 454 1319 l 428 1285 l 414 1265 l 383 1233 l 368 1214 l 361 1201 l 343 1182 l 319 1153 l 315 1125 l 325 1114 l 340 1103 l 358 1089 z "},"Ë":{"ha":979,"x_min":0,"x_max":0,"o":"m 831 -4 l 843 -4 l 860 -1 l 875 0 l 883 1 l 890 7 l 899 18 l 901 39 l 903 65 l 892 85 l 881 92 l 747 92 l 722 93 l 682 93 l 651 97 l 550 97 l 508 94 l 454 93 l 442 94 l 399 94 l 381 92 l 357 93 l 328 94 l 310 93 l 294 99 l 274 106 l 264 118 l 263 135 l 258 151 l 258 183 l 261 226 l 263 276 l 263 314 l 261 332 l 261 360 l 263 400 l 267 432 l 268 442 l 274 453 l 290 463 l 303 464 l 311 463 l 333 464 l 367 461 l 388 464 l 421 465 l 460 465 l 490 463 l 525 463 l 565 460 l 618 461 l 660 460 l 685 460 l 704 458 l 714 460 l 725 465 l 731 475 l 732 489 l 733 507 l 736 529 l 728 549 l 715 554 l 700 557 l 554 557 l 518 556 l 485 558 l 463 558 l 385 561 l 343 561 l 317 565 l 303 567 l 285 567 l 265 575 l 260 596 l 263 615 l 263 675 l 265 707 l 265 726 l 267 753 l 267 790 l 268 844 l 275 872 l 290 883 l 308 886 l 324 886 l 340 889 l 371 889 l 426 890 l 454 892 l 492 892 l 529 890 l 649 890 l 688 889 l 711 886 l 751 886 l 836 883 l 872 886 l 889 893 l 896 904 l 900 922 l 899 950 l 890 969 l 874 979 l 840 982 l 797 983 l 744 983 l 713 982 l 635 982 l 549 981 l 451 982 l 394 981 l 356 986 l 310 986 l 243 985 l 217 986 l 183 982 l 174 972 l 171 964 l 167 947 l 167 874 l 165 810 l 165 778 l 164 739 l 161 715 l 160 681 l 157 643 l 157 615 l 156 589 l 157 540 l 157 508 l 160 449 l 160 421 l 158 383 l 158 289 l 157 263 l 157 246 l 156 210 l 157 171 l 156 142 l 154 117 l 154 94 l 157 69 l 158 43 l 163 24 l 174 10 l 217 1 l 265 3 l 288 1 l 408 1 l 454 0 l 499 1 l 538 1 l 557 3 l 594 1 l 735 -1 l 769 -3 l 803 0 z m 418 1142 l 442 1151 l 451 1161 l 461 1176 l 468 1197 l 468 1213 l 461 1239 l 444 1258 l 428 1269 l 406 1274 l 389 1271 l 376 1268 l 356 1253 l 343 1235 l 339 1221 l 339 1190 l 349 1167 l 358 1156 l 382 1146 z m 665 1142 l 689 1151 l 699 1161 l 708 1176 l 715 1197 l 715 1213 l 708 1239 l 692 1258 l 675 1269 l 653 1274 l 636 1271 l 624 1268 l 603 1253 l 590 1235 l 586 1221 l 586 1190 l 596 1167 l 606 1156 l 629 1146 z "},"Ė":{"ha":979,"x_min":0,"x_max":0,"o":"m 831 -4 l 843 -4 l 860 -1 l 875 0 l 883 1 l 890 7 l 899 18 l 901 39 l 903 65 l 892 85 l 881 92 l 747 92 l 722 93 l 682 93 l 651 97 l 550 97 l 508 94 l 454 93 l 442 94 l 399 94 l 381 92 l 357 93 l 328 94 l 310 93 l 294 99 l 274 106 l 264 118 l 263 135 l 258 151 l 258 183 l 261 226 l 263 276 l 263 314 l 261 332 l 261 360 l 263 400 l 267 432 l 268 442 l 274 453 l 290 463 l 303 464 l 311 463 l 333 464 l 367 461 l 388 464 l 421 465 l 460 465 l 490 463 l 525 463 l 565 460 l 618 461 l 660 460 l 685 460 l 704 458 l 714 460 l 725 465 l 731 475 l 732 489 l 733 507 l 736 529 l 728 549 l 715 554 l 700 557 l 554 557 l 518 556 l 485 558 l 463 558 l 385 561 l 343 561 l 317 565 l 303 567 l 285 567 l 265 575 l 260 596 l 263 615 l 263 675 l 265 707 l 265 726 l 267 753 l 267 790 l 268 844 l 275 872 l 290 883 l 308 886 l 324 886 l 340 889 l 371 889 l 426 890 l 454 892 l 492 892 l 529 890 l 649 890 l 688 889 l 711 886 l 751 886 l 836 883 l 872 886 l 889 893 l 896 904 l 900 922 l 899 950 l 890 969 l 874 979 l 840 982 l 797 983 l 744 983 l 713 982 l 635 982 l 549 981 l 451 982 l 394 981 l 356 986 l 310 986 l 243 985 l 217 986 l 183 982 l 174 972 l 171 964 l 167 947 l 167 874 l 165 810 l 165 778 l 164 739 l 161 715 l 160 681 l 157 643 l 157 615 l 156 589 l 157 540 l 157 508 l 160 449 l 160 421 l 158 383 l 158 289 l 157 263 l 157 246 l 156 210 l 157 171 l 156 142 l 154 117 l 154 94 l 157 69 l 158 43 l 163 24 l 174 10 l 217 1 l 265 3 l 288 1 l 408 1 l 454 0 l 499 1 l 538 1 l 557 3 l 594 1 l 735 -1 l 769 -3 l 803 0 z m 542 1142 l 565 1151 l 575 1161 l 585 1176 l 592 1197 l 592 1213 l 585 1239 l 568 1258 l 551 1269 l 529 1274 l 513 1271 l 500 1268 l 479 1253 l 467 1235 l 463 1221 l 463 1190 l 472 1167 l 482 1156 l 506 1146 z "},"È":{"ha":979,"x_min":0,"x_max":0,"o":"m 831 -4 l 843 -4 l 860 -1 l 875 0 l 883 1 l 890 7 l 899 18 l 901 39 l 903 65 l 892 85 l 881 92 l 747 92 l 722 93 l 682 93 l 651 97 l 550 97 l 508 94 l 454 93 l 442 94 l 399 94 l 381 92 l 357 93 l 328 94 l 310 93 l 294 99 l 274 106 l 264 118 l 263 135 l 258 151 l 258 183 l 261 226 l 263 276 l 263 314 l 261 332 l 261 360 l 263 400 l 267 432 l 268 442 l 274 453 l 290 463 l 303 464 l 311 463 l 333 464 l 367 461 l 388 464 l 421 465 l 460 465 l 490 463 l 525 463 l 565 460 l 618 461 l 660 460 l 685 460 l 704 458 l 714 460 l 725 465 l 731 475 l 732 489 l 733 507 l 736 529 l 728 549 l 715 554 l 700 557 l 554 557 l 518 556 l 485 558 l 463 558 l 385 561 l 343 561 l 317 565 l 303 567 l 285 567 l 265 575 l 260 596 l 263 615 l 263 675 l 265 707 l 265 726 l 267 753 l 267 790 l 268 844 l 275 872 l 290 883 l 308 886 l 324 886 l 340 889 l 371 889 l 426 890 l 454 892 l 492 892 l 529 890 l 649 890 l 688 889 l 711 886 l 751 886 l 836 883 l 872 886 l 889 893 l 896 904 l 900 922 l 899 950 l 890 969 l 874 979 l 840 982 l 797 983 l 744 983 l 713 982 l 635 982 l 549 981 l 451 982 l 394 981 l 356 986 l 310 986 l 243 985 l 217 986 l 183 982 l 174 972 l 171 964 l 167 947 l 167 874 l 165 810 l 165 778 l 164 739 l 161 715 l 160 681 l 157 643 l 157 615 l 156 589 l 157 540 l 157 508 l 160 449 l 160 421 l 158 383 l 158 289 l 157 263 l 157 246 l 156 210 l 157 171 l 156 142 l 154 117 l 154 94 l 157 69 l 158 43 l 163 24 l 174 10 l 217 1 l 265 3 l 288 1 l 408 1 l 454 0 l 499 1 l 538 1 l 557 3 l 594 1 l 735 -1 l 769 -3 l 803 0 z m 522 1092 l 538 1094 l 564 1103 l 588 1122 l 597 1140 l 599 1156 l 593 1169 l 578 1188 l 535 1229 l 519 1246 l 507 1257 l 490 1272 l 469 1292 l 451 1307 l 429 1326 l 404 1344 l 390 1343 l 379 1335 l 360 1318 l 346 1304 l 339 1286 l 347 1264 l 367 1243 l 413 1193 l 469 1136 l 492 1111 l 513 1094 z "},"Ē":{"ha":979,"x_min":0,"x_max":0,"o":"m 831 -4 l 843 -4 l 860 -1 l 875 0 l 883 1 l 890 7 l 899 18 l 901 39 l 903 65 l 892 85 l 881 92 l 747 92 l 722 93 l 682 93 l 651 97 l 550 97 l 508 94 l 454 93 l 442 94 l 399 94 l 381 92 l 357 93 l 328 94 l 310 93 l 294 99 l 274 106 l 264 118 l 263 135 l 258 151 l 258 183 l 261 226 l 263 276 l 263 314 l 261 332 l 261 360 l 263 400 l 267 432 l 268 442 l 274 453 l 290 463 l 303 464 l 311 463 l 333 464 l 367 461 l 388 464 l 421 465 l 460 465 l 490 463 l 525 463 l 565 460 l 618 461 l 660 460 l 685 460 l 704 458 l 714 460 l 725 465 l 731 475 l 732 489 l 733 507 l 736 529 l 728 549 l 715 554 l 700 557 l 554 557 l 518 556 l 485 558 l 463 558 l 385 561 l 343 561 l 317 565 l 303 567 l 285 567 l 265 575 l 260 596 l 263 615 l 263 675 l 265 707 l 265 726 l 267 753 l 267 790 l 268 844 l 275 872 l 290 883 l 308 886 l 324 886 l 340 889 l 371 889 l 426 890 l 454 892 l 492 892 l 529 890 l 649 890 l 688 889 l 711 886 l 751 886 l 836 883 l 872 886 l 889 893 l 896 904 l 900 922 l 899 950 l 890 969 l 874 979 l 840 982 l 797 983 l 744 983 l 713 982 l 635 982 l 549 981 l 451 982 l 394 981 l 356 986 l 310 986 l 243 985 l 217 986 l 183 982 l 174 972 l 171 964 l 167 947 l 167 874 l 165 810 l 165 778 l 164 739 l 161 715 l 160 681 l 157 643 l 157 615 l 156 589 l 157 540 l 157 508 l 160 449 l 160 421 l 158 383 l 158 289 l 157 263 l 157 246 l 156 210 l 157 171 l 156 142 l 154 117 l 154 94 l 157 69 l 158 43 l 163 24 l 174 10 l 217 1 l 265 3 l 288 1 l 408 1 l 454 0 l 499 1 l 538 1 l 557 3 l 594 1 l 735 -1 l 769 -3 l 803 0 z m 664 1156 l 694 1157 l 708 1169 l 711 1192 l 710 1217 l 703 1242 l 694 1250 l 683 1254 l 672 1257 l 640 1257 l 606 1256 l 583 1257 l 549 1256 l 514 1257 l 451 1257 l 408 1260 l 382 1258 l 363 1257 l 350 1243 l 343 1224 l 343 1214 l 346 1197 l 350 1179 l 356 1168 l 367 1161 l 376 1160 l 444 1160 l 529 1161 l 615 1158 z "},"Ę":{"ha":1057,"x_min":0,"x_max":0,"o":"m 843 -369 l 872 -365 l 893 -356 l 933 -340 l 964 -322 l 976 -306 l 981 -278 l 961 -249 l 911 -239 l 882 -250 l 874 -256 l 857 -262 l 838 -267 l 814 -267 l 793 -264 l 776 -256 l 764 -243 l 756 -219 l 758 -189 l 771 -162 l 790 -122 l 810 -99 l 832 -68 l 860 -29 l 882 -4 l 899 18 l 901 39 l 903 65 l 892 85 l 881 92 l 747 92 l 722 93 l 682 93 l 651 97 l 550 97 l 508 94 l 454 93 l 442 94 l 399 94 l 381 92 l 357 93 l 328 94 l 310 93 l 294 99 l 274 106 l 264 118 l 263 135 l 258 151 l 258 183 l 261 226 l 263 276 l 263 314 l 261 332 l 261 360 l 263 400 l 267 432 l 268 442 l 274 453 l 290 463 l 303 464 l 311 463 l 333 464 l 367 461 l 388 464 l 421 465 l 460 465 l 490 463 l 525 463 l 565 460 l 618 461 l 660 460 l 685 460 l 704 458 l 714 460 l 725 465 l 731 475 l 732 489 l 733 507 l 736 529 l 728 549 l 715 554 l 700 557 l 554 557 l 518 556 l 485 558 l 463 558 l 385 561 l 343 561 l 317 565 l 303 567 l 285 567 l 265 575 l 260 596 l 263 615 l 263 675 l 265 707 l 265 726 l 267 753 l 267 790 l 268 844 l 275 872 l 290 883 l 308 886 l 324 886 l 340 889 l 371 889 l 426 890 l 454 892 l 492 892 l 529 890 l 649 890 l 688 889 l 711 886 l 751 886 l 836 883 l 872 886 l 889 893 l 896 904 l 900 922 l 899 950 l 890 969 l 874 979 l 840 982 l 797 983 l 744 983 l 713 982 l 635 982 l 549 981 l 451 982 l 394 981 l 356 986 l 310 986 l 243 985 l 217 986 l 183 982 l 174 972 l 171 964 l 167 947 l 167 874 l 165 810 l 165 778 l 164 739 l 161 715 l 160 681 l 157 643 l 157 615 l 156 589 l 157 540 l 157 508 l 160 449 l 160 421 l 158 383 l 158 289 l 157 263 l 157 246 l 156 210 l 157 171 l 156 142 l 154 117 l 154 94 l 157 69 l 158 43 l 163 24 l 174 10 l 217 1 l 265 3 l 288 1 l 408 1 l 454 0 l 499 1 l 538 1 l 557 3 l 594 1 l 738 -1 l 764 -4 l 760 -11 l 738 -36 l 718 -64 l 700 -93 l 678 -131 l 667 -158 l 660 -182 l 656 -200 l 653 -222 l 653 -244 l 660 -271 l 671 -296 l 682 -315 l 700 -331 l 731 -350 l 763 -362 l 782 -365 l 808 -368 z "},"F":{"ha":972,"x_min":0,"x_max":0,"o":"m 217 0 l 240 0 l 246 3 l 257 13 l 261 28 l 260 57 l 260 144 l 258 194 l 260 236 l 260 272 l 258 299 l 258 367 l 260 401 l 261 429 l 267 440 l 275 447 l 303 451 l 360 454 l 418 454 l 450 453 l 478 450 l 514 451 l 581 449 l 671 450 l 708 451 l 721 460 l 728 478 l 729 507 l 726 522 l 719 535 l 679 543 l 642 544 l 618 542 l 574 540 l 353 540 l 336 543 l 314 549 l 278 558 l 265 572 l 261 579 l 258 601 l 260 638 l 260 750 l 264 803 l 269 836 l 271 856 l 272 869 l 279 881 l 290 885 l 422 881 l 457 881 l 485 883 l 503 881 l 560 878 l 582 876 l 621 878 l 761 878 l 813 875 l 843 876 l 857 879 l 872 879 l 888 885 l 893 899 l 893 922 l 896 939 l 894 946 l 888 960 l 878 968 l 868 971 l 840 971 l 767 975 l 732 975 l 707 971 l 664 971 l 640 972 l 588 972 l 564 974 l 465 974 l 436 972 l 411 975 l 372 975 l 264 978 l 233 976 l 211 976 l 186 972 l 176 968 l 169 960 l 168 950 l 168 932 l 164 894 l 165 843 l 167 799 l 165 768 l 164 744 l 164 717 l 163 697 l 161 668 l 160 631 l 160 560 l 163 506 l 164 467 l 164 451 l 163 419 l 161 390 l 161 365 l 158 329 l 160 289 l 157 235 l 153 188 l 157 151 l 156 119 l 156 104 l 157 72 l 157 38 l 158 21 l 167 10 l 183 1 z "},"G":{"ha":1164,"x_min":0,"x_max":0,"o":"m 599 -25 l 625 -25 l 689 -18 l 710 -15 l 746 -7 l 785 3 l 810 18 l 835 31 l 860 46 l 915 86 l 933 104 l 974 142 l 989 163 l 1007 188 l 1029 222 l 1047 258 l 1060 297 l 1067 325 l 1074 360 l 1078 388 l 1082 403 l 1088 433 l 1088 460 l 1085 482 l 1075 508 l 1063 522 l 1049 529 l 1019 531 l 947 531 l 910 532 l 881 531 l 853 533 l 825 532 l 794 533 l 753 532 l 631 538 l 597 533 l 589 531 l 583 522 l 581 496 l 585 472 l 589 453 l 604 446 l 619 444 l 650 446 l 690 443 l 732 444 l 760 442 l 775 442 l 804 440 l 878 439 l 904 439 l 946 438 l 972 429 l 983 414 l 985 388 l 978 353 l 961 313 l 951 282 l 943 267 l 931 247 l 918 225 l 906 210 l 897 197 l 879 183 l 858 160 l 831 139 l 810 124 l 797 114 l 785 106 l 767 99 l 742 93 l 703 82 l 668 75 l 650 72 l 625 71 l 590 68 l 558 69 l 538 72 l 511 76 l 478 83 l 443 96 l 407 110 l 383 122 l 335 157 l 314 175 l 286 204 l 268 224 l 247 250 l 228 281 l 218 297 l 211 321 l 203 340 l 197 360 l 193 382 l 188 419 l 182 453 l 181 478 l 182 518 l 185 542 l 188 572 l 192 583 l 196 603 l 204 636 l 218 675 l 233 704 l 247 725 l 261 747 l 290 783 l 313 810 l 328 822 l 349 836 l 375 854 l 424 875 l 474 896 l 500 901 l 528 908 l 553 911 l 565 914 l 581 915 l 617 915 l 664 911 l 710 900 l 735 892 l 771 876 l 804 857 l 831 840 l 850 825 l 888 790 l 907 768 l 924 751 l 936 746 l 944 743 l 963 746 l 978 757 l 992 772 l 1000 799 l 992 819 l 976 838 l 957 860 l 935 881 l 918 893 l 857 938 l 835 949 l 807 961 l 786 968 l 750 983 l 719 989 l 689 999 l 658 1001 l 631 1007 l 556 1006 l 532 1001 l 494 997 l 464 989 l 425 974 l 394 964 l 350 946 l 326 933 l 283 904 l 258 889 l 235 868 l 207 832 l 190 814 l 167 779 l 144 740 l 128 700 l 108 654 l 104 629 l 99 614 l 94 592 l 89 568 l 85 554 l 83 525 l 83 501 l 85 451 l 88 426 l 94 376 l 106 339 l 113 304 l 122 274 l 139 247 l 151 225 l 163 210 l 182 186 l 200 157 l 224 133 l 250 110 l 264 96 l 301 64 l 324 50 l 360 31 l 404 11 l 433 1 l 472 -7 l 510 -17 l 547 -24 l 569 -24 z "},"Ģ":{"ha":1164,"x_min":0,"x_max":0,"o":"m 599 -25 l 625 -25 l 689 -18 l 710 -15 l 746 -7 l 785 3 l 810 18 l 835 31 l 860 46 l 915 86 l 933 104 l 974 142 l 989 163 l 1007 188 l 1029 222 l 1047 258 l 1060 297 l 1067 325 l 1074 360 l 1078 388 l 1082 403 l 1088 433 l 1088 460 l 1085 482 l 1075 508 l 1063 522 l 1049 529 l 1019 531 l 947 531 l 910 532 l 881 531 l 853 533 l 825 532 l 794 533 l 753 532 l 631 538 l 597 533 l 589 531 l 583 522 l 581 496 l 585 472 l 589 453 l 604 446 l 619 444 l 650 446 l 690 443 l 732 444 l 760 442 l 775 442 l 804 440 l 878 439 l 904 439 l 946 438 l 972 429 l 983 414 l 985 388 l 978 353 l 961 313 l 951 282 l 943 267 l 931 247 l 918 225 l 906 210 l 897 197 l 879 183 l 858 160 l 831 139 l 810 124 l 797 114 l 785 106 l 767 99 l 742 93 l 703 82 l 668 75 l 650 72 l 625 71 l 590 68 l 558 69 l 538 72 l 511 76 l 478 83 l 443 96 l 407 110 l 383 122 l 335 157 l 314 175 l 286 204 l 268 224 l 247 250 l 228 281 l 218 297 l 211 321 l 203 340 l 197 360 l 193 382 l 188 419 l 182 453 l 181 478 l 182 518 l 185 542 l 188 572 l 192 583 l 196 603 l 204 636 l 218 675 l 233 704 l 247 725 l 261 747 l 290 783 l 313 810 l 328 822 l 349 836 l 375 854 l 424 875 l 474 896 l 500 901 l 528 908 l 553 911 l 565 914 l 581 915 l 617 915 l 664 911 l 710 900 l 735 892 l 771 876 l 804 857 l 831 840 l 850 825 l 888 790 l 907 768 l 924 751 l 936 746 l 944 743 l 963 746 l 978 757 l 992 772 l 1000 799 l 992 819 l 976 838 l 957 860 l 935 881 l 918 893 l 857 938 l 835 949 l 807 961 l 786 968 l 750 983 l 719 989 l 689 999 l 658 1001 l 631 1007 l 556 1006 l 532 1001 l 494 997 l 464 989 l 425 974 l 394 964 l 350 946 l 326 933 l 283 904 l 258 889 l 235 868 l 207 832 l 190 814 l 167 779 l 144 740 l 128 700 l 108 654 l 104 629 l 99 614 l 94 592 l 89 568 l 85 554 l 83 525 l 83 501 l 85 451 l 88 426 l 94 376 l 106 339 l 113 304 l 122 274 l 139 247 l 151 225 l 163 210 l 182 186 l 200 157 l 224 133 l 250 110 l 264 96 l 301 64 l 324 50 l 360 31 l 404 11 l 433 1 l 472 -7 l 510 -17 l 547 -24 l 569 -24 z m 583 -396 l 611 -392 l 625 -386 l 632 -379 l 642 -354 l 649 -321 l 657 -287 l 671 -235 l 676 -204 l 682 -172 l 679 -147 l 664 -136 l 622 -126 l 608 -126 l 592 -133 l 575 -172 l 563 -212 l 557 -236 l 551 -251 l 547 -274 l 539 -300 l 531 -332 l 525 -354 l 526 -368 l 536 -381 l 553 -392 z "},"H":{"ha":1104,"x_min":0,"x_max":0,"o":"m 893 -4 l 913 -4 l 932 -3 l 942 7 l 943 15 l 943 203 l 944 229 l 947 256 l 949 279 l 949 314 l 947 357 l 947 396 l 944 425 l 944 446 l 947 469 l 946 496 l 944 514 l 949 551 l 949 657 l 947 689 l 947 714 l 949 757 l 951 786 l 949 826 l 949 885 l 947 914 l 947 942 l 938 964 l 928 969 l 896 972 l 868 968 l 856 958 l 851 938 l 846 896 l 846 810 l 847 758 l 850 718 l 847 679 l 847 642 l 846 610 l 843 579 l 839 568 l 829 556 l 810 549 l 771 546 l 739 549 l 713 547 l 686 549 l 651 550 l 597 550 l 553 553 l 508 551 l 475 550 l 447 551 l 376 551 l 344 553 l 317 551 l 296 556 l 279 561 l 264 572 l 258 583 l 256 600 l 256 700 l 257 757 l 257 782 l 256 829 l 260 871 l 258 911 l 254 949 l 247 971 l 239 975 l 201 975 l 182 976 l 172 975 l 167 967 l 164 956 l 163 925 l 161 901 l 161 868 l 160 826 l 160 796 l 158 764 l 158 693 l 156 665 l 157 621 l 157 529 l 158 485 l 158 454 l 157 393 l 156 357 l 156 224 l 158 200 l 156 161 l 154 125 l 157 110 l 157 79 l 154 39 l 160 11 l 175 1 l 199 -1 l 229 -1 l 240 3 l 247 11 l 250 33 l 254 56 l 256 88 l 256 253 l 253 308 l 253 344 l 256 381 l 258 408 l 260 439 l 264 449 l 292 460 l 346 461 l 401 464 l 447 461 l 613 458 l 628 457 l 651 458 l 683 456 l 713 456 l 736 453 l 769 454 l 801 451 l 824 447 l 833 436 l 839 426 l 842 404 l 843 381 l 846 357 l 846 326 l 847 289 l 846 232 l 844 182 l 842 149 l 843 108 l 842 78 l 843 49 l 847 18 l 856 4 l 874 -1 z "},"I":{"ha":413,"x_min":0,"x_max":0,"o":"m 204 -7 l 226 -7 l 246 -1 l 254 17 l 254 42 l 256 68 l 256 106 l 254 136 l 254 156 l 256 189 l 257 215 l 256 257 l 256 318 l 258 360 l 256 388 l 256 442 l 260 472 l 260 632 l 256 661 l 254 697 l 256 728 l 257 765 l 257 781 l 260 801 l 258 839 l 256 876 l 256 900 l 254 928 l 254 953 l 250 963 l 238 969 l 221 971 l 201 974 l 182 971 l 168 965 l 161 949 l 160 928 l 161 901 l 158 860 l 158 824 l 157 782 l 160 724 l 158 669 l 158 517 l 156 482 l 156 450 l 154 419 l 157 385 l 156 356 l 157 339 l 158 331 l 157 321 l 154 300 l 154 276 l 156 254 l 154 218 l 154 29 l 158 15 l 163 4 l 181 -4 z "},"Í":{"ha":413,"x_min":0,"x_max":0,"o":"m 204 -7 l 226 -7 l 246 -1 l 254 17 l 254 42 l 256 68 l 256 106 l 254 136 l 254 156 l 256 189 l 257 215 l 256 257 l 256 318 l 258 360 l 256 388 l 256 442 l 260 472 l 260 632 l 256 661 l 254 697 l 256 728 l 257 765 l 257 781 l 260 801 l 258 839 l 256 876 l 256 900 l 254 928 l 254 953 l 250 963 l 238 969 l 221 971 l 201 974 l 182 971 l 168 965 l 161 949 l 160 928 l 161 901 l 158 860 l 158 824 l 157 782 l 160 724 l 158 669 l 158 517 l 156 482 l 156 450 l 154 419 l 157 385 l 156 356 l 157 339 l 158 331 l 157 321 l 154 300 l 154 276 l 156 254 l 154 218 l 154 29 l 158 15 l 163 4 l 181 -4 z m 213 1092 l 222 1096 l 243 1111 l 265 1136 l 289 1161 l 321 1193 l 336 1210 l 368 1243 l 388 1264 l 394 1286 l 388 1304 l 356 1336 l 344 1343 l 331 1344 l 306 1326 l 285 1307 l 265 1292 l 243 1274 l 228 1257 l 214 1246 l 200 1229 l 157 1188 l 142 1169 l 135 1156 l 138 1140 l 146 1122 l 171 1104 l 196 1094 z "},"Î":{"ha":413,"x_min":0,"x_max":0,"o":"m 51 1083 l 65 1085 l 94 1111 l 131 1156 l 161 1188 l 185 1214 l 203 1225 l 215 1225 l 235 1210 l 249 1193 l 268 1171 l 300 1139 l 325 1108 l 343 1094 l 356 1089 l 369 1090 l 393 1104 l 413 1118 l 422 1132 l 414 1158 l 389 1186 l 358 1215 l 342 1236 l 326 1253 l 311 1274 l 288 1300 l 249 1338 l 207 1350 l 178 1349 l 156 1338 l 133 1319 l 107 1285 l 93 1265 l 63 1233 l 47 1214 l 40 1201 l 22 1182 l -1 1153 l -6 1125 l 4 1114 l 19 1103 l 38 1089 z m 204 -7 l 226 -7 l 246 -1 l 254 17 l 254 42 l 256 68 l 256 106 l 254 136 l 254 156 l 256 189 l 257 215 l 256 257 l 256 318 l 258 360 l 256 388 l 256 442 l 260 472 l 260 632 l 256 661 l 254 697 l 256 728 l 257 765 l 257 781 l 260 801 l 258 839 l 256 876 l 256 900 l 254 928 l 254 953 l 250 963 l 238 969 l 221 971 l 201 974 l 182 971 l 168 965 l 161 949 l 160 928 l 161 901 l 158 860 l 158 824 l 157 782 l 160 724 l 158 669 l 158 517 l 156 482 l 156 450 l 154 419 l 157 385 l 156 356 l 157 339 l 158 331 l 157 321 l 154 300 l 154 276 l 156 254 l 154 218 l 154 29 l 158 15 l 163 4 l 181 -4 z "},"Ï":{"ha":413,"x_min":0,"x_max":0,"o":"m 204 -7 l 226 -7 l 246 -1 l 254 17 l 254 42 l 256 68 l 256 106 l 254 136 l 254 156 l 256 189 l 257 215 l 256 257 l 256 318 l 258 360 l 256 388 l 256 442 l 260 472 l 260 632 l 256 661 l 254 697 l 256 728 l 257 765 l 257 781 l 260 801 l 258 839 l 256 876 l 256 900 l 254 928 l 254 953 l 250 963 l 238 969 l 221 971 l 201 974 l 182 971 l 168 965 l 161 949 l 160 928 l 161 901 l 158 860 l 158 824 l 157 782 l 160 724 l 158 669 l 158 517 l 156 482 l 156 450 l 154 419 l 157 385 l 156 356 l 157 339 l 158 331 l 157 321 l 154 300 l 154 276 l 156 254 l 154 218 l 154 29 l 158 15 l 163 4 l 181 -4 z m 97 1142 l 121 1151 l 131 1161 l 140 1176 l 147 1197 l 147 1213 l 140 1239 l 124 1258 l 107 1269 l 85 1274 l 68 1271 l 56 1268 l 35 1253 l 22 1235 l 18 1221 l 18 1190 l 28 1167 l 38 1156 l 61 1146 z m 344 1142 l 368 1151 l 378 1161 l 388 1176 l 394 1197 l 394 1213 l 388 1239 l 371 1258 l 354 1269 l 332 1274 l 315 1271 l 303 1268 l 282 1253 l 269 1235 l 265 1221 l 265 1190 l 275 1167 l 285 1156 l 308 1146 z "},"Ì":{"ha":413,"x_min":0,"x_max":0,"o":"m 204 -7 l 226 -7 l 246 -1 l 254 17 l 254 42 l 256 68 l 256 106 l 254 136 l 254 156 l 256 189 l 257 215 l 256 257 l 256 318 l 258 360 l 256 388 l 256 442 l 260 472 l 260 632 l 256 661 l 254 697 l 256 728 l 257 765 l 257 781 l 260 801 l 258 839 l 256 876 l 256 900 l 254 928 l 254 953 l 250 963 l 238 969 l 221 971 l 201 974 l 182 971 l 168 965 l 161 949 l 160 928 l 161 901 l 158 860 l 158 824 l 157 782 l 160 724 l 158 669 l 158 517 l 156 482 l 156 450 l 154 419 l 157 385 l 156 356 l 157 339 l 158 331 l 157 321 l 154 300 l 154 276 l 156 254 l 154 218 l 154 29 l 158 15 l 163 4 l 181 -4 z m 201 1092 l 217 1094 l 243 1103 l 267 1122 l 276 1140 l 278 1156 l 272 1169 l 257 1188 l 214 1229 l 199 1246 l 186 1257 l 169 1272 l 149 1292 l 131 1307 l 108 1326 l 83 1344 l 69 1343 l 58 1335 l 39 1318 l 25 1304 l 18 1286 l 26 1264 l 46 1243 l 92 1193 l 149 1136 l 171 1111 l 192 1094 z "},"Ī":{"ha":413,"x_min":0,"x_max":0,"o":"m 204 -7 l 226 -7 l 246 -1 l 254 17 l 254 42 l 256 68 l 256 106 l 254 136 l 254 156 l 256 189 l 257 215 l 256 257 l 256 318 l 258 360 l 256 388 l 256 442 l 260 472 l 260 632 l 256 661 l 254 697 l 256 728 l 257 765 l 257 781 l 260 801 l 258 839 l 256 876 l 256 900 l 254 928 l 254 953 l 250 963 l 238 969 l 221 971 l 201 974 l 182 971 l 168 965 l 161 949 l 160 928 l 161 901 l 158 860 l 158 824 l 157 782 l 160 724 l 158 669 l 158 517 l 156 482 l 156 450 l 154 419 l 157 385 l 156 356 l 157 339 l 158 331 l 157 321 l 154 300 l 154 276 l 156 254 l 154 218 l 154 29 l 158 15 l 163 4 l 181 -4 z m 343 1156 l 374 1157 l 388 1169 l 390 1192 l 389 1217 l 382 1242 l 374 1250 l 363 1254 l 351 1257 l 319 1257 l 285 1256 l 263 1257 l 228 1256 l 193 1257 l 131 1257 l 88 1260 l 61 1258 l 42 1257 l 29 1243 l 22 1224 l 22 1214 l 25 1197 l 29 1179 l 35 1168 l 46 1161 l 56 1160 l 124 1160 l 208 1161 l 294 1158 z "},"Į":{"ha":426,"x_min":0,"x_max":0,"o":"m 213 -369 l 242 -365 l 263 -356 l 303 -340 l 333 -322 l 346 -306 l 350 -278 l 331 -249 l 281 -239 l 251 -250 l 243 -256 l 226 -262 l 207 -267 l 183 -267 l 163 -264 l 146 -256 l 133 -243 l 125 -219 l 128 -189 l 140 -162 l 160 -122 l 179 -99 l 201 -68 l 229 -29 l 250 -6 l 263 17 l 263 42 l 264 68 l 264 106 l 263 136 l 263 156 l 264 189 l 265 215 l 264 257 l 264 318 l 267 360 l 264 388 l 264 442 l 268 472 l 268 632 l 264 661 l 263 697 l 264 728 l 265 765 l 265 781 l 268 801 l 267 839 l 264 876 l 264 900 l 263 928 l 263 953 l 258 963 l 246 969 l 229 971 l 210 974 l 190 971 l 176 965 l 169 949 l 168 928 l 169 901 l 167 860 l 167 824 l 165 782 l 168 724 l 167 669 l 167 517 l 164 482 l 164 450 l 163 419 l 165 385 l 164 356 l 165 339 l 167 331 l 165 321 l 163 300 l 163 276 l 164 254 l 163 218 l 163 53 l 160 19 l 143 4 l 129 -11 l 107 -36 l 88 -64 l 69 -93 l 47 -131 l 36 -158 l 29 -182 l 25 -200 l 22 -222 l 22 -244 l 29 -271 l 40 -296 l 51 -315 l 69 -331 l 100 -350 l 132 -362 l 151 -365 l 178 -368 z "},"J":{"ha":963,"x_min":0,"x_max":0,"o":"m 469 -26 l 488 -26 l 508 -24 l 546 -21 l 586 -14 l 611 -6 l 629 3 l 649 7 l 664 17 l 675 25 l 692 35 l 704 42 l 715 53 l 729 64 l 747 86 l 760 110 l 768 121 l 776 150 l 788 183 l 793 214 l 800 244 l 803 268 l 807 290 l 806 339 l 808 376 l 810 389 l 808 414 l 807 460 l 807 533 l 808 564 l 810 596 l 808 643 l 807 696 l 807 756 l 806 814 l 807 865 l 807 929 l 804 960 l 793 969 l 786 974 l 754 975 l 728 972 l 715 965 l 711 950 l 708 921 l 706 874 l 708 826 l 706 789 l 707 740 l 711 693 l 708 649 l 708 621 l 710 588 l 707 554 l 708 510 l 707 490 l 708 481 l 707 442 l 707 404 l 704 368 l 703 314 l 701 278 l 699 243 l 689 196 l 678 172 l 658 147 l 635 121 l 594 93 l 574 82 l 542 71 l 494 60 l 453 60 l 417 67 l 363 78 l 338 88 l 306 104 l 292 117 l 267 139 l 250 161 l 242 175 l 232 201 l 224 219 l 215 251 l 210 306 l 208 329 l 206 367 l 207 389 l 201 406 l 188 413 l 165 417 l 139 414 l 124 411 l 117 406 l 114 396 l 113 375 l 113 358 l 114 322 l 114 272 l 119 231 l 126 196 l 132 174 l 143 146 l 156 119 l 169 99 l 192 75 l 246 29 l 282 14 l 301 4 l 333 -7 l 383 -18 l 433 -24 z "},"K":{"ha":1051,"x_min":0,"x_max":0,"o":"m 893 -11 l 918 3 l 943 24 l 947 40 l 939 57 l 925 78 l 908 106 l 882 138 l 851 174 l 825 214 l 794 251 l 781 272 l 765 293 l 749 319 l 731 340 l 713 368 l 697 388 l 678 411 l 653 444 l 631 482 l 614 507 l 603 519 l 592 535 l 579 554 l 572 569 l 568 579 l 572 596 l 590 619 l 611 644 l 643 678 l 668 706 l 683 718 l 701 736 l 729 765 l 750 789 l 804 843 l 831 867 l 854 894 l 869 911 l 876 928 l 872 939 l 850 960 l 817 978 l 803 975 l 751 929 l 732 910 l 704 881 l 681 851 l 644 818 l 619 789 l 601 775 l 571 742 l 540 710 l 519 689 l 486 653 l 460 628 l 447 613 l 421 590 l 392 557 l 367 531 l 349 508 l 331 489 l 304 458 l 274 438 l 261 443 l 256 454 l 254 474 l 254 576 l 258 639 l 258 668 l 254 715 l 257 744 l 258 774 l 253 810 l 256 838 l 256 863 l 254 890 l 256 910 l 257 931 l 253 956 l 246 972 l 239 978 l 210 981 l 179 978 l 167 971 l 158 940 l 157 900 l 157 860 l 154 817 l 154 747 l 157 703 l 156 663 l 154 628 l 156 594 l 153 554 l 157 504 l 154 476 l 154 436 l 153 378 l 153 347 l 154 307 l 154 222 l 153 197 l 153 171 l 154 144 l 154 104 l 153 68 l 154 31 l 164 11 l 171 4 l 182 0 l 204 -3 l 229 -1 l 246 7 l 249 28 l 249 69 l 251 106 l 253 139 l 254 178 l 256 224 l 261 256 l 267 269 l 279 293 l 290 310 l 308 329 l 324 346 l 392 414 l 407 426 l 425 446 l 443 460 l 458 478 l 465 482 l 478 486 l 499 481 l 515 465 l 539 432 l 564 406 l 582 381 l 604 356 l 614 342 l 631 317 l 656 288 l 672 264 l 694 233 l 708 213 l 729 183 l 749 157 l 782 108 l 807 76 l 824 53 l 843 25 l 857 6 l 872 -7 l 882 -10 z "},"Ķ":{"ha":1051,"x_min":0,"x_max":0,"o":"m 893 -11 l 918 3 l 943 24 l 947 40 l 939 57 l 925 78 l 908 106 l 882 138 l 851 174 l 825 214 l 794 251 l 781 272 l 765 293 l 749 319 l 731 340 l 713 368 l 697 388 l 678 411 l 653 444 l 631 482 l 614 507 l 603 519 l 592 535 l 579 554 l 572 569 l 568 579 l 572 596 l 590 619 l 611 644 l 643 678 l 668 706 l 683 718 l 701 736 l 729 765 l 750 789 l 804 843 l 831 867 l 854 894 l 869 911 l 876 928 l 872 939 l 850 960 l 817 978 l 803 975 l 751 929 l 732 910 l 704 881 l 681 851 l 644 818 l 619 789 l 601 775 l 571 742 l 540 710 l 519 689 l 486 653 l 460 628 l 447 613 l 421 590 l 392 557 l 367 531 l 349 508 l 331 489 l 304 458 l 274 438 l 261 443 l 256 454 l 254 474 l 254 576 l 258 639 l 258 668 l 254 715 l 257 744 l 258 774 l 253 810 l 256 838 l 256 863 l 254 890 l 256 910 l 257 931 l 253 956 l 246 972 l 239 978 l 210 981 l 179 978 l 167 971 l 158 940 l 157 900 l 157 860 l 154 817 l 154 747 l 157 703 l 156 663 l 154 628 l 156 594 l 153 554 l 157 504 l 154 476 l 154 436 l 153 378 l 153 347 l 154 307 l 154 222 l 153 197 l 153 171 l 154 144 l 154 104 l 153 68 l 154 31 l 164 11 l 171 4 l 182 0 l 204 -3 l 229 -1 l 246 7 l 249 28 l 249 69 l 251 106 l 253 139 l 254 178 l 256 224 l 261 256 l 267 269 l 279 293 l 290 310 l 308 329 l 324 346 l 392 414 l 407 426 l 425 446 l 443 460 l 458 478 l 465 482 l 478 486 l 499 481 l 515 465 l 539 432 l 564 406 l 582 381 l 604 356 l 614 342 l 631 317 l 656 288 l 672 264 l 694 233 l 708 213 l 729 183 l 749 157 l 782 108 l 807 76 l 824 53 l 843 25 l 857 6 l 872 -7 l 882 -10 z m 525 -396 l 553 -392 l 567 -386 l 574 -379 l 583 -354 l 590 -321 l 599 -287 l 613 -235 l 618 -204 l 624 -172 l 621 -147 l 606 -136 l 564 -126 l 550 -126 l 533 -133 l 517 -172 l 504 -212 l 499 -236 l 493 -251 l 489 -274 l 481 -300 l 472 -332 l 467 -354 l 468 -368 l 478 -381 l 494 -392 z "},"L":{"ha":910,"x_min":0,"x_max":0,"o":"m 765 -6 l 796 -4 l 824 -1 l 832 6 l 838 13 l 839 38 l 840 57 l 839 69 l 831 83 l 824 88 l 811 92 l 794 90 l 779 90 l 747 92 l 717 92 l 613 93 l 565 94 l 540 93 l 497 92 l 468 92 l 444 93 l 422 92 l 400 93 l 363 90 l 308 90 l 274 94 l 267 97 l 258 103 l 250 121 l 249 150 l 250 183 l 251 208 l 251 338 l 249 382 l 251 419 l 253 463 l 254 486 l 254 544 l 253 600 l 253 639 l 254 660 l 257 676 l 257 711 l 254 753 l 256 783 l 256 860 l 257 894 l 256 919 l 257 935 l 257 950 l 243 967 l 206 972 l 181 972 l 169 967 l 165 960 l 163 946 l 160 913 l 163 869 l 161 825 l 161 794 l 160 779 l 161 765 l 158 738 l 158 701 l 157 657 l 157 449 l 156 422 l 156 393 l 153 365 l 156 315 l 157 283 l 156 221 l 156 104 l 151 71 l 153 39 l 156 22 l 161 10 l 194 3 l 235 -1 l 260 0 l 292 -1 l 326 0 l 353 0 l 379 3 l 397 0 l 522 0 l 539 -1 l 607 -1 l 635 0 l 668 0 l 688 -1 l 717 -1 l 744 -3 z "},"Ĺ":{"ha":910,"x_min":0,"x_max":0,"o":"m 765 -6 l 796 -4 l 824 -1 l 832 6 l 838 13 l 839 38 l 840 57 l 839 69 l 831 83 l 824 88 l 811 92 l 794 90 l 779 90 l 747 92 l 717 92 l 613 93 l 565 94 l 540 93 l 497 92 l 468 92 l 444 93 l 422 92 l 400 93 l 363 90 l 308 90 l 274 94 l 267 97 l 258 103 l 250 121 l 249 150 l 250 183 l 251 208 l 251 338 l 249 382 l 251 419 l 253 463 l 254 486 l 254 544 l 253 600 l 253 639 l 254 660 l 257 676 l 257 711 l 254 753 l 256 783 l 256 860 l 257 894 l 256 919 l 257 935 l 257 950 l 243 967 l 206 972 l 181 972 l 169 967 l 165 960 l 163 946 l 160 913 l 163 869 l 161 825 l 161 794 l 160 779 l 161 765 l 158 738 l 158 701 l 157 657 l 157 449 l 156 422 l 156 393 l 153 365 l 156 315 l 157 283 l 156 221 l 156 104 l 151 71 l 153 39 l 156 22 l 161 10 l 194 3 l 235 -1 l 260 0 l 292 -1 l 326 0 l 353 0 l 379 3 l 397 0 l 522 0 l 539 -1 l 607 -1 l 635 0 l 668 0 l 688 -1 l 717 -1 l 744 -3 z m 219 1092 l 229 1096 l 250 1111 l 272 1136 l 296 1161 l 328 1193 l 343 1210 l 375 1243 l 394 1264 l 401 1286 l 394 1304 l 363 1336 l 351 1343 l 338 1344 l 313 1326 l 292 1307 l 272 1292 l 250 1274 l 235 1257 l 221 1246 l 207 1229 l 164 1188 l 149 1169 l 142 1156 l 144 1140 l 153 1122 l 178 1104 l 203 1094 z "},"Ľ":{"ha":910,"x_min":0,"x_max":0,"o":"m 765 -6 l 796 -4 l 824 -1 l 832 6 l 838 13 l 839 38 l 840 57 l 839 69 l 831 83 l 824 88 l 811 92 l 794 90 l 779 90 l 747 92 l 717 92 l 613 93 l 565 94 l 540 93 l 497 92 l 468 92 l 444 93 l 422 92 l 400 93 l 363 90 l 308 90 l 274 94 l 267 97 l 258 103 l 250 121 l 249 150 l 250 183 l 251 208 l 251 338 l 249 382 l 251 419 l 253 463 l 254 486 l 254 544 l 253 600 l 253 639 l 254 660 l 257 676 l 257 711 l 254 753 l 256 783 l 256 860 l 257 894 l 256 919 l 257 935 l 257 950 l 243 967 l 206 972 l 181 972 l 169 967 l 165 960 l 163 946 l 160 913 l 163 869 l 161 825 l 161 794 l 160 779 l 161 765 l 158 738 l 158 701 l 157 657 l 157 449 l 156 422 l 156 393 l 153 365 l 156 315 l 157 283 l 156 221 l 156 104 l 151 71 l 153 39 l 156 22 l 161 10 l 194 3 l 235 -1 l 260 0 l 292 -1 l 326 0 l 353 0 l 379 3 l 397 0 l 522 0 l 539 -1 l 607 -1 l 635 0 l 668 0 l 688 -1 l 717 -1 l 744 -3 z m 646 732 l 674 736 l 688 742 l 694 749 l 704 774 l 711 807 l 719 840 l 733 893 l 739 924 l 744 957 l 742 981 l 726 992 l 685 1001 l 671 1001 l 654 994 l 638 956 l 625 915 l 619 893 l 614 876 l 610 856 l 601 828 l 593 796 l 588 774 l 589 760 l 599 747 l 615 736 z "},"Ļ":{"ha":910,"x_min":0,"x_max":0,"o":"m 765 -6 l 796 -4 l 824 -1 l 832 6 l 838 13 l 839 38 l 840 57 l 839 69 l 831 83 l 824 88 l 811 92 l 794 90 l 779 90 l 747 92 l 717 92 l 613 93 l 565 94 l 540 93 l 497 92 l 468 92 l 444 93 l 422 92 l 400 93 l 363 90 l 308 90 l 274 94 l 267 97 l 258 103 l 250 121 l 249 150 l 250 183 l 251 208 l 251 338 l 249 382 l 251 419 l 253 463 l 254 486 l 254 544 l 253 600 l 253 639 l 254 660 l 257 676 l 257 711 l 254 753 l 256 783 l 256 860 l 257 894 l 256 919 l 257 935 l 257 950 l 243 967 l 206 972 l 181 972 l 169 967 l 165 960 l 163 946 l 160 913 l 163 869 l 161 825 l 161 794 l 160 779 l 161 765 l 158 738 l 158 701 l 157 657 l 157 449 l 156 422 l 156 393 l 153 365 l 156 315 l 157 283 l 156 221 l 156 104 l 151 71 l 153 39 l 156 22 l 161 10 l 194 3 l 235 -1 l 260 0 l 292 -1 l 326 0 l 353 0 l 379 3 l 397 0 l 522 0 l 539 -1 l 607 -1 l 635 0 l 668 0 l 688 -1 l 717 -1 l 744 -3 z m 465 -396 l 493 -392 l 507 -386 l 514 -379 l 524 -354 l 531 -321 l 539 -287 l 553 -235 l 558 -204 l 564 -172 l 561 -147 l 546 -136 l 504 -126 l 490 -126 l 474 -133 l 457 -172 l 444 -212 l 439 -236 l 433 -251 l 429 -274 l 421 -300 l 413 -332 l 407 -354 l 408 -368 l 418 -381 l 435 -392 z "},"Ł":{"ha":968,"x_min":0,"x_max":0,"o":"m 824 -6 l 854 -4 l 882 -1 l 890 6 l 896 13 l 897 38 l 899 57 l 897 69 l 889 83 l 882 88 l 869 92 l 853 90 l 838 90 l 806 92 l 775 92 l 671 93 l 624 94 l 599 93 l 556 92 l 526 92 l 503 93 l 481 92 l 458 93 l 421 90 l 367 90 l 332 94 l 325 97 l 317 103 l 308 121 l 307 150 l 308 183 l 310 208 l 310 338 l 307 382 l 310 419 l 311 444 l 318 453 l 335 461 l 374 482 l 431 507 l 481 528 l 525 549 l 553 563 l 561 578 l 553 606 l 543 626 l 538 635 l 533 643 l 528 646 l 522 646 l 514 644 l 496 639 l 461 621 l 439 611 l 394 590 l 374 582 l 340 567 l 321 558 l 313 567 l 311 600 l 311 639 l 313 660 l 315 676 l 315 711 l 313 753 l 314 783 l 314 860 l 315 894 l 314 919 l 315 935 l 315 950 l 301 967 l 264 972 l 239 972 l 228 967 l 224 960 l 221 946 l 218 913 l 221 869 l 219 825 l 219 794 l 218 779 l 219 765 l 217 738 l 217 701 l 215 657 l 215 542 l 201 506 l 181 497 l 151 486 l 129 475 l 97 461 l 82 454 l 75 447 l 71 440 l 71 424 l 83 404 l 94 383 l 108 371 l 133 372 l 163 382 l 176 390 l 210 407 l 214 407 l 214 393 l 211 365 l 214 315 l 215 283 l 214 221 l 214 104 l 210 71 l 211 39 l 214 22 l 219 10 l 253 3 l 293 -1 l 318 0 l 350 -1 l 385 0 l 411 0 l 438 3 l 456 0 l 581 0 l 597 -3 l 621 -3 l 665 -1 l 693 -1 l 726 0 l 746 -1 l 775 -1 l 803 -3 z "},"M":{"ha":1329,"x_min":0,"x_max":0,"o":"m 657 -10 l 681 -10 l 697 0 l 708 19 l 718 33 l 728 60 l 742 85 l 750 100 l 754 108 l 763 126 l 782 165 l 799 190 l 813 217 l 822 232 l 832 253 l 846 276 l 858 303 l 878 336 l 892 369 l 906 394 l 915 418 l 935 454 l 947 478 l 960 500 l 976 529 l 986 546 l 994 564 l 1018 611 l 1053 668 l 1060 676 l 1064 679 l 1071 679 l 1079 663 l 1081 629 l 1076 601 l 1081 579 l 1079 560 l 1079 531 l 1076 485 l 1076 383 l 1075 344 l 1071 306 l 1071 213 l 1074 163 l 1074 125 l 1071 85 l 1074 47 l 1071 28 l 1074 14 l 1085 1 l 1107 -3 l 1136 -3 l 1156 1 l 1165 13 l 1171 25 l 1171 119 l 1169 163 l 1171 208 l 1171 243 l 1168 257 l 1169 285 l 1168 321 l 1171 342 l 1171 396 l 1169 436 l 1172 476 l 1171 517 l 1175 564 l 1175 650 l 1176 699 l 1176 783 l 1175 804 l 1175 847 l 1174 899 l 1171 936 l 1161 961 l 1154 969 l 1144 974 l 1126 975 l 1110 963 l 1096 944 l 1075 913 l 1050 869 l 1021 808 l 1010 788 l 985 743 l 957 692 l 932 651 l 917 619 l 896 583 l 876 551 l 863 524 l 839 482 l 815 438 l 794 393 l 771 353 l 750 315 l 733 278 l 719 254 l 708 233 l 697 215 l 688 199 l 679 189 l 668 183 l 656 182 l 638 199 l 613 236 l 571 319 l 556 347 l 539 379 l 518 424 l 507 449 l 499 464 l 489 482 l 475 504 l 460 536 l 446 564 l 426 597 l 415 622 l 400 651 l 388 674 l 371 708 l 358 732 l 339 771 l 322 806 l 306 839 l 297 858 l 282 888 l 261 925 l 246 950 l 229 964 l 196 971 l 175 972 l 167 965 l 158 943 l 154 899 l 154 874 l 156 835 l 153 793 l 154 739 l 154 707 l 151 678 l 151 601 l 150 578 l 150 544 l 147 513 l 147 397 l 146 353 l 147 321 l 149 292 l 147 264 l 146 225 l 146 50 l 149 28 l 154 10 l 163 4 l 181 0 l 233 1 l 239 4 l 244 10 l 250 21 l 251 42 l 253 69 l 253 104 l 256 125 l 254 156 l 251 192 l 253 219 l 250 258 l 250 281 l 251 308 l 251 392 l 253 447 l 253 518 l 254 554 l 253 588 l 251 638 l 253 681 l 260 699 l 267 699 l 282 675 l 300 631 l 315 601 l 324 586 l 336 560 l 347 539 l 372 493 l 385 467 l 410 417 l 426 389 l 436 369 l 447 351 l 456 335 l 468 308 l 507 231 l 528 188 l 544 151 l 554 131 l 571 100 l 582 78 l 624 3 l 638 -6 z "},"N":{"ha":1092,"x_min":0,"x_max":0,"o":"m 896 -3 l 914 -1 l 926 1 l 936 7 l 942 32 l 940 57 l 939 97 l 940 140 l 940 182 l 943 222 l 938 260 l 940 282 l 942 314 l 943 342 l 943 413 l 942 444 l 944 485 l 942 518 l 942 589 l 943 607 l 942 640 l 942 694 l 943 740 l 943 789 l 946 821 l 944 850 l 944 893 l 943 925 l 944 942 l 942 957 l 935 964 l 924 969 l 908 972 l 888 974 l 869 972 l 861 969 l 850 963 l 847 933 l 846 893 l 844 849 l 844 824 l 843 788 l 846 758 l 843 713 l 842 678 l 847 650 l 847 608 l 846 572 l 843 540 l 843 463 l 846 411 l 846 344 l 843 321 l 843 293 l 842 264 l 843 233 l 839 210 l 833 203 l 826 206 l 815 215 l 800 233 l 789 250 l 751 296 l 733 319 l 667 408 l 632 450 l 601 488 l 576 522 l 561 542 l 531 583 l 499 628 l 465 668 l 451 686 l 419 732 l 389 767 l 368 796 l 331 840 l 311 869 l 278 911 l 256 943 l 243 954 l 228 967 l 196 975 l 174 964 l 167 951 l 164 922 l 164 822 l 163 779 l 164 740 l 160 708 l 160 624 l 158 565 l 158 497 l 157 476 l 154 425 l 156 379 l 154 347 l 157 313 l 156 269 l 154 242 l 156 182 l 154 124 l 154 53 l 157 25 l 163 11 l 178 1 l 203 0 l 224 0 l 238 4 l 249 14 l 251 36 l 251 65 l 253 90 l 251 106 l 253 121 l 254 140 l 251 164 l 253 178 l 253 199 l 254 228 l 254 296 l 256 324 l 256 397 l 258 435 l 257 458 l 256 497 l 260 529 l 260 649 l 258 682 l 257 706 l 258 725 l 260 743 l 261 758 l 267 760 l 278 753 l 289 742 l 310 717 l 339 676 l 363 647 l 378 626 l 401 594 l 429 560 l 449 532 l 474 501 l 496 472 l 517 449 l 539 418 l 568 379 l 583 358 l 622 310 l 638 289 l 664 257 l 701 208 l 718 186 l 750 147 l 767 125 l 785 99 l 806 76 l 821 58 l 843 29 l 857 13 l 860 8 l 874 0 z "},"Ń":{"ha":1092,"x_min":0,"x_max":0,"o":"m 896 -3 l 914 -1 l 926 1 l 936 7 l 942 32 l 940 57 l 939 97 l 940 140 l 940 182 l 943 222 l 938 260 l 940 282 l 942 314 l 943 342 l 943 413 l 942 444 l 944 485 l 942 518 l 942 589 l 943 607 l 942 640 l 942 694 l 943 740 l 943 789 l 946 821 l 944 850 l 944 893 l 943 925 l 944 942 l 942 957 l 935 964 l 924 969 l 908 972 l 888 974 l 869 972 l 861 969 l 850 963 l 847 933 l 846 893 l 844 849 l 844 824 l 843 788 l 846 758 l 843 713 l 842 678 l 847 650 l 847 608 l 846 572 l 843 540 l 843 463 l 846 411 l 846 344 l 843 321 l 843 293 l 842 264 l 843 233 l 839 210 l 833 203 l 826 206 l 815 215 l 800 233 l 789 250 l 751 296 l 733 319 l 667 408 l 632 450 l 601 488 l 576 522 l 561 542 l 531 583 l 499 628 l 465 668 l 451 686 l 419 732 l 389 767 l 368 796 l 331 840 l 311 869 l 278 911 l 256 943 l 243 954 l 228 967 l 196 975 l 174 964 l 167 951 l 164 922 l 164 822 l 163 779 l 164 740 l 160 708 l 160 624 l 158 565 l 158 497 l 157 476 l 154 425 l 156 379 l 154 347 l 157 313 l 156 269 l 154 242 l 156 182 l 154 124 l 154 53 l 157 25 l 163 11 l 178 1 l 203 0 l 224 0 l 238 4 l 249 14 l 251 36 l 251 65 l 253 90 l 251 106 l 253 121 l 254 140 l 251 164 l 253 178 l 253 199 l 254 228 l 254 296 l 256 324 l 256 397 l 258 435 l 257 458 l 256 497 l 260 529 l 260 649 l 258 682 l 257 706 l 258 725 l 260 743 l 261 758 l 267 760 l 278 753 l 289 742 l 310 717 l 339 676 l 363 647 l 378 626 l 401 594 l 429 560 l 449 532 l 474 501 l 496 472 l 517 449 l 539 418 l 568 379 l 583 358 l 622 310 l 638 289 l 664 257 l 701 208 l 718 186 l 750 147 l 767 125 l 785 99 l 806 76 l 821 58 l 843 29 l 857 13 l 860 8 l 874 0 z m 556 1092 l 565 1096 l 586 1111 l 608 1136 l 632 1161 l 664 1193 l 679 1210 l 711 1243 l 731 1264 l 738 1286 l 731 1304 l 699 1336 l 688 1343 l 674 1344 l 649 1326 l 628 1307 l 608 1292 l 586 1274 l 571 1257 l 557 1246 l 543 1229 l 500 1188 l 485 1169 l 478 1156 l 481 1140 l 489 1122 l 514 1104 l 539 1094 z "},"Ň":{"ha":1092,"x_min":0,"x_max":0,"o":"m 896 -3 l 914 -1 l 926 1 l 936 7 l 942 32 l 940 57 l 939 97 l 940 140 l 940 182 l 943 222 l 938 260 l 940 282 l 942 314 l 943 342 l 943 413 l 942 444 l 944 485 l 942 518 l 942 589 l 943 607 l 942 640 l 942 694 l 943 740 l 943 789 l 946 821 l 944 850 l 944 893 l 943 925 l 944 942 l 942 957 l 935 964 l 924 969 l 908 972 l 888 974 l 869 972 l 861 969 l 850 963 l 847 933 l 846 893 l 844 849 l 844 824 l 843 788 l 846 758 l 843 713 l 842 678 l 847 650 l 847 608 l 846 572 l 843 540 l 843 463 l 846 411 l 846 344 l 843 321 l 843 293 l 842 264 l 843 233 l 839 210 l 833 203 l 826 206 l 815 215 l 800 233 l 789 250 l 751 296 l 733 319 l 667 408 l 632 450 l 601 488 l 576 522 l 561 542 l 531 583 l 499 628 l 465 668 l 451 686 l 419 732 l 389 767 l 368 796 l 331 840 l 311 869 l 278 911 l 256 943 l 243 954 l 228 967 l 196 975 l 174 964 l 167 951 l 164 922 l 164 822 l 163 779 l 164 740 l 160 708 l 160 624 l 158 565 l 158 497 l 157 476 l 154 425 l 156 379 l 154 347 l 157 313 l 156 269 l 154 242 l 156 182 l 154 124 l 154 53 l 157 25 l 163 11 l 178 1 l 203 0 l 224 0 l 238 4 l 249 14 l 251 36 l 251 65 l 253 90 l 251 106 l 253 121 l 254 140 l 251 164 l 253 178 l 253 199 l 254 228 l 254 296 l 256 324 l 256 397 l 258 435 l 257 458 l 256 497 l 260 529 l 260 649 l 258 682 l 257 706 l 258 725 l 260 743 l 261 758 l 267 760 l 278 753 l 289 742 l 310 717 l 339 676 l 363 647 l 378 626 l 401 594 l 429 560 l 449 532 l 474 501 l 496 472 l 517 449 l 539 418 l 568 379 l 583 358 l 622 310 l 638 289 l 664 257 l 701 208 l 718 186 l 750 147 l 767 125 l 785 99 l 806 76 l 821 58 l 843 29 l 857 13 l 860 8 l 874 0 z m 550 1083 l 592 1096 l 631 1133 l 654 1161 l 669 1181 l 685 1197 l 701 1218 l 732 1247 l 757 1275 l 765 1301 l 756 1315 l 736 1329 l 713 1343 l 699 1344 l 686 1339 l 668 1325 l 643 1294 l 611 1263 l 592 1240 l 578 1224 l 558 1208 l 546 1208 l 528 1219 l 504 1246 l 474 1278 l 438 1322 l 408 1349 l 394 1350 l 381 1344 l 363 1331 l 347 1321 l 338 1308 l 342 1281 l 365 1251 l 383 1232 l 390 1219 l 406 1200 l 436 1168 l 450 1149 l 476 1114 l 499 1096 l 521 1085 z "},"Ņ":{"ha":1092,"x_min":0,"x_max":0,"o":"m 896 -3 l 914 -1 l 926 1 l 936 7 l 942 32 l 940 57 l 939 97 l 940 140 l 940 182 l 943 222 l 938 260 l 940 282 l 942 314 l 943 342 l 943 413 l 942 444 l 944 485 l 942 518 l 942 589 l 943 607 l 942 640 l 942 694 l 943 740 l 943 789 l 946 821 l 944 850 l 944 893 l 943 925 l 944 942 l 942 957 l 935 964 l 924 969 l 908 972 l 888 974 l 869 972 l 861 969 l 850 963 l 847 933 l 846 893 l 844 849 l 844 824 l 843 788 l 846 758 l 843 713 l 842 678 l 847 650 l 847 608 l 846 572 l 843 540 l 843 463 l 846 411 l 846 344 l 843 321 l 843 293 l 842 264 l 843 233 l 839 210 l 833 203 l 826 206 l 815 215 l 800 233 l 789 250 l 751 296 l 733 319 l 667 408 l 632 450 l 601 488 l 576 522 l 561 542 l 531 583 l 499 628 l 465 668 l 451 686 l 419 732 l 389 767 l 368 796 l 331 840 l 311 869 l 278 911 l 256 943 l 243 954 l 228 967 l 196 975 l 174 964 l 167 951 l 164 922 l 164 822 l 163 779 l 164 740 l 160 708 l 160 624 l 158 565 l 158 497 l 157 476 l 154 425 l 156 379 l 154 347 l 157 313 l 156 269 l 154 242 l 156 182 l 154 124 l 154 53 l 157 25 l 163 11 l 178 1 l 203 0 l 224 0 l 238 4 l 249 14 l 251 36 l 251 65 l 253 90 l 251 106 l 253 121 l 254 140 l 251 164 l 253 178 l 253 199 l 254 228 l 254 296 l 256 324 l 256 397 l 258 435 l 257 458 l 256 497 l 260 529 l 260 649 l 258 682 l 257 706 l 258 725 l 260 743 l 261 758 l 267 760 l 278 753 l 289 742 l 310 717 l 339 676 l 363 647 l 378 626 l 401 594 l 429 560 l 449 532 l 474 501 l 496 472 l 517 449 l 539 418 l 568 379 l 583 358 l 622 310 l 638 289 l 664 257 l 701 208 l 718 186 l 750 147 l 767 125 l 785 99 l 806 76 l 821 58 l 843 29 l 857 13 l 860 8 l 874 0 z m 525 -396 l 553 -392 l 567 -386 l 574 -379 l 583 -354 l 590 -321 l 599 -287 l 613 -235 l 618 -204 l 624 -172 l 621 -147 l 606 -136 l 564 -126 l 550 -126 l 533 -133 l 517 -172 l 504 -212 l 499 -236 l 493 -251 l 489 -274 l 481 -300 l 472 -332 l 467 -354 l 468 -368 l 478 -381 l 494 -392 z "},"Ŋ":{"ha":1090,"x_min":0,"x_max":0,"o":"m 785 -353 l 803 -350 l 851 -328 l 888 -300 l 908 -274 l 919 -254 l 926 -235 l 932 -219 l 936 -190 l 938 -172 l 939 -158 l 939 -92 l 940 -39 l 940 39 l 942 90 l 940 122 l 940 176 l 942 207 l 942 233 l 944 260 l 944 344 l 940 372 l 940 563 l 942 582 l 942 610 l 943 638 l 942 679 l 943 724 l 942 764 l 943 806 l 943 833 l 942 858 l 943 881 l 943 894 l 940 915 l 940 939 l 939 947 l 933 957 l 924 964 l 893 965 l 856 961 l 847 947 l 846 915 l 844 857 l 844 668 l 843 626 l 843 476 l 846 428 l 846 399 l 844 364 l 844 333 l 843 281 l 843 232 l 838 215 l 825 213 l 808 224 l 793 246 l 769 271 l 746 303 l 724 333 l 710 350 l 699 363 l 689 379 l 672 403 l 644 438 l 631 457 l 617 479 l 604 494 l 586 519 l 503 622 l 485 647 l 469 667 l 456 688 l 439 706 l 422 728 l 400 754 l 383 775 l 358 810 l 343 828 l 321 858 l 304 881 l 256 939 l 240 958 l 231 968 l 215 974 l 199 976 l 182 975 l 171 965 l 164 946 l 163 915 l 164 892 l 163 869 l 158 799 l 160 778 l 160 754 l 157 722 l 160 693 l 160 585 l 158 535 l 158 510 l 157 488 l 161 444 l 160 400 l 161 364 l 161 331 l 160 292 l 158 268 l 157 217 l 157 147 l 156 106 l 156 54 l 158 19 l 164 10 l 175 1 l 189 -1 l 213 0 l 240 0 l 254 4 l 260 15 l 261 29 l 257 56 l 257 201 l 258 238 l 261 261 l 261 304 l 263 351 l 263 449 l 260 469 l 261 501 l 263 550 l 261 603 l 263 653 l 261 675 l 263 719 l 271 743 l 275 746 l 290 739 l 314 713 l 335 686 l 357 656 l 375 633 l 390 614 l 408 593 l 428 568 l 449 544 l 465 522 l 489 493 l 517 456 l 554 406 l 589 360 l 608 336 l 625 310 l 657 265 l 681 231 l 710 193 l 743 149 l 760 122 l 801 76 l 822 43 l 832 13 l 835 -26 l 838 -49 l 839 -76 l 840 -135 l 838 -174 l 829 -203 l 811 -235 l 788 -246 l 761 -251 l 735 -249 l 711 -242 l 690 -229 l 668 -214 l 653 -208 l 636 -210 l 622 -215 l 617 -218 l 606 -226 l 593 -240 l 586 -254 l 589 -265 l 599 -286 l 614 -304 l 639 -321 l 664 -332 l 699 -344 l 735 -350 l 754 -350 z "},"Ñ":{"ha":1092,"x_min":0,"x_max":0,"o":"m 896 -3 l 914 -1 l 926 1 l 936 7 l 942 32 l 940 57 l 939 97 l 940 140 l 940 182 l 943 222 l 938 260 l 940 282 l 942 314 l 943 342 l 943 413 l 942 444 l 944 485 l 942 518 l 942 589 l 943 607 l 942 640 l 942 694 l 943 740 l 943 789 l 946 821 l 944 850 l 944 893 l 943 925 l 944 942 l 942 957 l 935 964 l 924 969 l 908 972 l 888 974 l 869 972 l 861 969 l 850 963 l 847 933 l 846 893 l 844 849 l 844 824 l 843 788 l 846 758 l 843 713 l 842 678 l 847 650 l 847 608 l 846 572 l 843 540 l 843 463 l 846 411 l 846 344 l 843 321 l 843 293 l 842 264 l 843 233 l 839 210 l 833 203 l 826 206 l 815 215 l 800 233 l 789 250 l 751 296 l 733 319 l 667 408 l 632 450 l 601 488 l 576 522 l 561 542 l 531 583 l 499 628 l 465 668 l 451 686 l 419 732 l 389 767 l 368 796 l 331 840 l 311 869 l 278 911 l 256 943 l 243 954 l 228 967 l 196 975 l 174 964 l 167 951 l 164 922 l 164 822 l 163 779 l 164 740 l 160 708 l 160 624 l 158 565 l 158 497 l 157 476 l 154 425 l 156 379 l 154 347 l 157 313 l 156 269 l 154 242 l 156 182 l 154 124 l 154 53 l 157 25 l 163 11 l 178 1 l 203 0 l 224 0 l 238 4 l 249 14 l 251 36 l 251 65 l 253 90 l 251 106 l 253 121 l 254 140 l 251 164 l 253 178 l 253 199 l 254 228 l 254 296 l 256 324 l 256 397 l 258 435 l 257 458 l 256 497 l 260 529 l 260 649 l 258 682 l 257 706 l 258 725 l 260 743 l 261 758 l 267 760 l 278 753 l 289 742 l 310 717 l 339 676 l 363 647 l 378 626 l 401 594 l 429 560 l 449 532 l 474 501 l 496 472 l 517 449 l 539 418 l 568 379 l 583 358 l 622 310 l 638 289 l 664 257 l 701 208 l 718 186 l 750 147 l 767 125 l 785 99 l 806 76 l 821 58 l 843 29 l 857 13 l 860 8 l 874 0 z m 653 1110 l 669 1111 l 683 1114 l 696 1118 l 715 1129 l 735 1142 l 754 1163 l 765 1179 l 769 1188 l 772 1196 l 776 1206 l 781 1228 l 776 1254 l 765 1269 l 749 1275 l 715 1276 l 693 1271 l 685 1264 l 672 1242 l 664 1218 l 651 1210 l 632 1215 l 618 1224 l 604 1235 l 589 1257 l 575 1276 l 561 1288 l 533 1306 l 511 1319 l 500 1322 l 482 1326 l 468 1328 l 460 1326 l 442 1325 l 421 1321 l 403 1314 l 382 1300 l 364 1285 l 358 1275 l 350 1264 l 342 1250 l 338 1239 l 331 1224 l 329 1207 l 331 1194 l 333 1183 l 338 1174 l 347 1165 l 365 1157 l 389 1154 l 407 1160 l 424 1169 l 432 1190 l 440 1210 l 450 1221 l 468 1225 l 488 1217 l 515 1186 l 524 1178 l 528 1171 l 544 1154 l 568 1136 l 601 1122 l 632 1113 z "},"O":{"ha":1190,"x_min":0,"x_max":0,"o":"m 632 -32 l 654 -28 l 667 -26 l 686 -24 l 710 -21 l 738 -14 l 782 4 l 807 14 l 838 28 l 864 44 l 944 100 l 993 149 l 1015 179 l 1032 206 l 1051 236 l 1072 286 l 1089 349 l 1101 408 l 1106 442 l 1107 469 l 1104 524 l 1103 560 l 1099 579 l 1089 621 l 1082 646 l 1065 699 l 1043 742 l 1025 776 l 1006 804 l 992 817 l 975 835 l 942 868 l 875 918 l 857 926 l 832 942 l 789 957 l 751 972 l 725 978 l 699 986 l 653 993 l 611 997 l 586 999 l 571 1000 l 557 1000 l 529 996 l 499 993 l 467 985 l 429 974 l 396 963 l 376 956 l 357 946 l 333 931 l 297 910 l 274 893 l 233 854 l 176 785 l 165 767 l 158 754 l 139 724 l 114 657 l 108 640 l 100 613 l 94 579 l 89 554 l 83 518 l 83 471 l 88 435 l 89 403 l 94 375 l 100 351 l 107 324 l 117 292 l 129 267 l 143 235 l 160 211 l 172 190 l 188 172 l 197 158 l 253 100 l 275 81 l 297 65 l 326 47 l 357 32 l 382 17 l 424 0 l 443 -7 l 467 -14 l 496 -21 l 532 -28 l 592 -31 z m 600 64 l 546 69 l 510 75 l 497 78 l 465 86 l 431 101 l 400 117 l 365 139 l 338 160 l 308 182 l 275 218 l 253 249 l 236 276 l 226 297 l 211 332 l 199 369 l 189 408 l 188 433 l 188 458 l 185 493 l 190 557 l 201 604 l 211 639 l 224 661 l 240 693 l 261 728 l 288 765 l 303 783 l 325 806 l 361 832 l 375 844 l 390 854 l 424 869 l 464 886 l 494 893 l 521 897 l 582 900 l 622 903 l 654 900 l 679 896 l 719 886 l 747 876 l 765 869 l 796 853 l 818 840 l 844 822 l 875 796 l 922 751 l 949 711 l 965 678 l 979 642 l 990 608 l 997 582 l 1003 551 l 1004 514 l 1007 488 l 1007 447 l 1003 418 l 999 382 l 989 350 l 981 322 l 965 289 l 940 250 l 919 219 l 882 182 l 851 154 l 839 147 l 821 133 l 797 119 l 764 103 l 714 85 l 682 76 l 667 75 l 656 74 l 632 68 z "},"Ó":{"ha":1190,"x_min":0,"x_max":0,"o":"m 632 -32 l 654 -28 l 667 -26 l 686 -24 l 710 -21 l 738 -14 l 782 4 l 807 14 l 838 28 l 864 44 l 944 100 l 993 149 l 1015 179 l 1032 206 l 1051 236 l 1072 286 l 1089 349 l 1101 408 l 1106 442 l 1107 469 l 1104 524 l 1103 560 l 1099 579 l 1089 621 l 1082 646 l 1065 699 l 1043 742 l 1025 776 l 1006 804 l 992 817 l 975 835 l 942 868 l 875 918 l 857 926 l 832 942 l 789 957 l 751 972 l 725 978 l 699 986 l 653 993 l 611 997 l 586 999 l 571 1000 l 557 1000 l 529 996 l 499 993 l 467 985 l 429 974 l 396 963 l 376 956 l 357 946 l 333 931 l 297 910 l 274 893 l 233 854 l 176 785 l 165 767 l 158 754 l 139 724 l 114 657 l 108 640 l 100 613 l 94 579 l 89 554 l 83 518 l 83 471 l 88 435 l 89 403 l 94 375 l 100 351 l 107 324 l 117 292 l 129 267 l 143 235 l 160 211 l 172 190 l 188 172 l 197 158 l 253 100 l 275 81 l 297 65 l 326 47 l 357 32 l 382 17 l 424 0 l 443 -7 l 467 -14 l 496 -21 l 532 -28 l 592 -31 z m 600 64 l 546 69 l 510 75 l 497 78 l 465 86 l 431 101 l 400 117 l 365 139 l 338 160 l 308 182 l 275 218 l 253 249 l 236 276 l 226 297 l 211 332 l 199 369 l 189 408 l 188 433 l 188 458 l 185 493 l 190 557 l 201 604 l 211 639 l 224 661 l 240 693 l 261 728 l 288 765 l 303 783 l 325 806 l 361 832 l 375 844 l 390 854 l 424 869 l 464 886 l 494 893 l 521 897 l 582 900 l 622 903 l 654 900 l 679 896 l 719 886 l 747 876 l 765 869 l 796 853 l 818 840 l 844 822 l 875 796 l 922 751 l 949 711 l 965 678 l 979 642 l 990 608 l 997 582 l 1003 551 l 1004 514 l 1007 488 l 1007 447 l 1003 418 l 999 382 l 989 350 l 981 322 l 965 289 l 940 250 l 919 219 l 882 182 l 851 154 l 839 147 l 821 133 l 797 119 l 764 103 l 714 85 l 682 76 l 667 75 l 656 74 l 632 68 z m 601 1092 l 611 1096 l 632 1111 l 654 1136 l 678 1161 l 710 1193 l 725 1210 l 757 1243 l 776 1264 l 783 1286 l 776 1304 l 744 1336 l 733 1343 l 719 1344 l 694 1326 l 674 1307 l 654 1292 l 632 1274 l 617 1257 l 603 1246 l 589 1229 l 546 1188 l 531 1169 l 524 1156 l 526 1140 l 535 1122 l 560 1104 l 585 1094 z "},"Ô":{"ha":1190,"x_min":0,"x_max":0,"o":"m 632 -32 l 654 -28 l 667 -26 l 686 -24 l 710 -21 l 738 -14 l 782 4 l 807 14 l 838 28 l 864 44 l 944 100 l 993 149 l 1015 179 l 1032 206 l 1051 236 l 1072 286 l 1089 349 l 1101 408 l 1106 442 l 1107 469 l 1104 524 l 1103 560 l 1099 579 l 1089 621 l 1082 646 l 1065 699 l 1043 742 l 1025 776 l 1006 804 l 992 817 l 975 835 l 942 868 l 875 918 l 857 926 l 832 942 l 789 957 l 751 972 l 725 978 l 699 986 l 653 993 l 611 997 l 586 999 l 571 1000 l 557 1000 l 529 996 l 499 993 l 467 985 l 429 974 l 396 963 l 376 956 l 357 946 l 333 931 l 297 910 l 274 893 l 233 854 l 176 785 l 165 767 l 158 754 l 139 724 l 114 657 l 108 640 l 100 613 l 94 579 l 89 554 l 83 518 l 83 471 l 88 435 l 89 403 l 94 375 l 100 351 l 107 324 l 117 292 l 129 267 l 143 235 l 160 211 l 172 190 l 188 172 l 197 158 l 253 100 l 275 81 l 297 65 l 326 47 l 357 32 l 382 17 l 424 0 l 443 -7 l 467 -14 l 496 -21 l 532 -28 l 592 -31 z m 600 64 l 546 69 l 510 75 l 497 78 l 465 86 l 431 101 l 400 117 l 365 139 l 338 160 l 308 182 l 275 218 l 253 249 l 236 276 l 226 297 l 211 332 l 199 369 l 189 408 l 188 433 l 188 458 l 185 493 l 190 557 l 201 604 l 211 639 l 224 661 l 240 693 l 261 728 l 288 765 l 303 783 l 325 806 l 361 832 l 375 844 l 390 854 l 424 869 l 464 886 l 494 893 l 521 897 l 582 900 l 622 903 l 654 900 l 679 896 l 719 886 l 747 876 l 765 869 l 796 853 l 818 840 l 844 822 l 875 796 l 922 751 l 949 711 l 965 678 l 979 642 l 990 608 l 997 582 l 1003 551 l 1004 514 l 1007 488 l 1007 447 l 1003 418 l 999 382 l 989 350 l 981 322 l 965 289 l 940 250 l 919 219 l 882 182 l 851 154 l 839 147 l 821 133 l 797 119 l 764 103 l 714 85 l 682 76 l 667 75 l 656 74 l 632 68 z m 440 1083 l 454 1085 l 483 1111 l 519 1156 l 550 1188 l 574 1214 l 592 1225 l 604 1225 l 624 1210 l 638 1193 l 657 1171 l 689 1139 l 714 1108 l 732 1094 l 744 1089 l 758 1090 l 782 1104 l 801 1118 l 811 1132 l 803 1158 l 778 1186 l 747 1215 l 731 1236 l 715 1253 l 700 1274 l 676 1300 l 638 1338 l 596 1350 l 567 1349 l 544 1338 l 522 1319 l 496 1285 l 482 1265 l 451 1233 l 436 1214 l 429 1201 l 411 1182 l 388 1153 l 383 1125 l 393 1114 l 408 1103 l 426 1089 z "},"Ö":{"ha":1190,"x_min":0,"x_max":0,"o":"m 632 -32 l 654 -28 l 667 -26 l 686 -24 l 710 -21 l 738 -14 l 782 4 l 807 14 l 838 28 l 864 44 l 944 100 l 993 149 l 1015 179 l 1032 206 l 1051 236 l 1072 286 l 1089 349 l 1101 408 l 1106 442 l 1107 469 l 1104 524 l 1103 560 l 1099 579 l 1089 621 l 1082 646 l 1065 699 l 1043 742 l 1025 776 l 1006 804 l 992 817 l 975 835 l 942 868 l 875 918 l 857 926 l 832 942 l 789 957 l 751 972 l 725 978 l 699 986 l 653 993 l 611 997 l 586 999 l 571 1000 l 557 1000 l 529 996 l 499 993 l 467 985 l 429 974 l 396 963 l 376 956 l 357 946 l 333 931 l 297 910 l 274 893 l 233 854 l 176 785 l 165 767 l 158 754 l 139 724 l 114 657 l 108 640 l 100 613 l 94 579 l 89 554 l 83 518 l 83 471 l 88 435 l 89 403 l 94 375 l 100 351 l 107 324 l 117 292 l 129 267 l 143 235 l 160 211 l 172 190 l 188 172 l 197 158 l 253 100 l 275 81 l 297 65 l 326 47 l 357 32 l 382 17 l 424 0 l 443 -7 l 467 -14 l 496 -21 l 532 -28 l 592 -31 z m 600 64 l 546 69 l 510 75 l 497 78 l 465 86 l 431 101 l 400 117 l 365 139 l 338 160 l 308 182 l 275 218 l 253 249 l 236 276 l 226 297 l 211 332 l 199 369 l 189 408 l 188 433 l 188 458 l 185 493 l 190 557 l 201 604 l 211 639 l 224 661 l 240 693 l 261 728 l 288 765 l 303 783 l 325 806 l 361 832 l 375 844 l 390 854 l 424 869 l 464 886 l 494 893 l 521 897 l 582 900 l 622 903 l 654 900 l 679 896 l 719 886 l 747 876 l 765 869 l 796 853 l 818 840 l 844 822 l 875 796 l 922 751 l 949 711 l 965 678 l 979 642 l 990 608 l 997 582 l 1003 551 l 1004 514 l 1007 488 l 1007 447 l 1003 418 l 999 382 l 989 350 l 981 322 l 965 289 l 940 250 l 919 219 l 882 182 l 851 154 l 839 147 l 821 133 l 797 119 l 764 103 l 714 85 l 682 76 l 667 75 l 656 74 l 632 68 z m 486 1142 l 510 1151 l 519 1161 l 529 1176 l 536 1197 l 536 1213 l 529 1239 l 513 1258 l 496 1269 l 474 1274 l 457 1271 l 444 1268 l 424 1253 l 411 1235 l 407 1221 l 407 1190 l 417 1167 l 426 1156 l 450 1146 z m 733 1142 l 757 1151 l 767 1161 l 776 1176 l 783 1197 l 783 1213 l 776 1239 l 760 1258 l 743 1269 l 721 1274 l 704 1271 l 692 1268 l 671 1253 l 658 1235 l 654 1221 l 654 1190 l 664 1167 l 674 1156 l 697 1146 z "},"Ò":{"ha":1190,"x_min":0,"x_max":0,"o":"m 632 -32 l 654 -28 l 667 -26 l 686 -24 l 710 -21 l 738 -14 l 782 4 l 807 14 l 838 28 l 864 44 l 944 100 l 993 149 l 1015 179 l 1032 206 l 1051 236 l 1072 286 l 1089 349 l 1101 408 l 1106 442 l 1107 469 l 1104 524 l 1103 560 l 1099 579 l 1089 621 l 1082 646 l 1065 699 l 1043 742 l 1025 776 l 1006 804 l 992 817 l 975 835 l 942 868 l 875 918 l 857 926 l 832 942 l 789 957 l 751 972 l 725 978 l 699 986 l 653 993 l 611 997 l 586 999 l 571 1000 l 557 1000 l 529 996 l 499 993 l 467 985 l 429 974 l 396 963 l 376 956 l 357 946 l 333 931 l 297 910 l 274 893 l 233 854 l 176 785 l 165 767 l 158 754 l 139 724 l 114 657 l 108 640 l 100 613 l 94 579 l 89 554 l 83 518 l 83 471 l 88 435 l 89 403 l 94 375 l 100 351 l 107 324 l 117 292 l 129 267 l 143 235 l 160 211 l 172 190 l 188 172 l 197 158 l 253 100 l 275 81 l 297 65 l 326 47 l 357 32 l 382 17 l 424 0 l 443 -7 l 467 -14 l 496 -21 l 532 -28 l 592 -31 z m 600 64 l 546 69 l 510 75 l 497 78 l 465 86 l 431 101 l 400 117 l 365 139 l 338 160 l 308 182 l 275 218 l 253 249 l 236 276 l 226 297 l 211 332 l 199 369 l 189 408 l 188 433 l 188 458 l 185 493 l 190 557 l 201 604 l 211 639 l 224 661 l 240 693 l 261 728 l 288 765 l 303 783 l 325 806 l 361 832 l 375 844 l 390 854 l 424 869 l 464 886 l 494 893 l 521 897 l 582 900 l 622 903 l 654 900 l 679 896 l 719 886 l 747 876 l 765 869 l 796 853 l 818 840 l 844 822 l 875 796 l 922 751 l 949 711 l 965 678 l 979 642 l 990 608 l 997 582 l 1003 551 l 1004 514 l 1007 488 l 1007 447 l 1003 418 l 999 382 l 989 350 l 981 322 l 965 289 l 940 250 l 919 219 l 882 182 l 851 154 l 839 147 l 821 133 l 797 119 l 764 103 l 714 85 l 682 76 l 667 75 l 656 74 l 632 68 z m 590 1092 l 606 1094 l 632 1103 l 656 1122 l 665 1140 l 667 1156 l 661 1169 l 646 1188 l 603 1229 l 588 1246 l 575 1257 l 558 1272 l 538 1292 l 519 1307 l 497 1326 l 472 1344 l 458 1343 l 447 1335 l 428 1318 l 414 1304 l 407 1286 l 415 1264 l 435 1243 l 481 1193 l 538 1136 l 560 1111 l 581 1094 z "},"Ő":{"ha":1190,"x_min":0,"x_max":0,"o":"m 632 -32 l 654 -28 l 667 -26 l 686 -24 l 710 -21 l 738 -14 l 782 4 l 807 14 l 838 28 l 864 44 l 944 100 l 993 149 l 1015 179 l 1032 206 l 1051 236 l 1072 286 l 1089 349 l 1101 408 l 1106 442 l 1107 469 l 1104 524 l 1103 560 l 1099 579 l 1089 621 l 1082 646 l 1065 699 l 1043 742 l 1025 776 l 1006 804 l 992 817 l 975 835 l 942 868 l 875 918 l 857 926 l 832 942 l 789 957 l 751 972 l 725 978 l 699 986 l 653 993 l 611 997 l 586 999 l 571 1000 l 557 1000 l 529 996 l 499 993 l 467 985 l 429 974 l 396 963 l 376 956 l 357 946 l 333 931 l 297 910 l 274 893 l 233 854 l 176 785 l 165 767 l 158 754 l 139 724 l 114 657 l 108 640 l 100 613 l 94 579 l 89 554 l 83 518 l 83 471 l 88 435 l 89 403 l 94 375 l 100 351 l 107 324 l 117 292 l 129 267 l 143 235 l 160 211 l 172 190 l 188 172 l 197 158 l 253 100 l 275 81 l 297 65 l 326 47 l 357 32 l 382 17 l 424 0 l 443 -7 l 467 -14 l 496 -21 l 532 -28 l 592 -31 z m 600 64 l 546 69 l 510 75 l 497 78 l 465 86 l 431 101 l 400 117 l 365 139 l 338 160 l 308 182 l 275 218 l 253 249 l 236 276 l 226 297 l 211 332 l 199 369 l 189 408 l 188 433 l 188 458 l 185 493 l 190 557 l 201 604 l 211 639 l 224 661 l 240 693 l 261 728 l 288 765 l 303 783 l 325 806 l 361 832 l 375 844 l 390 854 l 424 869 l 464 886 l 494 893 l 521 897 l 582 900 l 622 903 l 654 900 l 679 896 l 719 886 l 747 876 l 765 869 l 796 853 l 818 840 l 844 822 l 875 796 l 922 751 l 949 711 l 965 678 l 979 642 l 990 608 l 997 582 l 1003 551 l 1004 514 l 1007 488 l 1007 447 l 1003 418 l 999 382 l 989 350 l 981 322 l 965 289 l 940 250 l 919 219 l 882 182 l 851 154 l 839 147 l 821 133 l 797 119 l 764 103 l 714 85 l 682 76 l 667 75 l 656 74 l 632 68 z m 489 1083 l 506 1085 l 514 1089 l 532 1110 l 550 1138 l 569 1167 l 594 1203 l 608 1222 l 632 1260 l 647 1285 l 651 1308 l 642 1324 l 626 1336 l 604 1349 l 592 1354 l 578 1354 l 557 1332 l 539 1310 l 524 1292 l 492 1250 l 481 1236 l 469 1218 l 435 1168 l 422 1149 l 419 1135 l 424 1119 l 436 1103 l 463 1089 z m 697 1083 l 714 1085 l 722 1089 l 740 1110 l 758 1138 l 778 1167 l 803 1203 l 817 1222 l 840 1260 l 856 1285 l 860 1308 l 850 1324 l 835 1336 l 813 1349 l 800 1354 l 786 1354 l 765 1332 l 747 1310 l 732 1292 l 700 1250 l 689 1236 l 678 1218 l 643 1168 l 631 1149 l 628 1135 l 632 1119 l 644 1103 l 671 1089 z "},"Ō":{"ha":1190,"x_min":0,"x_max":0,"o":"m 632 -32 l 654 -28 l 667 -26 l 686 -24 l 710 -21 l 738 -14 l 782 4 l 807 14 l 838 28 l 864 44 l 944 100 l 993 149 l 1015 179 l 1032 206 l 1051 236 l 1072 286 l 1089 349 l 1101 408 l 1106 442 l 1107 469 l 1104 524 l 1103 560 l 1099 579 l 1089 621 l 1082 646 l 1065 699 l 1043 742 l 1025 776 l 1006 804 l 992 817 l 975 835 l 942 868 l 875 918 l 857 926 l 832 942 l 789 957 l 751 972 l 725 978 l 699 986 l 653 993 l 611 997 l 586 999 l 571 1000 l 557 1000 l 529 996 l 499 993 l 467 985 l 429 974 l 396 963 l 376 956 l 357 946 l 333 931 l 297 910 l 274 893 l 233 854 l 176 785 l 165 767 l 158 754 l 139 724 l 114 657 l 108 640 l 100 613 l 94 579 l 89 554 l 83 518 l 83 471 l 88 435 l 89 403 l 94 375 l 100 351 l 107 324 l 117 292 l 129 267 l 143 235 l 160 211 l 172 190 l 188 172 l 197 158 l 253 100 l 275 81 l 297 65 l 326 47 l 357 32 l 382 17 l 424 0 l 443 -7 l 467 -14 l 496 -21 l 532 -28 l 592 -31 z m 600 64 l 546 69 l 510 75 l 497 78 l 465 86 l 431 101 l 400 117 l 365 139 l 338 160 l 308 182 l 275 218 l 253 249 l 236 276 l 226 297 l 211 332 l 199 369 l 189 408 l 188 433 l 188 458 l 185 493 l 190 557 l 201 604 l 211 639 l 224 661 l 240 693 l 261 728 l 288 765 l 303 783 l 325 806 l 361 832 l 375 844 l 390 854 l 424 869 l 464 886 l 494 893 l 521 897 l 582 900 l 622 903 l 654 900 l 679 896 l 719 886 l 747 876 l 765 869 l 796 853 l 818 840 l 844 822 l 875 796 l 922 751 l 949 711 l 965 678 l 979 642 l 990 608 l 997 582 l 1003 551 l 1004 514 l 1007 488 l 1007 447 l 1003 418 l 999 382 l 989 350 l 981 322 l 965 289 l 940 250 l 919 219 l 882 182 l 851 154 l 839 147 l 821 133 l 797 119 l 764 103 l 714 85 l 682 76 l 667 75 l 656 74 l 632 68 z m 732 1156 l 763 1157 l 776 1169 l 779 1192 l 778 1217 l 771 1242 l 763 1250 l 751 1254 l 740 1257 l 708 1257 l 674 1256 l 651 1257 l 617 1256 l 582 1257 l 519 1257 l 476 1260 l 450 1258 l 431 1257 l 418 1243 l 411 1224 l 411 1214 l 414 1197 l 418 1179 l 424 1168 l 435 1161 l 444 1160 l 513 1160 l 597 1161 l 683 1158 z "},"Ø":{"ha":1203,"x_min":0,"x_max":0,"o":"m 539 -29 l 583 -29 l 626 -26 l 667 -22 l 700 -17 l 719 -12 l 742 -6 l 771 3 l 801 13 l 850 35 l 883 53 l 896 61 l 921 81 l 956 106 l 982 132 l 1013 167 l 1025 188 l 1039 211 l 1051 236 l 1064 271 l 1074 296 l 1088 336 l 1101 381 l 1106 418 l 1108 453 l 1108 508 l 1104 539 l 1103 571 l 1096 603 l 1092 632 l 1090 643 l 1076 675 l 1067 703 l 1051 740 l 1038 765 l 1024 793 l 1022 810 l 1036 828 l 1069 860 l 1100 886 l 1113 900 l 1118 908 l 1119 922 l 1101 949 l 1076 971 l 1058 972 l 1043 961 l 1010 932 l 988 907 l 965 892 l 957 886 l 944 886 l 928 893 l 889 917 l 832 947 l 800 963 l 746 981 l 696 992 l 636 997 l 579 1000 l 564 1000 l 529 997 l 481 986 l 457 979 l 396 957 l 343 935 l 319 921 l 290 900 l 271 885 l 263 875 l 240 854 l 208 819 l 190 793 l 169 765 l 154 743 l 140 717 l 126 679 l 113 640 l 100 599 l 97 567 l 93 544 l 92 506 l 88 460 l 88 438 l 92 417 l 94 383 l 100 363 l 106 344 l 121 300 l 140 243 l 163 206 l 172 189 l 174 174 l 169 160 l 161 146 l 144 129 l 122 106 l 100 86 l 83 63 l 90 35 l 107 21 l 126 7 l 146 6 l 157 11 l 225 67 l 249 78 l 274 79 l 310 63 l 343 38 l 367 25 l 393 13 l 436 -3 l 486 -19 l 515 -25 z m 597 63 l 558 64 l 521 72 l 474 86 l 447 96 l 426 103 l 400 117 l 372 132 l 354 153 l 350 175 l 367 199 l 400 224 l 436 261 l 467 290 l 493 319 l 529 350 l 585 401 l 622 439 l 647 463 l 676 488 l 742 553 l 761 568 l 790 597 l 849 647 l 871 671 l 886 683 l 907 700 l 925 708 l 938 708 l 954 694 l 972 661 l 985 626 l 994 593 l 1006 526 l 1007 496 l 1007 456 l 1000 406 l 990 360 l 975 321 l 961 288 l 950 264 l 939 249 l 918 214 l 879 172 l 861 157 l 828 133 l 776 104 l 729 88 l 679 75 l 647 68 l 625 65 z m 269 258 l 254 261 l 236 282 l 219 325 l 208 354 l 203 374 l 199 394 l 194 424 l 193 447 l 192 475 l 193 513 l 197 549 l 199 568 l 204 586 l 206 599 l 213 618 l 218 639 l 232 672 l 257 714 l 271 735 l 278 743 l 290 760 l 308 782 l 328 803 l 363 831 l 388 846 l 415 863 l 449 879 l 482 890 l 521 900 l 557 904 l 582 906 l 632 904 l 676 900 l 710 892 l 751 881 l 796 860 l 817 849 l 842 831 l 851 821 l 857 808 l 856 792 l 847 781 l 839 775 l 818 757 l 771 713 l 751 693 l 733 679 l 710 653 l 679 625 l 653 600 l 628 579 l 603 557 l 590 547 l 574 533 l 544 508 l 522 486 l 501 468 l 476 443 l 443 411 l 425 392 l 379 346 l 344 314 l 326 294 l 313 286 l 292 269 z "},"Õ":{"ha":1190,"x_min":0,"x_max":0,"o":"m 632 -32 l 654 -28 l 667 -26 l 686 -24 l 710 -21 l 738 -14 l 782 4 l 807 14 l 838 28 l 864 44 l 944 100 l 993 149 l 1015 179 l 1032 206 l 1051 236 l 1072 286 l 1089 349 l 1101 408 l 1106 442 l 1107 469 l 1104 524 l 1103 560 l 1099 579 l 1089 621 l 1082 646 l 1065 699 l 1043 742 l 1025 776 l 1006 804 l 992 817 l 975 835 l 942 868 l 875 918 l 857 926 l 832 942 l 789 957 l 751 972 l 725 978 l 699 986 l 653 993 l 611 997 l 586 999 l 571 1000 l 557 1000 l 529 996 l 499 993 l 467 985 l 429 974 l 396 963 l 376 956 l 357 946 l 333 931 l 297 910 l 274 893 l 233 854 l 176 785 l 165 767 l 158 754 l 139 724 l 114 657 l 108 640 l 100 613 l 94 579 l 89 554 l 83 518 l 83 471 l 88 435 l 89 403 l 94 375 l 100 351 l 107 324 l 117 292 l 129 267 l 143 235 l 160 211 l 172 190 l 188 172 l 197 158 l 253 100 l 275 81 l 297 65 l 326 47 l 357 32 l 382 17 l 424 0 l 443 -7 l 467 -14 l 496 -21 l 532 -28 l 592 -31 z m 600 64 l 546 69 l 510 75 l 497 78 l 465 86 l 431 101 l 400 117 l 365 139 l 338 160 l 308 182 l 275 218 l 253 249 l 236 276 l 226 297 l 211 332 l 199 369 l 189 408 l 188 433 l 188 458 l 185 493 l 190 557 l 201 604 l 211 639 l 224 661 l 240 693 l 261 728 l 288 765 l 303 783 l 325 806 l 361 832 l 375 844 l 390 854 l 424 869 l 464 886 l 494 893 l 521 897 l 582 900 l 622 903 l 654 900 l 679 896 l 719 886 l 747 876 l 765 869 l 796 853 l 818 840 l 844 822 l 875 796 l 922 751 l 949 711 l 965 678 l 979 642 l 990 608 l 997 582 l 1003 551 l 1004 514 l 1007 488 l 1007 447 l 1003 418 l 999 382 l 989 350 l 981 322 l 965 289 l 940 250 l 919 219 l 882 182 l 851 154 l 839 147 l 821 133 l 797 119 l 764 103 l 714 85 l 682 76 l 667 75 l 656 74 l 632 68 z m 699 1110 l 715 1111 l 729 1114 l 742 1118 l 761 1129 l 781 1142 l 800 1163 l 811 1179 l 815 1188 l 818 1196 l 822 1206 l 826 1228 l 822 1254 l 811 1269 l 794 1275 l 761 1276 l 739 1271 l 731 1264 l 718 1242 l 710 1218 l 697 1210 l 678 1215 l 664 1224 l 650 1235 l 635 1257 l 621 1276 l 607 1288 l 579 1306 l 557 1319 l 546 1322 l 528 1326 l 514 1328 l 506 1326 l 488 1325 l 467 1321 l 449 1314 l 428 1300 l 410 1285 l 404 1275 l 396 1264 l 388 1250 l 383 1239 l 376 1224 l 375 1207 l 376 1194 l 379 1183 l 383 1174 l 393 1165 l 411 1157 l 435 1154 l 453 1160 l 469 1169 l 478 1190 l 486 1210 l 496 1221 l 514 1225 l 533 1217 l 561 1186 l 569 1178 l 574 1171 l 590 1154 l 614 1136 l 647 1122 l 678 1113 z "},"Œ":{"ha":1824,"x_min":0,"x_max":0,"o":"m 607 -21 l 646 -19 l 715 -11 l 744 -4 l 793 11 l 818 21 l 849 36 l 879 56 l 908 82 l 940 113 l 968 136 l 974 142 l 983 146 l 996 150 l 1006 140 l 1008 113 l 1006 85 l 1004 53 l 1006 21 l 1011 7 l 1025 0 l 1060 -3 l 1096 -3 l 1124 -6 l 1160 -6 l 1196 -8 l 1249 -6 l 1303 -8 l 1332 -8 l 1350 -11 l 1375 -11 l 1399 -12 l 1469 -15 l 1510 -15 l 1525 -17 l 1549 -14 l 1582 -17 l 1621 -12 l 1692 -12 l 1717 -11 l 1732 -6 l 1744 14 l 1747 39 l 1743 67 l 1732 76 l 1701 82 l 1678 83 l 1622 83 l 1569 86 l 1532 85 l 1503 85 l 1467 88 l 1419 85 l 1351 85 l 1325 86 l 1281 90 l 1217 90 l 1178 89 l 1153 92 l 1131 93 l 1119 94 l 1114 97 l 1108 107 l 1104 138 l 1104 251 l 1108 304 l 1108 356 l 1107 385 l 1107 399 l 1108 419 l 1114 436 l 1119 444 l 1131 450 l 1149 451 l 1211 454 l 1242 453 l 1289 454 l 1328 453 l 1364 454 l 1428 451 l 1442 450 l 1478 449 l 1503 449 l 1543 450 l 1564 456 l 1572 469 l 1575 497 l 1576 518 l 1574 531 l 1563 542 l 1554 544 l 1539 544 l 1475 550 l 1454 551 l 1436 551 l 1407 550 l 1286 550 l 1260 553 l 1218 553 l 1178 554 l 1164 556 l 1122 561 l 1117 568 l 1111 589 l 1110 624 l 1111 649 l 1110 672 l 1113 694 l 1113 718 l 1114 763 l 1114 854 l 1117 863 l 1125 871 l 1139 875 l 1158 875 l 1192 872 l 1236 875 l 1290 872 l 1353 876 l 1396 874 l 1439 878 l 1478 874 l 1501 872 l 1538 872 l 1565 869 l 1631 867 l 1663 868 l 1704 868 l 1725 869 l 1736 874 l 1746 889 l 1747 900 l 1747 939 l 1742 951 l 1726 960 l 1706 963 l 1679 964 l 1618 964 l 1585 965 l 1544 964 l 1507 967 l 1443 969 l 1413 968 l 1351 971 l 1333 974 l 1297 971 l 1267 972 l 1249 971 l 1204 969 l 1169 972 l 1146 971 l 1117 972 l 1093 972 l 1067 975 l 1047 975 l 1038 972 l 1028 967 l 1021 950 l 1018 932 l 1017 896 l 1015 861 l 1015 847 l 1014 831 l 1008 819 l 999 822 l 978 840 l 921 893 l 893 914 l 849 942 l 811 960 l 788 971 l 763 982 l 738 990 l 700 1000 l 617 1010 l 569 1010 l 535 1007 l 511 1004 l 488 1000 l 465 994 l 415 975 l 394 967 l 368 958 l 336 939 l 310 924 l 271 896 l 239 868 l 208 839 l 188 811 l 174 792 l 158 768 l 153 758 l 144 744 l 131 715 l 119 692 l 110 658 l 99 613 l 92 571 l 88 549 l 83 493 l 83 449 l 88 433 l 88 418 l 92 401 l 96 382 l 103 354 l 114 324 l 126 292 l 146 247 l 172 201 l 201 167 l 228 135 l 256 106 l 308 64 l 324 56 l 338 46 l 357 35 l 390 19 l 449 0 l 518 -15 l 567 -19 z m 569 69 l 528 76 l 494 85 l 435 106 l 411 117 l 386 126 l 363 144 l 336 164 l 311 189 l 300 203 l 274 236 l 258 258 l 238 292 l 229 313 l 215 342 l 206 374 l 199 399 l 192 433 l 183 486 l 185 518 l 190 567 l 199 599 l 208 632 l 221 668 l 231 693 l 246 721 l 258 742 l 289 779 l 322 810 l 360 842 l 408 871 l 454 890 l 494 906 l 542 910 l 565 910 l 615 908 l 656 906 l 733 888 l 758 879 l 817 850 l 840 832 l 861 818 l 882 800 l 894 788 l 926 750 l 946 726 l 960 703 l 967 685 l 972 671 l 976 658 l 981 642 l 993 615 l 1000 586 l 1004 542 l 1006 514 l 1004 464 l 1003 431 l 1000 417 l 999 403 l 992 376 l 985 356 l 974 326 l 964 304 l 950 279 l 931 249 l 901 214 l 881 192 l 849 160 l 815 133 l 786 118 l 751 104 l 729 96 l 717 93 l 664 81 l 615 74 z "},"P":{"ha":1042,"x_min":0,"x_max":0,"o":"m 221 -1 l 246 1 l 254 14 l 254 43 l 256 88 l 256 129 l 258 172 l 257 201 l 260 228 l 260 260 l 261 290 l 261 325 l 265 365 l 268 393 l 272 403 l 282 411 l 297 415 l 333 414 l 524 414 l 565 410 l 594 411 l 628 411 l 668 408 l 700 408 l 731 410 l 775 415 l 804 424 l 840 444 l 865 463 l 879 474 l 894 489 l 906 501 l 917 522 l 928 542 l 936 563 l 946 589 l 953 625 l 957 663 l 958 704 l 957 731 l 953 760 l 947 786 l 928 844 l 908 874 l 894 892 l 853 924 l 819 943 l 803 950 l 774 957 l 750 961 l 703 968 l 676 969 l 649 972 l 608 974 l 549 975 l 444 975 l 421 976 l 360 975 l 313 976 l 256 979 l 211 978 l 193 978 l 179 972 l 172 964 l 168 950 l 165 924 l 165 772 l 164 729 l 161 700 l 161 564 l 160 521 l 157 482 l 157 442 l 156 417 l 156 399 l 158 364 l 156 339 l 156 263 l 154 221 l 154 58 l 156 26 l 158 14 l 171 1 l 188 1 l 200 0 z m 669 499 l 646 500 l 603 500 l 551 503 l 521 503 l 458 506 l 418 506 l 317 510 l 297 513 l 286 513 l 278 515 l 265 529 l 261 553 l 263 583 l 261 619 l 263 646 l 263 710 l 265 744 l 265 818 l 269 844 l 274 863 l 278 867 l 297 868 l 340 869 l 368 868 l 450 868 l 515 871 l 535 869 l 549 869 l 569 871 l 592 871 l 608 872 l 650 874 l 692 874 l 707 872 l 767 863 l 792 850 l 817 831 l 832 813 l 846 783 l 857 743 l 861 715 l 861 685 l 860 651 l 856 621 l 851 600 l 844 579 l 831 560 l 815 543 l 794 528 l 776 517 l 751 507 l 731 504 l 707 500 z "},"Þ":{"ha":1043,"x_min":0,"x_max":0,"o":"m 225 -3 l 244 3 l 251 18 l 254 32 l 256 53 l 254 86 l 254 111 l 253 138 l 253 165 l 257 182 l 261 203 l 271 219 l 283 224 l 299 225 l 328 225 l 354 226 l 382 226 l 419 225 l 468 225 l 521 221 l 554 221 l 576 224 l 621 221 l 685 222 l 747 225 l 782 232 l 814 243 l 838 256 l 876 285 l 896 306 l 904 315 l 915 333 l 932 364 l 946 407 l 953 432 l 958 463 l 960 488 l 960 518 l 958 542 l 954 569 l 947 600 l 935 639 l 921 667 l 893 704 l 861 731 l 832 750 l 786 771 l 758 776 l 739 782 l 701 786 l 667 783 l 643 785 l 622 783 l 585 786 l 531 786 l 504 788 l 396 788 l 364 790 l 325 792 l 301 797 l 282 806 l 271 818 l 267 826 l 267 915 l 265 950 l 257 967 l 243 972 l 215 975 l 186 971 l 174 963 l 169 944 l 167 907 l 165 883 l 165 838 l 163 800 l 163 682 l 165 663 l 165 633 l 163 593 l 161 536 l 158 488 l 160 465 l 157 432 l 156 379 l 156 351 l 157 308 l 160 268 l 160 215 l 157 176 l 156 136 l 157 94 l 154 69 l 153 43 l 154 19 l 161 3 l 176 -1 l 199 -1 z m 697 311 l 638 313 l 601 313 l 565 315 l 525 315 l 485 317 l 419 317 l 388 315 l 353 317 l 319 317 l 290 324 l 271 335 l 265 347 l 263 379 l 263 442 l 261 486 l 261 550 l 263 581 l 264 621 l 265 654 l 272 681 l 289 694 l 300 696 l 313 697 l 339 699 l 388 700 l 440 700 l 522 697 l 554 694 l 586 694 l 614 692 l 693 692 l 739 683 l 758 678 l 775 669 l 804 653 l 826 631 l 839 607 l 850 574 l 854 538 l 856 504 l 857 482 l 856 465 l 850 432 l 840 400 l 835 388 l 818 365 l 778 333 l 746 319 l 729 317 l 717 315 z "},"Q":{"ha":1193,"x_min":0,"x_max":0,"o":"m 932 -175 l 939 -172 l 961 -158 l 986 -139 l 996 -125 l 994 -110 l 983 -90 l 965 -56 l 939 -19 l 919 11 l 910 35 l 906 50 l 911 64 l 919 78 l 931 86 l 939 92 l 956 107 l 978 128 l 1001 157 l 1029 197 l 1049 232 l 1058 257 l 1067 276 l 1074 304 l 1088 343 l 1094 367 l 1099 396 l 1103 408 l 1110 444 l 1108 493 l 1106 532 l 1101 565 l 1092 611 l 1083 639 l 1069 675 l 1058 701 l 1046 728 l 1028 756 l 996 803 l 972 835 l 947 861 l 914 892 l 894 904 l 874 918 l 836 939 l 794 957 l 742 975 l 683 992 l 656 997 l 624 999 l 596 999 l 561 997 l 536 993 l 497 983 l 472 979 l 453 972 l 425 964 l 386 950 l 357 933 l 324 917 l 299 900 l 271 875 l 244 857 l 213 825 l 193 801 l 174 779 l 157 754 l 136 714 l 122 683 l 113 654 l 100 610 l 89 564 l 85 532 l 85 454 l 88 399 l 92 368 l 106 317 l 115 285 l 128 263 l 136 243 l 150 219 l 164 194 l 185 168 l 217 132 l 231 117 l 251 96 l 271 81 l 293 63 l 313 49 l 346 26 l 368 14 l 449 -18 l 474 -25 l 508 -33 l 539 -35 l 583 -37 l 632 -37 l 718 -25 l 775 -7 l 786 -4 l 794 -4 l 801 -6 l 808 -10 l 821 -22 l 833 -42 l 851 -69 l 904 -156 l 910 -164 l 921 -171 z m 564 60 l 547 63 l 526 64 l 467 78 l 424 96 l 389 114 l 365 125 l 349 139 l 329 156 l 301 181 l 274 219 l 253 251 l 243 268 l 229 285 l 222 303 l 213 321 l 201 361 l 193 390 l 192 403 l 189 419 l 188 451 l 183 493 l 186 515 l 189 542 l 196 585 l 213 636 l 226 671 l 242 700 l 256 722 l 274 747 l 283 763 l 313 790 l 344 819 l 382 844 l 419 867 l 460 881 l 510 896 l 526 899 l 550 904 l 576 906 l 601 906 l 626 903 l 660 900 l 683 896 l 719 885 l 749 874 l 786 857 l 807 846 l 828 833 l 869 801 l 894 774 l 932 721 l 961 674 l 971 653 l 982 622 l 990 601 l 993 583 l 1000 558 l 1007 522 l 1007 486 l 1006 456 l 999 417 l 993 390 l 985 353 l 976 324 l 963 286 l 942 244 l 924 217 l 897 189 l 875 168 l 854 158 l 838 156 l 828 158 l 813 172 l 801 190 l 788 215 l 765 254 l 751 275 l 742 286 l 731 297 l 715 301 l 688 290 l 665 278 l 654 261 l 658 231 l 681 194 l 699 164 l 717 139 l 733 113 l 739 100 l 738 92 l 733 86 l 714 78 l 693 71 l 660 63 z "},"R":{"ha":1075,"x_min":0,"x_max":0,"o":"m 217 -8 l 249 -3 l 258 7 l 263 28 l 264 57 l 263 83 l 264 118 l 261 163 l 263 211 l 261 267 l 261 326 l 263 371 l 269 400 l 286 410 l 300 414 l 324 415 l 361 415 l 432 417 l 457 414 l 532 411 l 557 404 l 588 379 l 603 360 l 624 331 l 635 317 l 646 297 l 664 274 l 679 251 l 690 238 l 706 217 l 729 188 l 747 164 l 774 132 l 801 88 l 833 49 l 863 14 l 882 -4 l 893 -7 l 900 -6 l 908 -3 l 928 13 l 947 24 l 953 33 l 954 49 l 931 83 l 900 125 l 858 185 l 822 229 l 797 264 l 786 278 l 768 301 l 738 343 l 721 367 l 708 386 l 700 410 l 714 414 l 738 415 l 758 418 l 788 428 l 833 447 l 869 472 l 892 493 l 917 526 l 929 549 l 940 571 l 949 593 l 958 629 l 963 658 l 963 704 l 957 749 l 946 792 l 929 836 l 913 865 l 899 885 l 874 914 l 838 942 l 808 956 l 781 967 l 758 972 l 726 978 l 619 978 l 586 981 l 561 978 l 526 978 l 504 976 l 494 978 l 465 976 l 432 978 l 411 976 l 372 978 l 344 976 l 308 976 l 282 975 l 244 975 l 207 978 l 178 972 l 165 963 l 161 953 l 163 931 l 161 890 l 161 833 l 157 790 l 158 754 l 158 731 l 157 689 l 157 615 l 156 563 l 157 518 l 156 492 l 154 461 l 154 428 l 153 383 l 158 347 l 157 328 l 157 314 l 160 282 l 160 239 l 158 210 l 158 111 l 160 56 l 163 22 l 171 3 l 188 -7 z m 403 503 l 379 507 l 349 506 l 329 507 l 307 511 l 274 515 l 263 533 l 260 556 l 257 585 l 260 631 l 260 713 l 258 763 l 257 804 l 258 833 l 261 857 l 264 872 l 268 879 l 296 885 l 322 885 l 367 883 l 443 889 l 471 890 l 554 888 l 593 885 l 639 885 l 707 881 l 753 871 l 794 851 l 817 831 l 836 806 l 847 782 l 854 757 l 856 736 l 858 711 l 858 676 l 857 654 l 853 639 l 850 621 l 840 594 l 829 571 l 811 550 l 785 529 l 744 517 l 676 511 l 554 503 l 481 503 l 436 504 z "},"Ŕ":{"ha":1075,"x_min":0,"x_max":0,"o":"m 217 -8 l 249 -3 l 258 7 l 263 28 l 264 57 l 263 83 l 264 118 l 261 163 l 263 211 l 261 267 l 261 326 l 263 371 l 269 400 l 286 410 l 300 414 l 324 415 l 361 415 l 432 417 l 457 414 l 532 411 l 557 404 l 588 379 l 603 360 l 624 331 l 635 317 l 646 297 l 664 274 l 679 251 l 690 238 l 706 217 l 729 188 l 747 164 l 774 132 l 801 88 l 833 49 l 863 14 l 882 -4 l 893 -7 l 900 -6 l 908 -3 l 928 13 l 947 24 l 953 33 l 954 49 l 931 83 l 900 125 l 858 185 l 822 229 l 797 264 l 786 278 l 768 301 l 738 343 l 721 367 l 708 386 l 700 410 l 714 414 l 738 415 l 758 418 l 788 428 l 833 447 l 869 472 l 892 493 l 917 526 l 929 549 l 940 571 l 949 593 l 958 629 l 963 658 l 963 704 l 957 749 l 946 792 l 929 836 l 913 865 l 899 885 l 874 914 l 838 942 l 808 956 l 781 967 l 758 972 l 726 978 l 619 978 l 586 981 l 561 978 l 526 978 l 504 976 l 494 978 l 465 976 l 432 978 l 411 976 l 372 978 l 344 976 l 308 976 l 282 975 l 244 975 l 207 978 l 178 972 l 165 963 l 161 953 l 163 931 l 161 890 l 161 833 l 157 790 l 158 754 l 158 731 l 157 689 l 157 615 l 156 563 l 157 518 l 156 492 l 154 461 l 154 428 l 153 383 l 158 347 l 157 328 l 157 314 l 160 282 l 160 239 l 158 210 l 158 111 l 160 56 l 163 22 l 171 3 l 188 -7 z m 403 503 l 379 507 l 349 506 l 329 507 l 307 511 l 274 515 l 263 533 l 260 556 l 257 585 l 260 631 l 260 713 l 258 763 l 257 804 l 258 833 l 261 857 l 264 872 l 268 879 l 296 885 l 322 885 l 367 883 l 443 889 l 471 890 l 554 888 l 593 885 l 639 885 l 707 881 l 753 871 l 794 851 l 817 831 l 836 806 l 847 782 l 854 757 l 856 736 l 858 711 l 858 676 l 857 654 l 853 639 l 850 621 l 840 594 l 829 571 l 811 550 l 785 529 l 744 517 l 676 511 l 554 503 l 481 503 l 436 504 z m 538 1092 l 547 1096 l 568 1111 l 590 1136 l 614 1161 l 646 1193 l 661 1210 l 693 1243 l 713 1264 l 719 1286 l 713 1304 l 681 1336 l 669 1343 l 656 1344 l 631 1326 l 610 1307 l 590 1292 l 568 1274 l 553 1257 l 539 1246 l 525 1229 l 482 1188 l 467 1169 l 460 1156 l 463 1140 l 471 1122 l 496 1104 l 521 1094 z "},"Ř":{"ha":1075,"x_min":0,"x_max":0,"o":"m 217 -8 l 249 -3 l 258 7 l 263 28 l 264 57 l 263 83 l 264 118 l 261 163 l 263 211 l 261 267 l 261 326 l 263 371 l 269 400 l 286 410 l 300 414 l 324 415 l 361 415 l 432 417 l 457 414 l 532 411 l 557 404 l 588 379 l 603 360 l 624 331 l 635 317 l 646 297 l 664 274 l 679 251 l 690 238 l 706 217 l 729 188 l 747 164 l 774 132 l 801 88 l 833 49 l 863 14 l 882 -4 l 893 -7 l 900 -6 l 908 -3 l 928 13 l 947 24 l 953 33 l 954 49 l 931 83 l 900 125 l 858 185 l 822 229 l 797 264 l 786 278 l 768 301 l 738 343 l 721 367 l 708 386 l 700 410 l 714 414 l 738 415 l 758 418 l 788 428 l 833 447 l 869 472 l 892 493 l 917 526 l 929 549 l 940 571 l 949 593 l 958 629 l 963 658 l 963 704 l 957 749 l 946 792 l 929 836 l 913 865 l 899 885 l 874 914 l 838 942 l 808 956 l 781 967 l 758 972 l 726 978 l 619 978 l 586 981 l 561 978 l 526 978 l 504 976 l 494 978 l 465 976 l 432 978 l 411 976 l 372 978 l 344 976 l 308 976 l 282 975 l 244 975 l 207 978 l 178 972 l 165 963 l 161 953 l 163 931 l 161 890 l 161 833 l 157 790 l 158 754 l 158 731 l 157 689 l 157 615 l 156 563 l 157 518 l 156 492 l 154 461 l 154 428 l 153 383 l 158 347 l 157 328 l 157 314 l 160 282 l 160 239 l 158 210 l 158 111 l 160 56 l 163 22 l 171 3 l 188 -7 z m 403 503 l 379 507 l 349 506 l 329 507 l 307 511 l 274 515 l 263 533 l 260 556 l 257 585 l 260 631 l 260 713 l 258 763 l 257 804 l 258 833 l 261 857 l 264 872 l 268 879 l 296 885 l 322 885 l 367 883 l 443 889 l 471 890 l 554 888 l 593 885 l 639 885 l 707 881 l 753 871 l 794 851 l 817 831 l 836 806 l 847 782 l 854 757 l 856 736 l 858 711 l 858 676 l 857 654 l 853 639 l 850 621 l 840 594 l 829 571 l 811 550 l 785 529 l 744 517 l 676 511 l 554 503 l 481 503 l 436 504 z m 532 1083 l 574 1096 l 613 1133 l 636 1161 l 651 1181 l 667 1197 l 683 1218 l 714 1247 l 739 1275 l 747 1301 l 738 1315 l 718 1329 l 694 1343 l 681 1344 l 668 1339 l 650 1325 l 625 1294 l 593 1263 l 574 1240 l 560 1224 l 540 1208 l 528 1208 l 510 1219 l 486 1246 l 456 1278 l 419 1322 l 390 1349 l 376 1350 l 363 1344 l 344 1331 l 329 1321 l 319 1308 l 324 1281 l 347 1251 l 365 1232 l 372 1219 l 388 1200 l 418 1168 l 432 1149 l 458 1114 l 481 1096 l 503 1085 z "},"Ŗ":{"ha":1075,"x_min":0,"x_max":0,"o":"m 217 -8 l 249 -3 l 258 7 l 263 28 l 264 57 l 263 83 l 264 118 l 261 163 l 263 211 l 261 267 l 261 326 l 263 371 l 269 400 l 286 410 l 300 414 l 324 415 l 361 415 l 432 417 l 457 414 l 532 411 l 557 404 l 588 379 l 603 360 l 624 331 l 635 317 l 646 297 l 664 274 l 679 251 l 690 238 l 706 217 l 729 188 l 747 164 l 774 132 l 801 88 l 833 49 l 863 14 l 882 -4 l 893 -7 l 900 -6 l 908 -3 l 928 13 l 947 24 l 953 33 l 954 49 l 931 83 l 900 125 l 858 185 l 822 229 l 797 264 l 786 278 l 768 301 l 738 343 l 721 367 l 708 386 l 700 410 l 714 414 l 738 415 l 758 418 l 788 428 l 833 447 l 869 472 l 892 493 l 917 526 l 929 549 l 940 571 l 949 593 l 958 629 l 963 658 l 963 704 l 957 749 l 946 792 l 929 836 l 913 865 l 899 885 l 874 914 l 838 942 l 808 956 l 781 967 l 758 972 l 726 978 l 619 978 l 586 981 l 561 978 l 526 978 l 504 976 l 494 978 l 465 976 l 432 978 l 411 976 l 372 978 l 344 976 l 308 976 l 282 975 l 244 975 l 207 978 l 178 972 l 165 963 l 161 953 l 163 931 l 161 890 l 161 833 l 157 790 l 158 754 l 158 731 l 157 689 l 157 615 l 156 563 l 157 518 l 156 492 l 154 461 l 154 428 l 153 383 l 158 347 l 157 328 l 157 314 l 160 282 l 160 239 l 158 210 l 158 111 l 160 56 l 163 22 l 171 3 l 188 -7 z m 533 -396 l 561 -392 l 575 -386 l 582 -379 l 592 -354 l 599 -321 l 607 -287 l 621 -235 l 626 -204 l 632 -172 l 629 -147 l 614 -136 l 572 -126 l 558 -126 l 542 -133 l 525 -172 l 513 -212 l 507 -236 l 501 -251 l 497 -274 l 489 -300 l 481 -332 l 475 -354 l 476 -368 l 486 -381 l 503 -392 z m 403 503 l 379 507 l 349 506 l 329 507 l 307 511 l 274 515 l 263 533 l 260 556 l 257 585 l 260 631 l 260 713 l 258 763 l 257 804 l 258 833 l 261 857 l 264 872 l 268 879 l 296 885 l 322 885 l 367 883 l 443 889 l 471 890 l 554 888 l 593 885 l 639 885 l 707 881 l 753 871 l 794 851 l 817 831 l 836 806 l 847 782 l 854 757 l 856 736 l 858 711 l 858 676 l 857 654 l 853 639 l 850 621 l 840 594 l 829 571 l 811 550 l 785 529 l 744 517 l 676 511 l 554 503 l 481 503 l 436 504 z "},"S":{"ha":1053,"x_min":0,"x_max":0,"o":"m 511 -28 l 592 -28 l 642 -21 l 694 -8 l 738 7 l 765 18 l 794 35 l 836 63 l 863 89 l 878 106 l 897 131 l 913 157 l 921 172 l 932 200 l 938 232 l 940 244 l 942 265 l 940 290 l 936 303 l 932 321 l 918 361 l 906 383 l 883 414 l 857 438 l 838 451 l 803 472 l 757 490 l 721 503 l 693 511 l 656 521 l 589 532 l 514 539 l 454 549 l 419 556 l 394 561 l 376 564 l 353 571 l 304 589 l 274 608 l 256 628 l 242 650 l 235 667 l 228 706 l 233 739 l 235 754 l 236 760 l 240 768 l 247 781 l 253 790 l 272 815 l 315 851 l 349 871 l 371 879 l 403 892 l 442 900 l 463 903 l 483 907 l 533 907 l 560 903 l 597 899 l 622 893 l 672 875 l 704 863 l 717 856 l 733 846 l 750 835 l 764 822 l 793 794 l 818 767 l 831 757 l 851 754 l 876 761 l 899 775 l 906 790 l 903 807 l 890 829 l 864 858 l 839 883 l 811 907 l 781 929 l 719 960 l 686 975 l 663 982 l 581 1000 l 544 1003 l 528 1003 l 506 1000 l 494 1001 l 468 1000 l 439 996 l 417 992 l 383 985 l 358 979 l 324 965 l 294 950 l 281 944 l 250 925 l 217 904 l 194 878 l 178 860 l 168 843 l 153 819 l 142 789 l 138 757 l 133 733 l 132 708 l 133 678 l 139 647 l 146 618 l 164 583 l 186 557 l 208 539 l 233 521 l 268 501 l 301 488 l 329 479 l 351 471 l 381 464 l 415 458 l 444 453 l 469 447 l 493 446 l 522 440 l 615 425 l 646 418 l 665 417 l 728 397 l 757 382 l 778 369 l 800 356 l 815 340 l 824 329 l 829 306 l 832 264 l 829 225 l 818 186 l 792 149 l 774 132 l 733 107 l 708 94 l 686 85 l 664 79 l 639 74 l 618 69 l 599 67 l 567 67 l 538 64 l 518 67 l 472 71 l 397 89 l 367 101 l 322 121 l 283 146 l 257 164 l 222 199 l 206 217 l 189 233 l 182 238 l 165 240 l 136 229 l 119 215 l 111 200 l 113 183 l 125 161 l 157 125 l 176 107 l 197 90 l 235 63 l 272 39 l 300 24 l 329 10 l 360 -1 l 392 -8 l 446 -18 l 494 -24 z "},"Ś":{"ha":1053,"x_min":0,"x_max":0,"o":"m 511 -28 l 592 -28 l 642 -21 l 694 -8 l 738 7 l 765 18 l 794 35 l 836 63 l 863 89 l 878 106 l 897 131 l 913 157 l 921 172 l 932 200 l 938 232 l 940 244 l 942 265 l 940 290 l 936 303 l 932 321 l 918 361 l 906 383 l 883 414 l 857 438 l 838 451 l 803 472 l 757 490 l 721 503 l 693 511 l 656 521 l 589 532 l 514 539 l 454 549 l 419 556 l 394 561 l 376 564 l 353 571 l 304 589 l 274 608 l 256 628 l 242 650 l 235 667 l 228 706 l 233 739 l 235 754 l 236 760 l 240 768 l 247 781 l 253 790 l 272 815 l 315 851 l 349 871 l 371 879 l 403 892 l 442 900 l 463 903 l 483 907 l 533 907 l 560 903 l 597 899 l 622 893 l 672 875 l 704 863 l 717 856 l 733 846 l 750 835 l 764 822 l 793 794 l 818 767 l 831 757 l 851 754 l 876 761 l 899 775 l 906 790 l 903 807 l 890 829 l 864 858 l 839 883 l 811 907 l 781 929 l 719 960 l 686 975 l 663 982 l 581 1000 l 544 1003 l 528 1003 l 506 1000 l 494 1001 l 468 1000 l 439 996 l 417 992 l 383 985 l 358 979 l 324 965 l 294 950 l 281 944 l 250 925 l 217 904 l 194 878 l 178 860 l 168 843 l 153 819 l 142 789 l 138 757 l 133 733 l 132 708 l 133 678 l 139 647 l 146 618 l 164 583 l 186 557 l 208 539 l 233 521 l 268 501 l 301 488 l 329 479 l 351 471 l 381 464 l 415 458 l 444 453 l 469 447 l 493 446 l 522 440 l 615 425 l 646 418 l 665 417 l 728 397 l 757 382 l 778 369 l 800 356 l 815 340 l 824 329 l 829 306 l 832 264 l 829 225 l 818 186 l 792 149 l 774 132 l 733 107 l 708 94 l 686 85 l 664 79 l 639 74 l 618 69 l 599 67 l 567 67 l 538 64 l 518 67 l 472 71 l 397 89 l 367 101 l 322 121 l 283 146 l 257 164 l 222 199 l 206 217 l 189 233 l 182 238 l 165 240 l 136 229 l 119 215 l 111 200 l 113 183 l 125 161 l 157 125 l 176 107 l 197 90 l 235 63 l 272 39 l 300 24 l 329 10 l 360 -1 l 392 -8 l 446 -18 l 494 -24 z m 532 1092 l 542 1096 l 563 1111 l 585 1136 l 608 1161 l 640 1193 l 656 1210 l 688 1243 l 707 1264 l 714 1286 l 707 1304 l 675 1336 l 664 1343 l 650 1344 l 625 1326 l 604 1307 l 585 1292 l 563 1274 l 547 1257 l 533 1246 l 519 1229 l 476 1188 l 461 1169 l 454 1156 l 457 1140 l 465 1122 l 490 1104 l 515 1094 z "},"Š":{"ha":1053,"x_min":0,"x_max":0,"o":"m 511 -28 l 592 -28 l 642 -21 l 694 -8 l 738 7 l 765 18 l 794 35 l 836 63 l 863 89 l 878 106 l 897 131 l 913 157 l 921 172 l 932 200 l 938 232 l 940 244 l 942 265 l 940 290 l 936 303 l 932 321 l 918 361 l 906 383 l 883 414 l 857 438 l 838 451 l 803 472 l 757 490 l 721 503 l 693 511 l 656 521 l 589 532 l 514 539 l 454 549 l 419 556 l 394 561 l 376 564 l 353 571 l 304 589 l 274 608 l 256 628 l 242 650 l 235 667 l 228 706 l 233 739 l 235 754 l 236 760 l 240 768 l 247 781 l 253 790 l 272 815 l 315 851 l 349 871 l 371 879 l 403 892 l 442 900 l 463 903 l 483 907 l 533 907 l 560 903 l 597 899 l 622 893 l 672 875 l 704 863 l 717 856 l 733 846 l 750 835 l 764 822 l 793 794 l 818 767 l 831 757 l 851 754 l 876 761 l 899 775 l 906 790 l 903 807 l 890 829 l 864 858 l 839 883 l 811 907 l 781 929 l 719 960 l 686 975 l 663 982 l 581 1000 l 544 1003 l 528 1003 l 506 1000 l 494 1001 l 468 1000 l 439 996 l 417 992 l 383 985 l 358 979 l 324 965 l 294 950 l 281 944 l 250 925 l 217 904 l 194 878 l 178 860 l 168 843 l 153 819 l 142 789 l 138 757 l 133 733 l 132 708 l 133 678 l 139 647 l 146 618 l 164 583 l 186 557 l 208 539 l 233 521 l 268 501 l 301 488 l 329 479 l 351 471 l 381 464 l 415 458 l 444 453 l 469 447 l 493 446 l 522 440 l 615 425 l 646 418 l 665 417 l 728 397 l 757 382 l 778 369 l 800 356 l 815 340 l 824 329 l 829 306 l 832 264 l 829 225 l 818 186 l 792 149 l 774 132 l 733 107 l 708 94 l 686 85 l 664 79 l 639 74 l 618 69 l 599 67 l 567 67 l 538 64 l 518 67 l 472 71 l 397 89 l 367 101 l 322 121 l 283 146 l 257 164 l 222 199 l 206 217 l 189 233 l 182 238 l 165 240 l 136 229 l 119 215 l 111 200 l 113 183 l 125 161 l 157 125 l 176 107 l 197 90 l 235 63 l 272 39 l 300 24 l 329 10 l 360 -1 l 392 -8 l 446 -18 l 494 -24 z m 526 1083 l 568 1096 l 607 1133 l 631 1161 l 646 1181 l 661 1197 l 678 1218 l 708 1247 l 733 1275 l 742 1301 l 732 1315 l 713 1329 l 689 1343 l 675 1344 l 663 1339 l 644 1325 l 619 1294 l 588 1263 l 568 1240 l 554 1224 l 535 1208 l 522 1208 l 504 1219 l 481 1246 l 450 1278 l 414 1322 l 385 1349 l 371 1350 l 357 1344 l 339 1331 l 324 1321 l 314 1308 l 318 1281 l 342 1251 l 360 1232 l 367 1219 l 382 1200 l 413 1168 l 426 1149 l 453 1114 l 475 1096 l 497 1085 z "},"Ş":{"ha":1053,"x_min":0,"x_max":0,"o":"m 524 -365 l 561 -365 l 589 -362 l 639 -349 l 665 -335 l 686 -312 l 704 -287 l 711 -264 l 717 -235 l 717 -190 l 706 -146 l 690 -128 l 679 -117 l 657 -101 l 628 -83 l 604 -79 l 585 -74 l 569 -64 l 567 -53 l 568 -39 l 594 -28 l 642 -21 l 694 -8 l 738 7 l 765 18 l 794 35 l 836 63 l 863 89 l 878 106 l 897 131 l 913 157 l 921 172 l 932 200 l 938 232 l 940 244 l 942 265 l 940 290 l 936 303 l 932 321 l 918 361 l 906 383 l 883 414 l 857 438 l 838 451 l 803 472 l 757 490 l 721 503 l 693 511 l 656 521 l 589 532 l 514 539 l 454 549 l 419 556 l 394 561 l 376 564 l 353 571 l 304 589 l 274 608 l 256 628 l 242 650 l 235 667 l 228 706 l 233 739 l 235 754 l 236 760 l 240 768 l 247 781 l 253 790 l 272 815 l 315 851 l 349 871 l 371 879 l 403 892 l 442 900 l 463 903 l 483 907 l 533 907 l 560 903 l 597 899 l 622 893 l 672 875 l 704 863 l 717 856 l 733 846 l 750 835 l 764 822 l 793 794 l 818 767 l 831 757 l 851 754 l 876 761 l 899 775 l 906 790 l 903 807 l 890 829 l 864 858 l 839 883 l 811 907 l 781 929 l 719 960 l 686 975 l 663 982 l 581 1000 l 544 1003 l 528 1003 l 506 1000 l 494 1001 l 468 1000 l 439 996 l 417 992 l 383 985 l 358 979 l 324 965 l 294 950 l 281 944 l 250 925 l 217 904 l 194 878 l 178 860 l 168 843 l 153 819 l 142 789 l 138 757 l 133 733 l 132 708 l 133 678 l 139 647 l 146 618 l 164 583 l 186 557 l 208 539 l 233 521 l 268 501 l 301 488 l 329 479 l 351 471 l 381 464 l 415 458 l 444 453 l 469 447 l 493 446 l 522 440 l 615 425 l 646 418 l 665 417 l 728 397 l 757 382 l 778 369 l 800 356 l 815 340 l 824 329 l 829 306 l 832 264 l 829 225 l 818 186 l 792 149 l 774 132 l 733 107 l 708 94 l 686 85 l 664 79 l 639 74 l 618 69 l 599 67 l 567 67 l 538 64 l 518 67 l 472 71 l 397 89 l 367 101 l 322 121 l 283 146 l 257 164 l 222 199 l 206 217 l 189 233 l 182 238 l 165 240 l 136 229 l 119 215 l 111 200 l 113 183 l 125 161 l 157 125 l 176 107 l 197 90 l 235 63 l 272 39 l 300 24 l 329 10 l 360 -1 l 392 -8 l 446 -18 l 461 -19 l 467 -37 l 454 -67 l 449 -89 l 443 -118 l 451 -143 l 458 -150 l 482 -167 l 518 -168 l 549 -167 l 568 -169 l 585 -176 l 604 -193 l 617 -212 l 611 -236 l 599 -253 l 578 -262 l 563 -268 l 546 -269 l 519 -268 l 492 -258 l 471 -247 l 450 -233 l 426 -232 l 410 -240 l 390 -267 l 393 -303 l 419 -325 l 453 -343 l 493 -354 z "},"T":{"ha":915,"x_min":0,"x_max":0,"o":"m 469 -1 l 482 1 l 493 18 l 499 54 l 500 86 l 499 100 l 500 122 l 500 150 l 501 189 l 501 364 l 503 403 l 506 435 l 506 492 l 507 522 l 507 554 l 506 588 l 504 607 l 506 622 l 506 676 l 507 729 l 507 789 l 511 828 l 511 843 l 514 856 l 525 871 l 554 881 l 700 881 l 732 879 l 771 879 l 799 876 l 817 876 l 835 885 l 842 896 l 846 924 l 842 956 l 836 965 l 824 969 l 799 969 l 694 974 l 658 974 l 632 975 l 599 975 l 542 978 l 506 978 l 494 979 l 475 979 l 456 976 l 432 981 l 254 981 l 224 979 l 176 981 l 129 981 l 104 982 l 85 978 l 74 958 l 71 931 l 72 915 l 75 904 l 89 892 l 106 890 l 125 890 l 153 888 l 208 888 l 258 885 l 313 883 l 342 881 l 368 881 l 397 875 l 404 861 l 406 843 l 407 808 l 407 763 l 406 713 l 406 517 l 408 481 l 407 449 l 406 421 l 406 374 l 404 343 l 404 322 l 400 289 l 400 263 l 401 221 l 403 186 l 400 144 l 401 119 l 404 85 l 400 56 l 400 26 l 401 19 l 413 6 l 447 0 z "},"Ŧ":{"ha":915,"x_min":0,"x_max":0,"o":"m 469 -1 l 482 1 l 493 18 l 499 54 l 500 86 l 499 100 l 500 122 l 500 150 l 501 189 l 501 364 l 503 403 l 506 424 l 513 436 l 525 435 l 564 436 l 663 436 l 692 438 l 708 444 l 714 453 l 715 483 l 706 519 l 692 531 l 679 532 l 651 531 l 611 532 l 558 532 l 517 533 l 507 556 l 506 588 l 504 607 l 506 622 l 506 676 l 507 729 l 507 789 l 511 828 l 511 843 l 514 856 l 525 871 l 554 881 l 707 881 l 746 879 l 776 879 l 799 876 l 817 876 l 835 885 l 842 896 l 846 924 l 842 956 l 836 965 l 824 969 l 799 969 l 694 974 l 658 974 l 632 975 l 599 975 l 542 978 l 506 978 l 494 979 l 475 979 l 456 976 l 432 981 l 254 981 l 217 979 l 169 981 l 129 981 l 104 982 l 85 978 l 74 958 l 71 931 l 72 915 l 75 904 l 89 892 l 106 890 l 125 890 l 153 888 l 208 888 l 258 885 l 313 883 l 342 881 l 368 881 l 397 875 l 404 861 l 406 843 l 407 808 l 407 763 l 406 713 l 406 557 l 390 533 l 308 538 l 281 538 l 235 536 l 213 525 l 210 511 l 207 494 l 207 471 l 214 449 l 222 440 l 238 435 l 382 435 l 406 415 l 406 374 l 404 343 l 404 322 l 400 289 l 400 263 l 401 221 l 403 186 l 400 144 l 401 119 l 404 85 l 400 56 l 400 26 l 401 19 l 413 6 l 447 0 z "},"Ť":{"ha":915,"x_min":0,"x_max":0,"o":"m 469 -1 l 482 1 l 493 18 l 499 54 l 500 86 l 499 100 l 500 122 l 500 150 l 501 189 l 501 364 l 503 403 l 506 435 l 506 492 l 507 522 l 507 554 l 506 588 l 504 607 l 506 622 l 506 676 l 507 729 l 507 789 l 511 828 l 511 843 l 514 856 l 525 871 l 554 881 l 700 881 l 732 879 l 771 879 l 799 876 l 817 876 l 835 885 l 842 896 l 846 924 l 842 956 l 836 965 l 824 969 l 799 969 l 694 974 l 658 974 l 632 975 l 599 975 l 542 978 l 506 978 l 494 979 l 475 979 l 456 976 l 432 981 l 254 981 l 224 979 l 176 981 l 129 981 l 104 982 l 85 978 l 74 958 l 71 931 l 72 915 l 75 904 l 89 892 l 106 890 l 125 890 l 153 888 l 208 888 l 258 885 l 313 883 l 342 881 l 368 881 l 397 875 l 404 861 l 406 843 l 407 808 l 407 763 l 406 713 l 406 517 l 408 481 l 407 449 l 406 421 l 406 374 l 404 343 l 404 322 l 400 289 l 400 263 l 401 221 l 403 186 l 400 144 l 401 119 l 404 85 l 400 56 l 400 26 l 401 19 l 413 6 l 447 0 z m 458 1083 l 500 1096 l 539 1133 l 563 1161 l 578 1181 l 593 1197 l 610 1218 l 640 1247 l 665 1275 l 674 1301 l 664 1315 l 644 1329 l 621 1343 l 607 1344 l 594 1339 l 576 1325 l 551 1294 l 519 1263 l 500 1240 l 486 1224 l 467 1208 l 454 1208 l 436 1219 l 413 1246 l 382 1278 l 346 1322 l 317 1349 l 303 1350 l 289 1344 l 271 1331 l 256 1321 l 246 1308 l 250 1281 l 274 1251 l 292 1232 l 299 1219 l 314 1200 l 344 1168 l 358 1149 l 385 1114 l 407 1096 l 429 1085 z "},"Ţ":{"ha":915,"x_min":0,"x_max":0,"o":"m 435 -365 l 472 -365 l 500 -362 l 550 -349 l 576 -335 l 597 -312 l 615 -287 l 622 -264 l 628 -235 l 628 -190 l 617 -146 l 601 -128 l 590 -117 l 568 -101 l 539 -83 l 515 -79 l 496 -74 l 481 -64 l 478 -53 l 482 -25 l 493 14 l 499 54 l 500 86 l 499 100 l 500 122 l 500 150 l 501 189 l 501 364 l 503 403 l 506 435 l 506 492 l 507 522 l 507 554 l 506 588 l 504 607 l 506 622 l 506 676 l 507 729 l 507 789 l 511 828 l 511 843 l 514 856 l 525 871 l 554 881 l 707 881 l 746 879 l 776 879 l 799 876 l 817 876 l 835 885 l 842 896 l 846 924 l 842 956 l 836 965 l 824 969 l 799 969 l 754 971 l 701 975 l 658 974 l 632 975 l 599 975 l 542 978 l 506 978 l 494 979 l 475 979 l 456 976 l 432 981 l 254 981 l 217 979 l 169 981 l 129 981 l 104 982 l 85 978 l 74 958 l 71 931 l 72 915 l 75 904 l 89 892 l 106 890 l 125 890 l 153 888 l 208 888 l 258 885 l 313 883 l 342 881 l 368 881 l 397 875 l 404 861 l 406 843 l 407 808 l 407 763 l 406 713 l 406 517 l 408 481 l 407 449 l 406 421 l 406 374 l 404 343 l 404 322 l 400 289 l 400 263 l 401 221 l 403 186 l 400 144 l 401 119 l 404 85 l 400 56 l 397 17 l 388 -8 l 378 -37 l 365 -67 l 360 -89 l 354 -118 l 363 -143 l 369 -150 l 393 -167 l 429 -168 l 460 -167 l 479 -169 l 496 -176 l 515 -193 l 528 -212 l 522 -236 l 510 -253 l 489 -262 l 474 -268 l 457 -269 l 431 -268 l 403 -258 l 382 -247 l 361 -233 l 338 -232 l 321 -240 l 301 -267 l 304 -303 l 331 -325 l 364 -343 l 404 -354 z "},"U":{"ha":1079,"x_min":0,"x_max":0,"o":"m 500 -35 l 557 -35 l 601 -31 l 629 -31 l 661 -26 l 688 -22 l 721 -11 l 743 -3 l 769 10 l 793 25 l 826 49 l 851 75 l 868 96 l 885 131 l 903 171 l 908 190 l 913 215 l 921 251 l 925 290 l 926 336 l 926 392 l 928 443 l 931 499 l 931 581 l 933 619 l 933 647 l 932 694 l 933 742 l 931 822 l 928 846 l 928 883 l 931 926 l 928 944 l 919 953 l 908 958 l 883 961 l 863 964 l 853 963 l 839 956 l 835 939 l 835 864 l 833 832 l 832 794 l 832 771 l 831 742 l 831 718 l 829 693 l 829 667 l 832 633 l 831 600 l 829 568 l 829 526 l 831 483 l 828 461 l 829 424 l 832 360 l 828 314 l 826 290 l 825 271 l 818 236 l 801 185 l 779 146 l 760 121 l 739 107 l 717 93 l 703 86 l 696 83 l 681 76 l 649 67 l 604 61 l 575 60 l 544 57 l 500 60 l 465 65 l 454 65 l 426 71 l 382 85 l 350 99 l 318 125 l 300 144 l 278 182 l 268 201 l 263 224 l 256 254 l 254 292 l 251 315 l 251 336 l 253 363 l 251 394 l 253 425 l 251 440 l 251 461 l 250 494 l 250 600 l 253 656 l 254 682 l 254 757 l 256 808 l 256 851 l 258 881 l 258 915 l 257 943 l 244 967 l 226 971 l 204 971 l 183 972 l 176 969 l 168 963 l 165 951 l 163 928 l 160 890 l 160 849 l 158 800 l 158 747 l 157 722 l 157 649 l 154 618 l 154 569 l 156 529 l 156 506 l 154 467 l 157 432 l 156 394 l 154 364 l 153 335 l 153 303 l 154 276 l 157 256 l 161 221 l 169 188 l 176 169 l 189 139 l 203 115 l 228 78 l 250 53 l 285 26 l 321 4 l 354 -11 l 388 -19 l 411 -25 l 438 -29 z "},"Ú":{"ha":1079,"x_min":0,"x_max":0,"o":"m 500 -35 l 557 -35 l 601 -31 l 629 -31 l 661 -26 l 688 -22 l 721 -11 l 743 -3 l 769 10 l 793 25 l 826 49 l 851 75 l 868 96 l 885 131 l 903 171 l 908 190 l 913 215 l 921 251 l 925 290 l 926 336 l 926 392 l 928 443 l 931 499 l 931 581 l 933 619 l 933 647 l 932 694 l 933 742 l 931 822 l 928 846 l 928 883 l 931 926 l 928 944 l 919 953 l 908 958 l 883 961 l 863 964 l 853 963 l 839 956 l 835 939 l 835 864 l 833 832 l 832 794 l 832 771 l 831 742 l 831 718 l 829 693 l 829 667 l 832 633 l 831 600 l 829 568 l 829 526 l 831 483 l 828 461 l 829 424 l 832 360 l 828 314 l 826 290 l 825 271 l 818 236 l 801 185 l 779 146 l 760 121 l 739 107 l 717 93 l 703 86 l 696 83 l 681 76 l 649 67 l 604 61 l 575 60 l 544 57 l 500 60 l 465 65 l 454 65 l 426 71 l 382 85 l 350 99 l 318 125 l 300 144 l 278 182 l 268 201 l 263 224 l 256 254 l 254 292 l 251 315 l 251 336 l 253 363 l 251 394 l 253 425 l 251 440 l 251 461 l 250 494 l 250 600 l 253 656 l 254 682 l 254 757 l 256 808 l 256 851 l 258 881 l 258 915 l 257 943 l 244 967 l 226 971 l 204 971 l 183 972 l 176 969 l 168 963 l 165 951 l 163 928 l 160 890 l 160 849 l 158 800 l 158 747 l 157 722 l 157 649 l 154 618 l 154 569 l 156 529 l 156 506 l 154 467 l 157 432 l 156 394 l 154 364 l 153 335 l 153 303 l 154 276 l 157 256 l 161 221 l 169 188 l 176 169 l 189 139 l 203 115 l 228 78 l 250 53 l 285 26 l 321 4 l 354 -11 l 388 -19 l 411 -25 l 438 -29 z m 549 1092 l 558 1096 l 579 1111 l 601 1136 l 625 1161 l 657 1193 l 672 1210 l 704 1243 l 724 1264 l 731 1286 l 724 1304 l 692 1336 l 681 1343 l 667 1344 l 642 1326 l 621 1307 l 601 1292 l 579 1274 l 564 1257 l 550 1246 l 536 1229 l 493 1188 l 478 1169 l 471 1156 l 474 1140 l 482 1122 l 507 1104 l 532 1094 z "},"Û":{"ha":1079,"x_min":0,"x_max":0,"o":"m 500 -35 l 557 -35 l 601 -31 l 629 -31 l 661 -26 l 688 -22 l 721 -11 l 743 -3 l 769 10 l 793 25 l 826 49 l 851 75 l 868 96 l 885 131 l 903 171 l 908 190 l 913 215 l 921 251 l 925 290 l 926 336 l 926 392 l 928 443 l 931 499 l 931 581 l 933 619 l 933 647 l 932 694 l 933 742 l 931 822 l 928 846 l 928 883 l 931 926 l 928 944 l 919 953 l 908 958 l 883 961 l 863 964 l 853 963 l 839 956 l 835 939 l 835 864 l 833 832 l 832 794 l 832 771 l 831 742 l 831 718 l 829 693 l 829 667 l 832 633 l 831 600 l 829 568 l 829 526 l 831 483 l 828 461 l 829 424 l 832 360 l 828 314 l 826 290 l 825 271 l 818 236 l 801 185 l 779 146 l 760 121 l 739 107 l 717 93 l 703 86 l 696 83 l 681 76 l 649 67 l 604 61 l 575 60 l 544 57 l 500 60 l 465 65 l 454 65 l 426 71 l 382 85 l 350 99 l 318 125 l 300 144 l 278 182 l 268 201 l 263 224 l 256 254 l 254 292 l 251 315 l 251 336 l 253 363 l 251 394 l 253 425 l 251 440 l 251 461 l 250 494 l 250 600 l 253 656 l 254 682 l 254 757 l 256 808 l 256 851 l 258 881 l 258 915 l 257 943 l 244 967 l 226 971 l 204 971 l 183 972 l 176 969 l 168 963 l 165 951 l 163 928 l 160 890 l 160 849 l 158 800 l 158 747 l 157 722 l 157 649 l 154 618 l 154 569 l 156 529 l 156 506 l 154 467 l 157 432 l 156 394 l 154 364 l 153 335 l 153 303 l 154 276 l 157 256 l 161 221 l 169 188 l 176 169 l 189 139 l 203 115 l 228 78 l 250 53 l 285 26 l 321 4 l 354 -11 l 388 -19 l 411 -25 l 438 -29 z m 388 1083 l 401 1085 l 431 1111 l 467 1156 l 497 1188 l 521 1214 l 539 1225 l 551 1225 l 571 1210 l 585 1193 l 604 1171 l 636 1139 l 661 1108 l 679 1094 l 692 1089 l 706 1090 l 729 1104 l 749 1118 l 758 1132 l 750 1158 l 725 1186 l 694 1215 l 678 1236 l 663 1253 l 647 1274 l 624 1300 l 585 1338 l 543 1350 l 514 1349 l 492 1338 l 469 1319 l 443 1285 l 429 1265 l 399 1233 l 383 1214 l 376 1201 l 358 1182 l 335 1153 l 331 1125 l 340 1114 l 356 1103 l 374 1089 z "},"Ü":{"ha":1079,"x_min":0,"x_max":0,"o":"m 500 -35 l 557 -35 l 601 -31 l 629 -31 l 661 -26 l 688 -22 l 721 -11 l 743 -3 l 769 10 l 793 25 l 826 49 l 851 75 l 868 96 l 885 131 l 903 171 l 908 190 l 913 215 l 921 251 l 925 290 l 926 336 l 926 392 l 928 443 l 931 499 l 931 581 l 933 619 l 933 647 l 932 694 l 933 742 l 931 822 l 928 846 l 928 883 l 931 926 l 928 944 l 919 953 l 908 958 l 883 961 l 863 964 l 853 963 l 839 956 l 835 939 l 835 864 l 833 832 l 832 794 l 832 771 l 831 742 l 831 718 l 829 693 l 829 667 l 832 633 l 831 600 l 829 568 l 829 526 l 831 483 l 828 461 l 829 424 l 832 360 l 828 314 l 826 290 l 825 271 l 818 236 l 801 185 l 779 146 l 760 121 l 739 107 l 717 93 l 703 86 l 696 83 l 681 76 l 649 67 l 604 61 l 575 60 l 544 57 l 500 60 l 465 65 l 454 65 l 426 71 l 382 85 l 350 99 l 318 125 l 300 144 l 278 182 l 268 201 l 263 224 l 256 254 l 254 292 l 251 315 l 251 336 l 253 363 l 251 394 l 253 425 l 251 440 l 251 461 l 250 494 l 250 600 l 253 656 l 254 682 l 254 757 l 256 808 l 256 851 l 258 881 l 258 915 l 257 943 l 244 967 l 226 971 l 204 971 l 183 972 l 176 969 l 168 963 l 165 951 l 163 928 l 160 890 l 160 849 l 158 800 l 158 747 l 157 722 l 157 649 l 154 618 l 154 569 l 156 529 l 156 506 l 154 467 l 157 432 l 156 394 l 154 364 l 153 335 l 153 303 l 154 276 l 157 256 l 161 221 l 169 188 l 176 169 l 189 139 l 203 115 l 228 78 l 250 53 l 285 26 l 321 4 l 354 -11 l 388 -19 l 411 -25 l 438 -29 z m 433 1142 l 457 1151 l 467 1161 l 476 1176 l 483 1197 l 483 1213 l 476 1239 l 460 1258 l 443 1269 l 421 1274 l 404 1271 l 392 1268 l 371 1253 l 358 1235 l 354 1221 l 354 1190 l 364 1167 l 374 1156 l 397 1146 z m 681 1142 l 704 1151 l 714 1161 l 724 1176 l 731 1197 l 731 1213 l 724 1239 l 707 1258 l 690 1269 l 668 1274 l 651 1271 l 639 1268 l 618 1253 l 606 1235 l 601 1221 l 601 1190 l 611 1167 l 621 1156 l 644 1146 z "},"Ù":{"ha":1079,"x_min":0,"x_max":0,"o":"m 500 -35 l 557 -35 l 601 -31 l 629 -31 l 661 -26 l 688 -22 l 721 -11 l 743 -3 l 769 10 l 793 25 l 826 49 l 851 75 l 868 96 l 885 131 l 903 171 l 908 190 l 913 215 l 921 251 l 925 290 l 926 336 l 926 392 l 928 443 l 931 499 l 931 581 l 933 619 l 933 647 l 932 694 l 933 742 l 931 822 l 928 846 l 928 883 l 931 926 l 928 944 l 919 953 l 908 958 l 883 961 l 863 964 l 853 963 l 839 956 l 835 939 l 835 864 l 833 832 l 832 794 l 832 771 l 831 742 l 831 718 l 829 693 l 829 667 l 832 633 l 831 600 l 829 568 l 829 526 l 831 483 l 828 461 l 829 424 l 832 360 l 828 314 l 826 290 l 825 271 l 818 236 l 801 185 l 779 146 l 760 121 l 739 107 l 717 93 l 703 86 l 696 83 l 681 76 l 649 67 l 604 61 l 575 60 l 544 57 l 500 60 l 465 65 l 454 65 l 426 71 l 382 85 l 350 99 l 318 125 l 300 144 l 278 182 l 268 201 l 263 224 l 256 254 l 254 292 l 251 315 l 251 336 l 253 363 l 251 394 l 253 425 l 251 440 l 251 461 l 250 494 l 250 600 l 253 656 l 254 682 l 254 757 l 256 808 l 256 851 l 258 881 l 258 915 l 257 943 l 244 967 l 226 971 l 204 971 l 183 972 l 176 969 l 168 963 l 165 951 l 163 928 l 160 890 l 160 849 l 158 800 l 158 747 l 157 722 l 157 649 l 154 618 l 154 569 l 156 529 l 156 506 l 154 467 l 157 432 l 156 394 l 154 364 l 153 335 l 153 303 l 154 276 l 157 256 l 161 221 l 169 188 l 176 169 l 189 139 l 203 115 l 228 78 l 250 53 l 285 26 l 321 4 l 354 -11 l 388 -19 l 411 -25 l 438 -29 z m 538 1092 l 553 1094 l 579 1103 l 603 1122 l 613 1140 l 614 1156 l 608 1169 l 593 1188 l 550 1229 l 535 1246 l 522 1257 l 506 1272 l 485 1292 l 467 1307 l 444 1326 l 419 1344 l 406 1343 l 394 1335 l 375 1318 l 361 1304 l 354 1286 l 363 1264 l 382 1243 l 428 1193 l 485 1136 l 507 1111 l 528 1094 z "},"Ű":{"ha":1079,"x_min":0,"x_max":0,"o":"m 500 -35 l 557 -35 l 601 -31 l 629 -31 l 661 -26 l 688 -22 l 721 -11 l 743 -3 l 769 10 l 793 25 l 826 49 l 851 75 l 868 96 l 885 131 l 903 171 l 908 190 l 913 215 l 921 251 l 925 290 l 926 336 l 926 392 l 928 443 l 931 499 l 931 581 l 933 619 l 933 647 l 932 694 l 933 742 l 931 822 l 928 846 l 928 883 l 931 926 l 928 944 l 919 953 l 908 958 l 883 961 l 863 964 l 853 963 l 839 956 l 835 939 l 835 864 l 833 832 l 832 794 l 832 771 l 831 742 l 831 718 l 829 693 l 829 667 l 832 633 l 831 600 l 829 568 l 829 526 l 831 483 l 828 461 l 829 424 l 832 360 l 828 314 l 826 290 l 825 271 l 818 236 l 801 185 l 779 146 l 760 121 l 739 107 l 717 93 l 703 86 l 696 83 l 681 76 l 649 67 l 604 61 l 575 60 l 544 57 l 500 60 l 465 65 l 454 65 l 426 71 l 382 85 l 350 99 l 318 125 l 300 144 l 278 182 l 268 201 l 263 224 l 256 254 l 254 292 l 251 315 l 251 336 l 253 363 l 251 394 l 253 425 l 251 440 l 251 461 l 250 494 l 250 600 l 253 656 l 254 682 l 254 757 l 256 808 l 256 851 l 258 881 l 258 915 l 257 943 l 244 967 l 226 971 l 204 971 l 183 972 l 176 969 l 168 963 l 165 951 l 163 928 l 160 890 l 160 849 l 158 800 l 158 747 l 157 722 l 157 649 l 154 618 l 154 569 l 156 529 l 156 506 l 154 467 l 157 432 l 156 394 l 154 364 l 153 335 l 153 303 l 154 276 l 157 256 l 161 221 l 169 188 l 176 169 l 189 139 l 203 115 l 228 78 l 250 53 l 285 26 l 321 4 l 354 -11 l 388 -19 l 411 -25 l 438 -29 z m 436 1083 l 453 1085 l 461 1089 l 479 1110 l 497 1138 l 517 1167 l 542 1203 l 556 1222 l 579 1260 l 594 1285 l 599 1308 l 589 1324 l 574 1336 l 551 1349 l 539 1354 l 525 1354 l 504 1332 l 486 1310 l 471 1292 l 439 1250 l 428 1236 l 417 1218 l 382 1168 l 369 1149 l 367 1135 l 371 1119 l 383 1103 l 410 1089 z m 644 1083 l 661 1085 l 669 1089 l 688 1110 l 706 1138 l 725 1167 l 750 1203 l 764 1222 l 788 1260 l 803 1285 l 807 1308 l 797 1324 l 782 1336 l 760 1349 l 747 1354 l 733 1354 l 713 1332 l 694 1310 l 679 1292 l 647 1250 l 636 1236 l 625 1218 l 590 1168 l 578 1149 l 575 1135 l 579 1119 l 592 1103 l 618 1089 z "},"Ū":{"ha":1079,"x_min":0,"x_max":0,"o":"m 500 -35 l 557 -35 l 601 -31 l 629 -31 l 661 -26 l 688 -22 l 721 -11 l 743 -3 l 769 10 l 793 25 l 826 49 l 851 75 l 868 96 l 885 131 l 903 171 l 908 190 l 913 215 l 921 251 l 925 290 l 926 336 l 926 392 l 928 443 l 931 499 l 931 581 l 933 619 l 933 647 l 932 694 l 933 742 l 931 822 l 928 846 l 928 883 l 931 926 l 928 944 l 919 953 l 908 958 l 883 961 l 863 964 l 853 963 l 839 956 l 835 939 l 835 864 l 833 832 l 832 794 l 832 771 l 831 742 l 831 718 l 829 693 l 829 667 l 832 633 l 831 600 l 829 568 l 829 526 l 831 483 l 828 461 l 829 424 l 832 360 l 828 314 l 826 290 l 825 271 l 818 236 l 801 185 l 779 146 l 760 121 l 739 107 l 717 93 l 703 86 l 696 83 l 681 76 l 649 67 l 604 61 l 575 60 l 544 57 l 500 60 l 465 65 l 454 65 l 426 71 l 382 85 l 350 99 l 318 125 l 300 144 l 278 182 l 268 201 l 263 224 l 256 254 l 254 292 l 251 315 l 251 336 l 253 363 l 251 394 l 253 425 l 251 440 l 251 461 l 250 494 l 250 600 l 253 656 l 254 682 l 254 757 l 256 808 l 256 851 l 258 881 l 258 915 l 257 943 l 244 967 l 226 971 l 204 971 l 183 972 l 176 969 l 168 963 l 165 951 l 163 928 l 160 890 l 160 849 l 158 800 l 158 747 l 157 722 l 157 649 l 154 618 l 154 569 l 156 529 l 156 506 l 154 467 l 157 432 l 156 394 l 154 364 l 153 335 l 153 303 l 154 276 l 157 256 l 161 221 l 169 188 l 176 169 l 189 139 l 203 115 l 228 78 l 250 53 l 285 26 l 321 4 l 354 -11 l 388 -19 l 411 -25 l 438 -29 z m 679 1156 l 710 1157 l 724 1169 l 726 1192 l 725 1217 l 718 1242 l 710 1250 l 699 1254 l 688 1257 l 656 1257 l 621 1256 l 599 1257 l 564 1256 l 529 1257 l 467 1257 l 424 1260 l 397 1258 l 378 1257 l 365 1243 l 358 1224 l 358 1214 l 361 1197 l 365 1179 l 371 1168 l 382 1161 l 392 1160 l 460 1160 l 544 1161 l 631 1158 z "},"Ų":{"ha":1079,"x_min":0,"x_max":0,"o":"m 717 -369 l 746 -365 l 767 -356 l 807 -340 l 838 -322 l 850 -306 l 854 -278 l 835 -249 l 785 -239 l 756 -250 l 747 -256 l 731 -262 l 711 -267 l 688 -267 l 667 -264 l 650 -256 l 638 -243 l 629 -219 l 632 -189 l 644 -162 l 664 -122 l 683 -99 l 706 -68 l 733 -29 l 754 -6 l 769 10 l 793 25 l 826 49 l 851 75 l 868 96 l 885 131 l 903 171 l 908 190 l 913 215 l 921 251 l 925 290 l 926 336 l 926 392 l 928 443 l 931 499 l 931 581 l 933 619 l 933 647 l 932 694 l 933 742 l 931 822 l 928 846 l 928 883 l 931 926 l 928 944 l 919 953 l 908 958 l 883 961 l 863 964 l 853 963 l 839 956 l 835 939 l 835 864 l 833 832 l 832 794 l 832 771 l 831 742 l 831 718 l 829 693 l 829 667 l 832 633 l 831 600 l 829 568 l 829 526 l 831 483 l 828 461 l 829 424 l 832 360 l 828 314 l 826 290 l 825 271 l 818 236 l 801 185 l 779 146 l 760 121 l 739 107 l 717 93 l 703 86 l 696 83 l 681 76 l 649 67 l 604 61 l 575 60 l 544 57 l 500 60 l 465 65 l 454 65 l 426 71 l 382 85 l 350 99 l 318 125 l 300 144 l 278 182 l 268 201 l 263 224 l 256 254 l 254 292 l 251 315 l 251 336 l 253 363 l 251 394 l 253 425 l 251 440 l 251 461 l 250 494 l 250 600 l 253 656 l 254 682 l 254 757 l 256 808 l 256 851 l 258 881 l 258 915 l 257 943 l 244 967 l 226 971 l 204 971 l 183 972 l 176 969 l 168 963 l 165 951 l 163 928 l 160 890 l 160 849 l 158 800 l 158 747 l 157 722 l 157 649 l 154 618 l 154 569 l 156 529 l 156 506 l 154 467 l 157 432 l 156 394 l 154 364 l 153 335 l 153 303 l 154 276 l 157 256 l 161 221 l 169 188 l 176 169 l 189 139 l 203 115 l 228 78 l 250 53 l 285 26 l 321 4 l 354 -11 l 388 -19 l 411 -25 l 438 -29 l 500 -35 l 557 -35 l 603 -31 l 606 -43 l 574 -93 l 551 -131 l 540 -158 l 533 -182 l 529 -200 l 526 -222 l 526 -244 l 533 -271 l 544 -296 l 556 -315 l 574 -331 l 604 -350 l 636 -362 l 656 -365 l 682 -368 z "},"Ů":{"ha":1079,"x_min":0,"x_max":0,"o":"m 500 -35 l 557 -35 l 601 -31 l 629 -31 l 661 -26 l 688 -22 l 721 -11 l 743 -3 l 769 10 l 793 25 l 826 49 l 851 75 l 868 96 l 885 131 l 903 171 l 908 190 l 913 215 l 921 251 l 925 290 l 926 336 l 926 392 l 928 443 l 931 499 l 931 581 l 933 619 l 933 647 l 932 694 l 933 742 l 931 822 l 928 846 l 928 883 l 931 926 l 928 944 l 919 953 l 908 958 l 883 961 l 863 964 l 853 963 l 839 956 l 835 939 l 835 864 l 833 832 l 832 794 l 832 771 l 831 742 l 831 718 l 829 693 l 829 667 l 832 633 l 831 600 l 829 568 l 829 526 l 831 483 l 828 461 l 829 424 l 832 360 l 828 314 l 826 290 l 825 271 l 818 236 l 801 185 l 779 146 l 760 121 l 739 107 l 717 93 l 703 86 l 696 83 l 681 76 l 649 67 l 604 61 l 575 60 l 544 57 l 500 60 l 465 65 l 454 65 l 426 71 l 382 85 l 350 99 l 318 125 l 300 144 l 278 182 l 268 201 l 263 224 l 256 254 l 254 292 l 251 315 l 251 336 l 253 363 l 251 394 l 253 425 l 251 440 l 251 461 l 250 494 l 250 600 l 253 656 l 254 682 l 254 757 l 256 808 l 256 851 l 258 881 l 258 915 l 257 943 l 244 967 l 226 971 l 204 971 l 183 972 l 176 969 l 168 963 l 165 951 l 163 928 l 160 890 l 160 849 l 158 800 l 158 747 l 157 722 l 157 649 l 154 618 l 154 569 l 156 529 l 156 506 l 154 467 l 157 432 l 156 394 l 154 364 l 153 335 l 153 303 l 154 276 l 157 256 l 161 221 l 169 188 l 176 169 l 189 139 l 203 115 l 228 78 l 250 53 l 285 26 l 321 4 l 354 -11 l 388 -19 l 411 -25 l 438 -29 z m 556 1051 l 581 1056 l 599 1058 l 615 1064 l 632 1071 l 646 1078 l 665 1093 l 675 1100 l 688 1114 l 696 1128 l 706 1147 l 713 1164 l 715 1171 l 718 1183 l 718 1244 l 714 1271 l 708 1286 l 706 1299 l 697 1313 l 683 1332 l 667 1349 l 651 1361 l 631 1374 l 604 1383 l 574 1390 l 543 1393 l 519 1390 l 507 1392 l 494 1389 l 475 1382 l 463 1375 l 451 1371 l 435 1360 l 424 1350 l 411 1338 l 393 1314 l 383 1293 l 379 1276 l 372 1257 l 369 1236 l 367 1221 l 368 1211 l 368 1197 l 378 1161 l 396 1128 l 425 1099 l 449 1083 l 474 1069 l 485 1065 l 492 1061 l 518 1053 z m 543 1143 l 529 1144 l 508 1154 l 483 1176 l 472 1204 l 472 1221 l 475 1239 l 481 1258 l 496 1285 l 517 1297 l 535 1303 l 551 1304 l 563 1303 l 571 1299 l 575 1296 l 589 1289 l 611 1263 l 618 1238 l 619 1225 l 618 1201 l 608 1181 l 597 1164 l 571 1146 z "},"V":{"ha":1013,"x_min":0,"x_max":0,"o":"m 507 -7 l 532 -4 l 547 21 l 569 71 l 592 119 l 611 158 l 636 225 l 654 264 l 668 290 l 679 315 l 704 374 l 718 407 l 729 433 l 736 451 l 750 481 l 764 518 l 775 543 l 786 569 l 807 615 l 828 657 l 844 696 l 854 718 l 878 769 l 894 813 l 907 842 l 921 869 l 935 901 l 943 928 l 942 946 l 926 961 l 904 971 l 881 976 l 865 969 l 853 953 l 838 917 l 826 894 l 815 867 l 800 838 l 789 813 l 778 786 l 765 757 l 757 739 l 749 717 l 740 700 l 722 660 l 707 629 l 694 600 l 669 544 l 643 486 l 622 439 l 593 375 l 579 342 l 564 307 l 553 283 l 525 224 l 511 199 l 503 193 l 492 194 l 479 211 l 465 249 l 446 297 l 436 319 l 422 353 l 413 376 l 397 408 l 388 433 l 375 460 l 356 508 l 340 543 l 325 579 l 313 608 l 303 631 l 285 672 l 274 706 l 258 738 l 243 782 l 228 815 l 214 853 l 203 882 l 196 897 l 188 919 l 179 940 l 169 967 l 156 989 l 131 989 l 99 978 l 72 963 l 69 949 l 69 940 l 76 928 l 92 893 l 108 850 l 121 821 l 126 800 l 136 776 l 147 753 l 157 724 l 168 696 l 172 685 l 186 651 l 197 626 l 218 583 l 231 551 l 251 511 l 268 471 l 276 446 l 293 406 l 303 381 l 324 332 l 332 311 l 346 278 l 357 249 l 372 211 l 385 179 l 400 144 l 410 122 l 422 97 l 432 76 l 442 53 l 451 32 l 465 7 l 482 -4 z "},"W":{"ha":1422,"x_min":0,"x_max":0,"o":"m 921 -12 l 942 -11 l 958 7 l 976 44 l 985 68 l 997 94 l 1014 132 l 1022 156 l 1029 174 l 1038 189 l 1043 203 l 1051 222 l 1064 249 l 1071 264 l 1081 285 l 1097 324 l 1110 349 l 1122 378 l 1135 408 l 1146 433 l 1164 478 l 1183 519 l 1203 564 l 1247 664 l 1264 703 l 1275 726 l 1293 774 l 1303 796 l 1313 819 l 1328 856 l 1336 883 l 1350 919 l 1351 943 l 1343 953 l 1329 961 l 1307 968 l 1286 972 l 1276 967 l 1265 953 l 1247 918 l 1229 876 l 1211 836 l 1196 799 l 1179 761 l 1161 715 l 1142 668 l 1121 626 l 1104 585 l 1094 564 l 1083 539 l 1069 513 l 1058 488 l 1039 436 l 1024 406 l 1008 369 l 989 317 l 978 292 l 956 244 l 940 213 l 926 200 l 914 194 l 907 199 l 896 213 l 875 269 l 865 292 l 857 313 l 843 351 l 822 411 l 808 440 l 796 479 l 786 503 l 779 524 l 774 558 l 779 588 l 786 608 l 804 650 l 825 699 l 842 732 l 858 778 l 872 811 l 886 846 l 904 890 l 915 922 l 918 939 l 915 944 l 910 953 l 888 967 l 863 976 l 844 978 l 833 968 l 824 951 l 810 915 l 796 886 l 786 864 l 775 840 l 765 818 l 746 778 l 729 742 l 721 728 l 708 721 l 690 735 l 682 753 l 672 776 l 656 819 l 639 860 l 625 897 l 617 921 l 608 939 l 597 964 l 581 982 l 563 985 l 539 976 l 519 967 l 507 954 l 517 910 l 535 864 l 543 842 l 553 813 l 568 771 l 582 736 l 601 694 l 631 617 l 640 586 l 639 554 l 631 524 l 619 488 l 607 458 l 592 418 l 568 364 l 553 335 l 538 303 l 517 249 l 503 215 l 497 206 l 486 197 l 475 203 l 465 214 l 454 240 l 442 271 l 429 300 l 424 318 l 418 329 l 406 361 l 388 406 l 374 436 l 363 471 l 354 493 l 342 531 l 331 553 l 319 581 l 310 606 l 299 624 l 285 657 l 275 681 l 265 711 l 260 728 l 244 763 l 235 794 l 228 811 l 219 825 l 211 847 l 194 888 l 182 926 l 167 958 l 154 979 l 142 986 l 125 988 l 108 985 l 92 979 l 79 971 l 71 961 l 71 946 l 86 906 l 99 868 l 113 840 l 135 788 l 149 750 l 167 694 l 185 646 l 201 613 l 213 585 l 242 508 l 256 475 l 268 438 l 283 401 l 297 365 l 308 332 l 326 293 l 344 247 l 357 217 l 374 172 l 383 149 l 400 111 l 410 82 l 442 18 l 454 6 l 478 0 l 507 3 l 525 15 l 529 24 l 540 47 l 556 79 l 567 104 l 576 129 l 588 151 l 603 192 l 622 238 l 636 271 l 650 303 l 679 371 l 699 404 l 711 410 l 719 404 l 731 383 l 739 361 l 744 342 l 751 319 l 763 294 l 778 254 l 793 215 l 801 192 l 824 140 l 838 99 l 849 76 l 863 43 l 876 14 l 889 0 l 908 -10 z "},"Ẃ":{"ha":1422,"x_min":0,"x_max":0,"o":"m 921 -12 l 942 -11 l 958 7 l 976 44 l 985 68 l 997 94 l 1014 132 l 1022 156 l 1029 174 l 1038 189 l 1043 203 l 1051 222 l 1064 249 l 1071 264 l 1081 285 l 1097 324 l 1110 349 l 1122 378 l 1135 408 l 1146 433 l 1164 478 l 1183 519 l 1203 564 l 1247 664 l 1264 703 l 1275 726 l 1293 774 l 1303 796 l 1313 819 l 1328 856 l 1336 883 l 1350 919 l 1351 943 l 1343 953 l 1329 961 l 1307 968 l 1286 972 l 1276 967 l 1265 953 l 1247 918 l 1229 876 l 1211 836 l 1196 799 l 1179 761 l 1161 715 l 1142 668 l 1121 626 l 1104 585 l 1094 564 l 1083 539 l 1069 513 l 1058 488 l 1039 436 l 1024 406 l 1008 369 l 989 317 l 978 292 l 956 244 l 940 213 l 926 200 l 914 194 l 907 199 l 896 213 l 875 269 l 865 292 l 857 313 l 843 351 l 822 411 l 808 440 l 796 479 l 786 503 l 779 524 l 774 558 l 779 588 l 786 608 l 804 650 l 825 699 l 842 732 l 858 778 l 872 811 l 886 846 l 904 890 l 915 922 l 918 939 l 915 944 l 910 953 l 888 967 l 863 976 l 844 978 l 833 968 l 824 951 l 810 915 l 796 886 l 786 864 l 775 840 l 765 818 l 746 778 l 729 742 l 721 728 l 708 721 l 690 735 l 682 753 l 672 776 l 656 819 l 639 860 l 625 897 l 617 921 l 608 939 l 597 964 l 581 982 l 563 985 l 539 976 l 519 967 l 507 954 l 517 910 l 535 864 l 543 842 l 553 813 l 568 771 l 582 736 l 601 694 l 631 617 l 640 586 l 639 554 l 631 524 l 619 488 l 607 458 l 592 418 l 568 364 l 553 335 l 538 303 l 517 249 l 503 215 l 497 206 l 486 197 l 475 203 l 465 214 l 454 240 l 442 271 l 429 300 l 424 318 l 418 329 l 406 361 l 388 406 l 374 436 l 363 471 l 354 493 l 342 531 l 331 553 l 319 581 l 310 606 l 299 624 l 285 657 l 275 681 l 265 711 l 260 728 l 244 763 l 235 794 l 228 811 l 219 825 l 211 847 l 194 888 l 182 926 l 167 958 l 154 979 l 142 986 l 125 988 l 108 985 l 92 979 l 79 971 l 71 961 l 71 946 l 86 906 l 99 868 l 113 840 l 135 788 l 149 750 l 167 694 l 185 646 l 201 613 l 213 585 l 242 508 l 256 475 l 268 438 l 283 401 l 297 365 l 308 332 l 326 293 l 344 247 l 357 217 l 374 172 l 383 149 l 400 111 l 410 82 l 442 18 l 454 6 l 478 0 l 507 3 l 525 15 l 529 24 l 540 47 l 556 79 l 567 104 l 576 129 l 588 151 l 603 192 l 622 238 l 636 271 l 650 303 l 679 371 l 699 404 l 711 410 l 719 404 l 731 383 l 739 361 l 744 342 l 751 319 l 763 294 l 778 254 l 793 215 l 801 192 l 824 140 l 838 99 l 849 76 l 863 43 l 876 14 l 889 0 l 908 -10 z m 717 1092 l 726 1096 l 747 1111 l 769 1136 l 793 1161 l 825 1193 l 840 1210 l 872 1243 l 892 1264 l 899 1286 l 892 1304 l 860 1336 l 849 1343 l 835 1344 l 810 1326 l 789 1307 l 769 1292 l 747 1274 l 732 1257 l 718 1246 l 704 1229 l 661 1188 l 646 1169 l 639 1156 l 642 1140 l 650 1122 l 675 1104 l 700 1094 z "},"Ŵ":{"ha":1422,"x_min":0,"x_max":0,"o":"m 921 -12 l 942 -11 l 958 7 l 976 44 l 985 68 l 997 94 l 1014 132 l 1022 156 l 1029 174 l 1038 189 l 1043 203 l 1051 222 l 1064 249 l 1071 264 l 1081 285 l 1097 324 l 1110 349 l 1122 378 l 1135 408 l 1146 433 l 1164 478 l 1183 519 l 1203 564 l 1247 664 l 1264 703 l 1275 726 l 1293 774 l 1303 796 l 1313 819 l 1328 856 l 1336 883 l 1350 919 l 1351 943 l 1343 953 l 1329 961 l 1307 968 l 1286 972 l 1276 967 l 1265 953 l 1247 918 l 1229 876 l 1211 836 l 1196 799 l 1179 761 l 1161 715 l 1142 668 l 1121 626 l 1104 585 l 1094 564 l 1083 539 l 1069 513 l 1058 488 l 1039 436 l 1024 406 l 1008 369 l 989 317 l 978 292 l 956 244 l 940 213 l 926 200 l 914 194 l 907 199 l 896 213 l 875 269 l 865 292 l 857 313 l 843 351 l 822 411 l 808 440 l 796 479 l 786 503 l 779 524 l 774 558 l 779 588 l 786 608 l 804 650 l 825 699 l 842 732 l 858 778 l 872 811 l 886 846 l 904 890 l 915 922 l 918 939 l 915 944 l 910 953 l 888 967 l 863 976 l 844 978 l 833 968 l 824 951 l 810 915 l 796 886 l 786 864 l 775 840 l 765 818 l 746 778 l 729 742 l 721 728 l 708 721 l 690 735 l 682 753 l 672 776 l 656 819 l 639 860 l 625 897 l 617 921 l 608 939 l 597 964 l 581 982 l 563 985 l 539 976 l 519 967 l 507 954 l 517 910 l 535 864 l 543 842 l 553 813 l 568 771 l 582 736 l 601 694 l 631 617 l 640 586 l 639 554 l 631 524 l 619 488 l 607 458 l 592 418 l 568 364 l 553 335 l 538 303 l 517 249 l 503 215 l 497 206 l 486 197 l 475 203 l 465 214 l 454 240 l 442 271 l 429 300 l 424 318 l 418 329 l 406 361 l 388 406 l 374 436 l 363 471 l 354 493 l 342 531 l 331 553 l 319 581 l 310 606 l 299 624 l 285 657 l 275 681 l 265 711 l 260 728 l 244 763 l 235 794 l 228 811 l 219 825 l 211 847 l 194 888 l 182 926 l 167 958 l 154 979 l 142 986 l 125 988 l 108 985 l 92 979 l 79 971 l 71 961 l 71 946 l 86 906 l 99 868 l 113 840 l 135 788 l 149 750 l 167 694 l 185 646 l 201 613 l 213 585 l 242 508 l 256 475 l 268 438 l 283 401 l 297 365 l 308 332 l 326 293 l 344 247 l 357 217 l 374 172 l 383 149 l 400 111 l 410 82 l 442 18 l 454 6 l 478 0 l 507 3 l 525 15 l 529 24 l 540 47 l 556 79 l 567 104 l 576 129 l 588 151 l 603 192 l 622 238 l 636 271 l 650 303 l 679 371 l 699 404 l 711 410 l 719 404 l 731 383 l 739 361 l 744 342 l 751 319 l 763 294 l 778 254 l 793 215 l 801 192 l 824 140 l 838 99 l 849 76 l 863 43 l 876 14 l 889 0 l 908 -10 z m 556 1083 l 569 1085 l 599 1111 l 635 1156 l 665 1188 l 689 1214 l 707 1225 l 719 1225 l 739 1210 l 753 1193 l 772 1171 l 804 1139 l 829 1108 l 847 1094 l 860 1089 l 874 1090 l 897 1104 l 917 1118 l 926 1132 l 918 1158 l 893 1186 l 863 1215 l 846 1236 l 831 1253 l 815 1274 l 792 1300 l 753 1338 l 711 1350 l 682 1349 l 660 1338 l 638 1319 l 611 1285 l 597 1265 l 567 1233 l 551 1214 l 544 1201 l 526 1182 l 503 1153 l 499 1125 l 508 1114 l 524 1103 l 542 1089 z "},"Ẅ":{"ha":1422,"x_min":0,"x_max":0,"o":"m 921 -12 l 942 -11 l 958 7 l 976 44 l 985 68 l 997 94 l 1014 132 l 1022 156 l 1029 174 l 1038 189 l 1043 203 l 1051 222 l 1064 249 l 1071 264 l 1081 285 l 1097 324 l 1110 349 l 1122 378 l 1135 408 l 1146 433 l 1164 478 l 1183 519 l 1203 564 l 1247 664 l 1264 703 l 1275 726 l 1293 774 l 1303 796 l 1313 819 l 1328 856 l 1336 883 l 1350 919 l 1351 943 l 1343 953 l 1329 961 l 1307 968 l 1286 972 l 1276 967 l 1265 953 l 1247 918 l 1229 876 l 1211 836 l 1196 799 l 1179 761 l 1161 715 l 1142 668 l 1121 626 l 1104 585 l 1094 564 l 1083 539 l 1069 513 l 1058 488 l 1039 436 l 1024 406 l 1008 369 l 989 317 l 978 292 l 956 244 l 940 213 l 926 200 l 914 194 l 907 199 l 896 213 l 875 269 l 865 292 l 857 313 l 843 351 l 822 411 l 808 440 l 796 479 l 786 503 l 779 524 l 774 558 l 779 588 l 786 608 l 804 650 l 825 699 l 842 732 l 858 778 l 872 811 l 886 846 l 904 890 l 915 922 l 918 939 l 915 944 l 910 953 l 888 967 l 863 976 l 844 978 l 833 968 l 824 951 l 810 915 l 796 886 l 786 864 l 775 840 l 765 818 l 746 778 l 729 742 l 721 728 l 708 721 l 690 735 l 682 753 l 672 776 l 656 819 l 639 860 l 625 897 l 617 921 l 608 939 l 597 964 l 581 982 l 563 985 l 539 976 l 519 967 l 507 954 l 517 910 l 535 864 l 543 842 l 553 813 l 568 771 l 582 736 l 601 694 l 631 617 l 640 586 l 639 554 l 631 524 l 619 488 l 607 458 l 592 418 l 568 364 l 553 335 l 538 303 l 517 249 l 503 215 l 497 206 l 486 197 l 475 203 l 465 214 l 454 240 l 442 271 l 429 300 l 424 318 l 418 329 l 406 361 l 388 406 l 374 436 l 363 471 l 354 493 l 342 531 l 331 553 l 319 581 l 310 606 l 299 624 l 285 657 l 275 681 l 265 711 l 260 728 l 244 763 l 235 794 l 228 811 l 219 825 l 211 847 l 194 888 l 182 926 l 167 958 l 154 979 l 142 986 l 125 988 l 108 985 l 92 979 l 79 971 l 71 961 l 71 946 l 86 906 l 99 868 l 113 840 l 135 788 l 149 750 l 167 694 l 185 646 l 201 613 l 213 585 l 242 508 l 256 475 l 268 438 l 283 401 l 297 365 l 308 332 l 326 293 l 344 247 l 357 217 l 374 172 l 383 149 l 400 111 l 410 82 l 442 18 l 454 6 l 478 0 l 507 3 l 525 15 l 529 24 l 540 47 l 556 79 l 567 104 l 576 129 l 588 151 l 603 192 l 622 238 l 636 271 l 650 303 l 679 371 l 699 404 l 711 410 l 719 404 l 731 383 l 739 361 l 744 342 l 751 319 l 763 294 l 778 254 l 793 215 l 801 192 l 824 140 l 838 99 l 849 76 l 863 43 l 876 14 l 889 0 l 908 -10 z m 601 1142 l 625 1151 l 635 1161 l 644 1176 l 651 1197 l 651 1213 l 644 1239 l 628 1258 l 611 1269 l 589 1274 l 572 1271 l 560 1268 l 539 1253 l 526 1235 l 522 1221 l 522 1190 l 532 1167 l 542 1156 l 565 1146 z m 849 1142 l 872 1151 l 882 1161 l 892 1176 l 899 1197 l 899 1213 l 892 1239 l 875 1258 l 858 1269 l 836 1274 l 819 1271 l 807 1268 l 786 1253 l 774 1235 l 769 1221 l 769 1190 l 779 1167 l 789 1156 l 813 1146 z "},"Ẁ":{"ha":1422,"x_min":0,"x_max":0,"o":"m 921 -12 l 942 -11 l 958 7 l 976 44 l 985 68 l 997 94 l 1014 132 l 1022 156 l 1029 174 l 1038 189 l 1043 203 l 1051 222 l 1064 249 l 1071 264 l 1081 285 l 1097 324 l 1110 349 l 1122 378 l 1135 408 l 1146 433 l 1164 478 l 1183 519 l 1203 564 l 1247 664 l 1264 703 l 1275 726 l 1293 774 l 1303 796 l 1313 819 l 1328 856 l 1336 883 l 1350 919 l 1351 943 l 1343 953 l 1329 961 l 1307 968 l 1286 972 l 1276 967 l 1265 953 l 1247 918 l 1229 876 l 1211 836 l 1196 799 l 1179 761 l 1161 715 l 1142 668 l 1121 626 l 1104 585 l 1094 564 l 1083 539 l 1069 513 l 1058 488 l 1039 436 l 1024 406 l 1008 369 l 989 317 l 978 292 l 956 244 l 940 213 l 926 200 l 914 194 l 907 199 l 896 213 l 875 269 l 865 292 l 857 313 l 843 351 l 822 411 l 808 440 l 796 479 l 786 503 l 779 524 l 774 558 l 779 588 l 786 608 l 804 650 l 825 699 l 842 732 l 858 778 l 872 811 l 886 846 l 904 890 l 915 922 l 918 939 l 915 944 l 910 953 l 888 967 l 863 976 l 844 978 l 833 968 l 824 951 l 810 915 l 796 886 l 786 864 l 775 840 l 765 818 l 746 778 l 729 742 l 721 728 l 708 721 l 690 735 l 682 753 l 672 776 l 656 819 l 639 860 l 625 897 l 617 921 l 608 939 l 597 964 l 581 982 l 563 985 l 539 976 l 519 967 l 507 954 l 517 910 l 535 864 l 543 842 l 553 813 l 568 771 l 582 736 l 601 694 l 631 617 l 640 586 l 639 554 l 631 524 l 619 488 l 607 458 l 592 418 l 568 364 l 553 335 l 538 303 l 517 249 l 503 215 l 497 206 l 486 197 l 475 203 l 465 214 l 454 240 l 442 271 l 429 300 l 424 318 l 418 329 l 406 361 l 388 406 l 374 436 l 363 471 l 354 493 l 342 531 l 331 553 l 319 581 l 310 606 l 299 624 l 285 657 l 275 681 l 265 711 l 260 728 l 244 763 l 235 794 l 228 811 l 219 825 l 211 847 l 194 888 l 182 926 l 167 958 l 154 979 l 142 986 l 125 988 l 108 985 l 92 979 l 79 971 l 71 961 l 71 946 l 86 906 l 99 868 l 113 840 l 135 788 l 149 750 l 167 694 l 185 646 l 201 613 l 213 585 l 242 508 l 256 475 l 268 438 l 283 401 l 297 365 l 308 332 l 326 293 l 344 247 l 357 217 l 374 172 l 383 149 l 400 111 l 410 82 l 442 18 l 454 6 l 478 0 l 507 3 l 525 15 l 529 24 l 540 47 l 556 79 l 567 104 l 576 129 l 588 151 l 603 192 l 622 238 l 636 271 l 650 303 l 679 371 l 699 404 l 711 410 l 719 404 l 731 383 l 739 361 l 744 342 l 751 319 l 763 294 l 778 254 l 793 215 l 801 192 l 824 140 l 838 99 l 849 76 l 863 43 l 876 14 l 889 0 l 908 -10 z m 706 1092 l 721 1094 l 747 1103 l 771 1122 l 781 1140 l 782 1156 l 776 1169 l 761 1188 l 718 1229 l 703 1246 l 690 1257 l 674 1272 l 653 1292 l 635 1307 l 613 1326 l 588 1344 l 574 1343 l 563 1335 l 543 1318 l 529 1304 l 522 1286 l 531 1264 l 550 1243 l 596 1193 l 653 1136 l 675 1111 l 696 1094 z "},"X":{"ha":1004,"x_min":0,"x_max":0,"o":"m 876 -18 l 896 -6 l 914 10 l 928 24 l 935 39 l 929 51 l 915 72 l 899 90 l 881 115 l 854 147 l 838 169 l 822 186 l 804 204 l 793 221 l 779 238 l 760 264 l 739 290 l 724 311 l 700 339 l 678 368 l 664 385 l 643 408 l 618 439 l 606 458 l 597 475 l 589 493 l 590 514 l 611 549 l 664 611 l 679 626 l 697 649 l 711 668 l 733 693 l 767 732 l 794 768 l 818 793 l 844 825 l 872 857 l 894 888 l 913 915 l 913 925 l 904 939 l 894 954 l 876 967 l 851 974 l 833 965 l 811 940 l 796 922 l 771 894 l 751 871 l 729 840 l 700 806 l 676 776 l 658 758 l 638 736 l 610 699 l 576 656 l 560 636 l 533 613 l 521 606 l 500 606 l 483 614 l 472 625 l 444 657 l 418 686 l 401 708 l 378 738 l 357 765 l 336 790 l 324 807 l 308 825 l 282 858 l 250 900 l 211 953 l 193 974 l 179 983 l 164 985 l 143 975 l 121 958 l 110 943 l 110 933 l 114 921 l 131 894 l 160 857 l 178 832 l 197 808 l 224 768 l 246 743 l 265 717 l 344 624 l 404 553 l 418 535 l 429 518 l 433 506 l 425 483 l 407 456 l 378 422 l 353 389 l 300 328 l 260 282 l 229 242 l 185 189 l 169 174 l 150 150 l 129 126 l 115 108 l 92 85 l 78 63 l 72 53 l 69 46 l 71 38 l 79 25 l 103 10 l 118 -3 l 124 -6 l 138 -6 l 157 7 l 181 36 l 194 56 l 206 68 l 224 89 l 242 113 l 263 138 l 282 164 l 306 192 l 322 213 l 351 244 l 378 278 l 406 308 l 426 331 l 450 357 l 457 368 l 488 396 l 508 403 l 524 399 l 544 375 l 567 349 l 599 307 l 619 278 l 647 247 l 665 224 l 696 179 l 726 140 l 763 101 l 779 79 l 800 49 l 824 18 l 844 -7 l 854 -14 z "},"Y":{"ha":1013,"x_min":0,"x_max":0,"o":"m 515 0 l 540 1 l 547 10 l 550 31 l 549 71 l 549 97 l 550 156 l 549 213 l 550 240 l 553 278 l 553 361 l 554 389 l 558 425 l 561 438 l 571 457 l 588 482 l 608 506 l 628 531 l 650 557 l 678 589 l 701 621 l 731 656 l 756 690 l 768 708 l 788 731 l 819 764 l 857 811 l 874 833 l 896 857 l 914 878 l 926 897 l 938 913 l 943 929 l 935 947 l 918 963 l 904 972 l 890 976 l 875 972 l 865 965 l 836 939 l 797 896 l 781 878 l 761 854 l 747 833 l 725 810 l 699 776 l 675 747 l 660 726 l 631 693 l 608 668 l 592 644 l 576 625 l 542 586 l 518 561 l 507 556 l 493 561 l 476 575 l 461 589 l 436 619 l 414 650 l 396 672 l 361 719 l 347 739 l 335 753 l 324 765 l 303 793 l 286 814 l 265 838 l 246 865 l 211 910 l 192 939 l 178 956 l 158 975 l 126 988 l 106 979 l 92 967 l 75 953 l 71 944 l 72 925 l 83 904 l 128 844 l 146 821 l 182 776 l 210 744 l 232 713 l 249 692 l 268 664 l 290 638 l 311 608 l 336 581 l 354 558 l 374 531 l 417 481 l 433 453 l 446 422 l 447 404 l 449 367 l 449 293 l 453 249 l 451 204 l 451 168 l 449 129 l 449 63 l 451 36 l 454 15 l 461 8 l 474 1 l 486 1 z "},"Ý":{"ha":1013,"x_min":0,"x_max":0,"o":"m 515 0 l 540 1 l 547 10 l 550 31 l 549 71 l 549 97 l 550 156 l 549 213 l 550 240 l 553 278 l 553 361 l 554 389 l 558 425 l 561 438 l 571 457 l 588 482 l 608 506 l 628 531 l 650 557 l 678 589 l 701 621 l 731 656 l 756 690 l 768 708 l 788 731 l 819 764 l 857 811 l 874 833 l 896 857 l 914 878 l 926 897 l 938 913 l 943 929 l 935 947 l 918 963 l 904 972 l 890 976 l 875 972 l 865 965 l 836 939 l 797 896 l 781 878 l 761 854 l 747 833 l 725 810 l 699 776 l 675 747 l 660 726 l 631 693 l 608 668 l 592 644 l 576 625 l 542 586 l 518 561 l 507 556 l 493 561 l 476 575 l 461 589 l 436 619 l 414 650 l 396 672 l 361 719 l 347 739 l 335 753 l 324 765 l 303 793 l 286 814 l 265 838 l 246 865 l 211 910 l 192 939 l 178 956 l 158 975 l 126 988 l 106 979 l 92 967 l 75 953 l 71 944 l 72 925 l 83 904 l 128 844 l 146 821 l 182 776 l 210 744 l 232 713 l 249 692 l 268 664 l 290 638 l 311 608 l 336 581 l 354 558 l 374 531 l 417 481 l 433 453 l 446 422 l 447 404 l 449 367 l 449 293 l 453 249 l 451 204 l 451 168 l 449 129 l 449 63 l 451 36 l 454 15 l 461 8 l 474 1 l 486 1 z m 513 1092 l 522 1096 l 543 1111 l 565 1136 l 589 1161 l 621 1193 l 636 1210 l 668 1243 l 688 1264 l 694 1286 l 688 1304 l 656 1336 l 644 1343 l 631 1344 l 606 1326 l 585 1307 l 565 1292 l 543 1274 l 528 1257 l 514 1246 l 500 1229 l 457 1188 l 442 1169 l 435 1156 l 438 1140 l 446 1122 l 471 1104 l 496 1094 z "},"Ŷ":{"ha":1013,"x_min":0,"x_max":0,"o":"m 515 0 l 540 1 l 547 10 l 550 31 l 549 71 l 549 97 l 550 156 l 549 213 l 550 240 l 553 278 l 553 361 l 554 389 l 558 425 l 561 438 l 571 457 l 588 482 l 608 506 l 628 531 l 650 557 l 678 589 l 701 621 l 731 656 l 756 690 l 768 708 l 788 731 l 819 764 l 857 811 l 874 833 l 896 857 l 914 878 l 926 897 l 938 913 l 943 929 l 935 947 l 918 963 l 904 972 l 890 976 l 875 972 l 865 965 l 836 939 l 797 896 l 781 878 l 761 854 l 747 833 l 725 810 l 699 776 l 675 747 l 660 726 l 631 693 l 608 668 l 592 644 l 576 625 l 542 586 l 518 561 l 507 556 l 493 561 l 476 575 l 461 589 l 436 619 l 414 650 l 396 672 l 361 719 l 347 739 l 335 753 l 324 765 l 303 793 l 286 814 l 265 838 l 246 865 l 211 910 l 192 939 l 178 956 l 158 975 l 126 988 l 106 979 l 92 967 l 75 953 l 71 944 l 72 925 l 83 904 l 128 844 l 146 821 l 182 776 l 210 744 l 232 713 l 249 692 l 268 664 l 290 638 l 311 608 l 336 581 l 354 558 l 374 531 l 417 481 l 433 453 l 446 422 l 447 404 l 449 367 l 449 293 l 453 249 l 451 204 l 451 168 l 449 129 l 449 63 l 451 36 l 454 15 l 461 8 l 474 1 l 486 1 z m 351 1083 l 365 1085 l 394 1111 l 431 1156 l 461 1188 l 485 1214 l 503 1225 l 515 1225 l 535 1210 l 549 1193 l 568 1171 l 600 1139 l 625 1108 l 643 1094 l 656 1089 l 669 1090 l 693 1104 l 713 1118 l 722 1132 l 714 1158 l 689 1186 l 658 1215 l 642 1236 l 626 1253 l 611 1274 l 588 1300 l 549 1338 l 507 1350 l 478 1349 l 456 1338 l 433 1319 l 407 1285 l 393 1265 l 363 1233 l 347 1214 l 340 1201 l 322 1182 l 299 1153 l 294 1125 l 304 1114 l 319 1103 l 338 1089 z "},"Ÿ":{"ha":1013,"x_min":0,"x_max":0,"o":"m 515 0 l 540 1 l 547 10 l 550 31 l 549 71 l 549 97 l 550 156 l 549 213 l 550 240 l 553 278 l 553 361 l 554 389 l 558 425 l 561 438 l 571 457 l 588 482 l 608 506 l 628 531 l 650 557 l 678 589 l 701 621 l 731 656 l 756 690 l 768 708 l 788 731 l 819 764 l 857 811 l 874 833 l 896 857 l 914 878 l 926 897 l 938 913 l 943 929 l 935 947 l 918 963 l 904 972 l 890 976 l 875 972 l 865 965 l 836 939 l 797 896 l 781 878 l 761 854 l 747 833 l 725 810 l 699 776 l 675 747 l 660 726 l 631 693 l 608 668 l 592 644 l 576 625 l 542 586 l 518 561 l 507 556 l 493 561 l 476 575 l 461 589 l 436 619 l 414 650 l 396 672 l 361 719 l 347 739 l 335 753 l 324 765 l 303 793 l 286 814 l 265 838 l 246 865 l 211 910 l 192 939 l 178 956 l 158 975 l 126 988 l 106 979 l 92 967 l 75 953 l 71 944 l 72 925 l 83 904 l 128 844 l 146 821 l 182 776 l 210 744 l 232 713 l 249 692 l 268 664 l 290 638 l 311 608 l 336 581 l 354 558 l 374 531 l 417 481 l 433 453 l 446 422 l 447 404 l 449 367 l 449 293 l 453 249 l 451 204 l 451 168 l 449 129 l 449 63 l 451 36 l 454 15 l 461 8 l 474 1 l 486 1 z m 397 1142 l 421 1151 l 431 1161 l 440 1176 l 447 1197 l 447 1213 l 440 1239 l 424 1258 l 407 1269 l 385 1274 l 368 1271 l 356 1268 l 335 1253 l 322 1235 l 318 1221 l 318 1190 l 328 1167 l 338 1156 l 361 1146 z m 644 1142 l 668 1151 l 678 1161 l 688 1176 l 694 1197 l 694 1213 l 688 1239 l 671 1258 l 654 1269 l 632 1274 l 615 1271 l 603 1268 l 582 1253 l 569 1235 l 565 1221 l 565 1190 l 575 1167 l 585 1156 l 608 1146 z "},"Ỳ":{"ha":1013,"x_min":0,"x_max":0,"o":"m 515 0 l 540 1 l 547 10 l 550 31 l 549 71 l 549 97 l 550 156 l 549 213 l 550 240 l 553 278 l 553 361 l 554 389 l 558 425 l 561 438 l 571 457 l 588 482 l 608 506 l 628 531 l 650 557 l 678 589 l 701 621 l 731 656 l 756 690 l 768 708 l 788 731 l 819 764 l 857 811 l 874 833 l 896 857 l 914 878 l 926 897 l 938 913 l 943 929 l 935 947 l 918 963 l 904 972 l 890 976 l 875 972 l 865 965 l 836 939 l 797 896 l 781 878 l 761 854 l 747 833 l 725 810 l 699 776 l 675 747 l 660 726 l 631 693 l 608 668 l 592 644 l 576 625 l 542 586 l 518 561 l 507 556 l 493 561 l 476 575 l 461 589 l 436 619 l 414 650 l 396 672 l 361 719 l 347 739 l 335 753 l 324 765 l 303 793 l 286 814 l 265 838 l 246 865 l 211 910 l 192 939 l 178 956 l 158 975 l 126 988 l 106 979 l 92 967 l 75 953 l 71 944 l 72 925 l 83 904 l 128 844 l 146 821 l 182 776 l 210 744 l 232 713 l 249 692 l 268 664 l 290 638 l 311 608 l 336 581 l 354 558 l 374 531 l 417 481 l 433 453 l 446 422 l 447 404 l 449 367 l 449 293 l 453 249 l 451 204 l 451 168 l 449 129 l 449 63 l 451 36 l 454 15 l 461 8 l 474 1 l 486 1 z m 501 1092 l 517 1094 l 543 1103 l 567 1122 l 576 1140 l 578 1156 l 572 1169 l 557 1188 l 514 1229 l 499 1246 l 486 1257 l 469 1272 l 449 1292 l 431 1307 l 408 1326 l 383 1344 l 369 1343 l 358 1335 l 339 1318 l 325 1304 l 318 1286 l 326 1264 l 346 1243 l 392 1193 l 449 1136 l 471 1111 l 492 1094 z "},"Z":{"ha":926,"x_min":0,"x_max":0,"o":"m 636 -8 l 794 -8 l 833 -3 l 844 17 l 842 35 l 840 54 l 839 69 l 835 79 l 815 88 l 796 92 l 772 92 l 736 89 l 714 92 l 561 92 l 533 93 l 475 93 l 426 92 l 281 92 l 263 96 l 250 100 l 240 106 l 239 115 l 240 132 l 264 163 l 293 203 l 317 231 l 333 253 l 349 269 l 365 292 l 393 325 l 429 374 l 439 383 l 451 401 l 465 418 l 485 439 l 511 474 l 532 499 l 554 529 l 585 569 l 600 588 l 621 610 l 639 633 l 682 689 l 717 731 l 749 774 l 768 792 l 794 829 l 828 869 l 849 910 l 847 943 l 835 960 l 814 965 l 774 967 l 726 965 l 700 965 l 674 963 l 576 967 l 547 971 l 524 971 l 458 975 l 432 975 l 399 976 l 368 972 l 322 975 l 260 975 l 219 976 l 163 976 l 121 971 l 110 949 l 108 926 l 113 908 l 122 894 l 140 885 l 163 881 l 196 882 l 268 882 l 292 885 l 325 883 l 371 886 l 431 882 l 471 882 l 518 881 l 599 881 l 632 876 l 664 875 l 676 874 l 685 865 l 683 849 l 669 826 l 649 800 l 628 772 l 606 744 l 592 726 l 582 717 l 563 690 l 547 667 l 535 651 l 507 621 l 476 582 l 417 507 l 386 467 l 342 414 l 324 393 l 308 372 l 281 338 l 246 296 l 217 257 l 197 235 l 186 222 l 164 193 l 139 161 l 115 132 l 94 103 l 79 68 l 78 40 l 79 22 l 93 10 l 108 4 l 136 0 l 197 3 l 229 1 l 267 1 l 296 0 l 447 0 l 479 -3 l 503 -4 l 547 -1 l 604 -4 z "}}}
